<svg xmlns="http://www.w3.org/2000/svg" width="28.7" height="28.7" viewBox="0 0 28.7 28.7"><g transform="translate(-1.65 -1.65)"><path d="M25.154,27.455V24.182h-.179a2.154,2.154,0,0,1-2.154-2.154v-2.3h-2.59v2.3a2.154,2.154,0,0,1-2.154,2.154H17.9v3.273ZM22.82,9.727h-2.59v8h2.59ZM2,27.455H15.385V24.182h-.179a2.154,2.154,0,0,1-2.154-2.154V5.59a3.59,3.59,0,0,1,7.18,0V7.727h2.59V5.59a3.59,3.59,0,0,1,7.18,0V22.028a2.154,2.154,0,0,1-2.154,2.154h-.18V28a2,2,0,0,1-2,2H3" fill="none" stroke="#333" stroke-linecap="round" stroke-linejoin="round" stroke-width="0.7" fill-rule="evenodd"/><path d="M7.139,12.7S4,17.254,4,18.761a3.165,3.165,0,0,0,6.279,0C10.279,17.254,7.139,12.7,7.139,12.7Z" fill="#ffa506"/><path d="M13.324,8.885v1.129H7.885V12.77H6.761V8.885H9.439V5.777H8.662V5h2.632v.777H10.6V8.885Z" fill="#333"/></g></svg>
