<svg xmlns="http://www.w3.org/2000/svg" width="29.2" height="23.7" viewBox="0 0 29.2 23.7"><g transform="translate(-1.65 -3.65)"><path d="M5,8H21a2,2,0,0,1,2,2V27H3V10A2,2,0,0,1,5,8Z" fill="none" stroke="#333" stroke-linecap="round" stroke-linejoin="round" stroke-width="0.7" fill-rule="evenodd"/><path d="M6,6h4a1,1,0,0,1,1,1V8H5V7A1,1,0,0,1,6,6Z" fill="none" stroke="#333" stroke-linecap="round" stroke-linejoin="round" stroke-width="0.7" fill-rule="evenodd"/><path d="M16,6h4a1,1,0,0,1,1,1V8H15V7A1,1,0,0,1,16,6Z" fill="none" stroke="#333" stroke-linecap="round" stroke-linejoin="round" stroke-width="0.7" fill-rule="evenodd"/><path d="M8,4a2,2,0,0,1,2,2H6A2,2,0,0,1,8,4Z" fill="none" stroke="#333" stroke-linecap="round" stroke-linejoin="round" stroke-width="0.7" fill-rule="evenodd"/><path d="M18,4a2,2,0,0,1,2,2H16A2,2,0,0,1,18,4Z" fill="none" stroke="#333" stroke-linecap="round" stroke-linejoin="round" stroke-width="0.7" fill-rule="evenodd"/><g transform="translate(19.539 22)"><path d="M8.961-4a2,2,0,0,0,2-2V-8h-4v2A2,2,0,0,0,8.961-4Z" fill="none" stroke="#333" stroke-linecap="round" stroke-linejoin="round" stroke-width="0.7" fill-rule="evenodd"/><line y1="1.8" transform="translate(7.961 -9.9)" fill="none" stroke="#333" stroke-linecap="round" stroke-linejoin="round" stroke-width="0.7"/><line y1="1.8" transform="translate(9.961 -9.9)" fill="none" stroke="#333" stroke-linecap="round" stroke-linejoin="round" stroke-width="0.7"/><path d="M0,0H6.961a2,2,0,0,0,2-2V-3.844h0" fill="none" stroke="#333" stroke-linecap="round" stroke-linejoin="round" stroke-width="0.7" fill-rule="evenodd"/></g><line x2="28" transform="translate(2 27)" fill="none" stroke="#333" stroke-linecap="round" stroke-linejoin="round" stroke-width="0.7"/><path d="M11.609,12h2.95L12.64,15.983h3.739L12.1,22.494l1.2-4.589H9Z" fill="#ffa506"/><rect width="3" height="4" transform="translate(18 20)" fill="none" stroke="#333" stroke-linecap="round" stroke-linejoin="round" stroke-width="0.7"/></g></svg>
