<svg xmlns="http://www.w3.org/2000/svg" width="28.7" height="30.223" viewBox="0 0 28.7 30.223"><g transform="translate(-1.65 -0.127)"><path d="M23,6h7V8.652H28.385V23.478l-6.731,4.869H18.827V30H13.173V28.348H10.346L3.615,23.478V8.652H2V6H9" fill="none" stroke="#333" stroke-linecap="round" stroke-linejoin="round" stroke-width="0.7" fill-rule="evenodd"/><path d="M16.139,6S13,10.558,13,12.065a3.165,3.165,0,0,0,6.279,0C19.279,10.558,16.139,6,16.139,6Z" fill="#ffa506"/><line x2="18" transform="translate(7 23.5)" fill="none" stroke="#333" stroke-linecap="round" stroke-linejoin="round" stroke-width="0.7" stroke-dasharray="2"/><line x2="14" transform="translate(9 25.5)" fill="none" stroke="#333" stroke-linecap="round" stroke-linejoin="round" stroke-width="0.7" stroke-dasharray="2"/><path d="M16,2A8.009,8.009,0,0,0,8.607,6.938" fill="none" stroke="#333" stroke-linecap="round" stroke-linejoin="round" stroke-width="0.7" fill-rule="evenodd"/><path d="M8,10a8,8,0,0,0,11.062,7.393" fill="none" stroke="#333" stroke-linecap="round" stroke-linejoin="round" stroke-width="0.7" fill-rule="evenodd"/><path d="M21.657,15.657a8,8,0,0,0-2.595-13.05" fill="none" stroke="#333" stroke-linecap="round" stroke-linejoin="round" stroke-width="0.7" fill-rule="evenodd"/><path d="M14.907.621,16.139,2,14.907,3.232" fill="none" stroke="#333" stroke-linecap="round" stroke-linejoin="round" stroke-width="0.7" fill-rule="evenodd"/><path d="M20.907,14.521,22.139,15.9l-1.232,1.232" transform="matrix(-0.755, 0.656, -0.656, -0.755, 48.15, 13.65)" fill="none" stroke="#333" stroke-linecap="round" stroke-linejoin="round" stroke-width="0.7" fill-rule="evenodd"/><path d="M7.407,8.621,8.639,10,7.407,11.232" transform="translate(-1.47 18.458) rotate(-93)" fill="none" stroke="#333" stroke-linecap="round" stroke-linejoin="round" stroke-width="0.7" fill-rule="evenodd"/></g></svg>
