<svg xmlns="http://www.w3.org/2000/svg" width="28.7" height="27.2" viewBox="0 0 28.7 27.2"><g transform="translate(-1.65 -1.65)"><path d="M18.029,17.435c4.651,0,4.7,8.263,9.283,8.263,2.942,0,2.733,1.626,2.733,2.77-1.645,0-1.883.05-2.733,0-6.954-.408-4.912-8.51-9.283-8.51" fill="#ffa506"/><path d="M3.287,28.4V25.6l2.117.033V22.8H7.945V20h2.342" fill="none" stroke="#333" stroke-linecap="round" stroke-linejoin="round" stroke-width="0.7" fill-rule="evenodd"/><line x2="28" transform="translate(2 28.5)" fill="none" stroke="#333" stroke-linecap="round" stroke-linejoin="round" stroke-width="0.7"/><rect width="8" height="10" transform="translate(10 10)" fill="none" stroke="#333" stroke-linecap="round" stroke-linejoin="round" stroke-width="0.7"/><path d="M14,2l5,8H9Z" fill="none" stroke="#333" stroke-linecap="round" stroke-linejoin="round" stroke-width="0.7" fill-rule="evenodd"/><line y2="8.4" transform="translate(12.658 20.1)" fill="none" stroke="#333" stroke-linecap="round" stroke-linejoin="round" stroke-width="0.7"/><line y2="8.4" transform="translate(16.658 20.1)" fill="none" stroke="#333" stroke-linecap="round" stroke-linejoin="round" stroke-width="0.7"/><line x2="4" transform="translate(12.658 23.388)" fill="none" stroke="#333" stroke-linecap="round" stroke-linejoin="round" stroke-width="0.7"/><line x2="4" transform="translate(12.658 26.388)" fill="none" stroke="#333" stroke-linecap="round" stroke-linejoin="round" stroke-width="0.7"/></g></svg>
