<svg xmlns="http://www.w3.org/2000/svg" width="30.7" height="26.35" viewBox="0 0 30.7 26.35"><g transform="translate(-0.65 -3)"><g transform="translate(1 3)"><circle cx="1.5" cy="1.5" r="1.5" transform="translate(1.5)" fill="#ffa506"/><rect width="2" height="20" transform="translate(2 6)" fill="none" stroke="#333" stroke-linecap="round" stroke-linejoin="round" stroke-width="0.7"/><path d="M4,8.444C9.851,8.444,9.16,4,15,4V26H4Z" fill="none" stroke="#333" stroke-linecap="round" stroke-linejoin="round" stroke-width="0.7" fill-rule="evenodd"/><line y2="18.24" transform="translate(7.673 7.76)" fill="none" stroke="#333" stroke-linecap="round" stroke-linejoin="round" stroke-width="0.7"/><line x2="11" transform="translate(4 22.947)" fill="none" stroke="#333" stroke-linecap="round" stroke-linejoin="round" stroke-width="0.7"/><line x2="11" transform="translate(4 11.947)" fill="none" stroke="#333" stroke-linecap="round" stroke-linejoin="round" stroke-width="0.7"/><line x2="0.004" y2="20.5" transform="translate(10.67 5.5)" fill="none" stroke="#333" stroke-linecap="round" stroke-linejoin="round" stroke-width="0.7"/><path d="M0,3H6L4.8,6H1.2Z" fill="none" stroke="#333" stroke-linecap="round" stroke-linejoin="round" stroke-width="0.7" fill-rule="evenodd"/></g><g transform="translate(31 3) rotate(180)"><circle cx="1.5" cy="1.5" r="1.5" transform="translate(1.5 -3)" fill="#ffa506"/><rect width="2" height="20" transform="translate(2 -26)" fill="none" stroke="#333" stroke-linecap="round" stroke-linejoin="round" stroke-width="0.7"/><path d="M4-8.444C9.851-8.444,9.16-4,15-4V-26H4Z" fill="none" stroke="#333" stroke-linecap="round" stroke-linejoin="round" stroke-width="0.7" fill-rule="evenodd"/><line y1="18.24" transform="translate(7.673 -26)" fill="none" stroke="#333" stroke-linecap="round" stroke-linejoin="round" stroke-width="0.7"/><line x2="11" transform="translate(4 -22.947)" fill="none" stroke="#333" stroke-linecap="round" stroke-linejoin="round" stroke-width="0.7"/><line x2="11" transform="translate(4 -11.947)" fill="none" stroke="#333" stroke-linecap="round" stroke-linejoin="round" stroke-width="0.7"/><line y1="20.5" x2="0.004" transform="translate(10.67 -26)" fill="none" stroke="#333" stroke-linecap="round" stroke-linejoin="round" stroke-width="0.7"/><path d="M0-3H6L4.8-6H1.2Z" fill="none" stroke="#333" stroke-linecap="round" stroke-linejoin="round" stroke-width="0.7" fill-rule="evenodd"/></g></g></svg>
