<svg xmlns="http://www.w3.org/2000/svg" width="30.63" height="23.13" viewBox="0 0 30.63 23.13"><g transform="translate(-0.685 -3.685)"><line x2="7" transform="translate(15 24.6)" fill="none" stroke="#333" stroke-linecap="round" stroke-linejoin="round" stroke-width="0.63"/><line x2="6.5" transform="translate(13 21)" fill="none" stroke="#333" stroke-linecap="round" stroke-linejoin="round" stroke-width="0.63"/><line x2="6.5" transform="translate(13 22.5)" fill="none" stroke="#333" stroke-linecap="round" stroke-linejoin="round" stroke-width="0.63"/><path d="M11,20.2h1.011a.757.757,0,0,1,.757.757v2.091a1.514,1.514,0,0,0,1.514,1.513h1.08A1.639,1.639,0,0,1,17,26.2h0v-.139a1.5,1.5,0,0,0-3,0V26.2h0" fill="none" stroke="#333" stroke-linecap="round" stroke-linejoin="round" stroke-width="0.63" fill-rule="evenodd"/><path d="M18,20.2h1.011a.757.757,0,0,1,.757.757v2.091a1.514,1.514,0,0,0,1.514,1.513h1.08A1.639,1.639,0,0,1,24,26.2h0v-.139a1.5,1.5,0,0,0-3,0V26.2h0" fill="none" stroke="#333" stroke-linecap="round" stroke-linejoin="round" stroke-width="0.63" fill-rule="evenodd"/><line y1="6.4" transform="translate(5.5 14)" fill="none" stroke="#333" stroke-linecap="round" stroke-linejoin="round" stroke-width="0.63"/><path d="M3,9H8l-.833,5H3.833Z" fill="#ffa506" fill-rule="evenodd"/><line x2="30" transform="translate(1 26.5)" fill="none" stroke="#333" stroke-linecap="round" stroke-linejoin="round" stroke-width="0.63"/><path d="M6,20.5a2.329,2.329,0,0,1,2.4,2.25,2.121,2.121,0,0,1-.137.75H8.5a1.5,1.5,0,0,1,0,3h-5a1.5,1.5,0,0,1,0-3h.237a2.121,2.121,0,0,1-.137-.75A2.329,2.329,0,0,1,6,20.5Z" fill="none" stroke="#333" stroke-linecap="round" stroke-linejoin="round" stroke-width="0.63" fill-rule="evenodd"/><path d="M26,4a2.349,2.349,0,0,1,2.4,2.294,2.2,2.2,0,0,1-.174.861,2.987,2.987,0,0,1,.975,2.2,2.934,2.934,0,0,1-.267,1.224A3.718,3.718,0,0,1,30,13.177a4,4,0,0,1-8,0,3.72,3.72,0,0,1,1.067-2.6A2.913,2.913,0,0,1,22.8,9.353a2.987,2.987,0,0,1,.975-2.2,2.184,2.184,0,0,1-.175-.86A2.349,2.349,0,0,1,26,4Z" fill="none" stroke="#333" stroke-linecap="round" stroke-linejoin="round" stroke-width="0.63" fill-rule="evenodd"/><path d="M26.179,26.4V15.348L24.7,13.915l1.479,1.432,1.521-2.9-1.521,2.9.021-2.9L24.7,10.99l1.5,1.453V7.4Z" fill="none" stroke="#333" stroke-linecap="round" stroke-linejoin="round" stroke-width="0.63" fill-rule="evenodd"/></g></svg>
