<svg xmlns="http://www.w3.org/2000/svg" width="30" height="29.756" viewBox="0 0 30 29.756"><g transform="translate(-1 -0.594)"><path d="M10.96,20H22.007L30,30H2Z" fill="none" stroke="#333" stroke-linecap="round" stroke-linejoin="round" stroke-width="0.7" fill-rule="evenodd"/><g transform="translate(1 8)"><line x2="26" transform="translate(2 4.5)" fill="none" stroke="#333" stroke-linecap="round" stroke-linejoin="round" stroke-width="0.63"/><line x2="26" transform="translate(2 7.5)" fill="none" stroke="#333" stroke-linecap="round" stroke-linejoin="round" stroke-width="0.63"/><g transform="translate(5 1.6)"><line y2="8.734" transform="translate(0.5)" fill="none" stroke="#333" stroke-linecap="round" stroke-linejoin="round" stroke-width="0.63"/><line y2="8.734" transform="translate(3.7)" fill="none" stroke="#333" stroke-linecap="round" stroke-linejoin="round" stroke-width="0.63"/><line y2="8.734" transform="translate(6.9)" fill="none" stroke="#333" stroke-linecap="round" stroke-linejoin="round" stroke-width="0.63"/><line y2="8.734" transform="translate(10.1)" fill="none" stroke="#333" stroke-linecap="round" stroke-linejoin="round" stroke-width="0.63"/><line y2="8.734" transform="translate(13.3)" fill="none" stroke="#333" stroke-linecap="round" stroke-linejoin="round" stroke-width="0.63"/><line y2="8.734" transform="translate(16.5)" fill="none" stroke="#333" stroke-linecap="round" stroke-linejoin="round" stroke-width="0.63"/><line y2="8.734" transform="translate(19.7)" fill="none" stroke="#333" stroke-linecap="round" stroke-linejoin="round" stroke-width="0.63"/></g><line x2="26" transform="translate(2 1.5)" fill="none" stroke="#333" stroke-linecap="round" stroke-linejoin="round" stroke-width="0.63"/><line x2="26" transform="translate(2 10.5)" fill="none" stroke="#333" stroke-linecap="round" stroke-linejoin="round" stroke-width="0.63"/><rect width="2" height="18" fill="#ffa506"/><rect width="2" height="18" transform="translate(28)" fill="#ffa506"/></g><g transform="translate(13 1)"><path d="M0,0,1.638,4.711H4.224L6,0" fill="none" stroke="#333" stroke-linecap="round" stroke-linejoin="round" stroke-width="0.63" fill-rule="evenodd"/><path d="M1.5,5H4.3v.6a1.4,1.4,0,0,1-2.8,0V5Z" fill="#ffa506"/><line y2="4.512" transform="translate(2.9)" fill="none" stroke="#333" stroke-linecap="round" stroke-linejoin="round" stroke-width="0.63"/><line x2="5.374" transform="translate(0.4 0.7)" fill="none" stroke="#333" stroke-linecap="round" stroke-linejoin="round" stroke-width="0.63"/><line x2="3.874" transform="translate(1 2.5)" fill="none" stroke="#333" stroke-linecap="round" stroke-linejoin="round" stroke-width="0.63"/></g></g></svg>
