<svg xmlns="http://www.w3.org/2000/svg" width="29.63" height="29.665" viewBox="0 0 29.63 29.665"><g transform="translate(-0.685 -1.65)"><path d="M1,31H27.862L30,21H13.231Z" fill="none" stroke="#333" stroke-linecap="round" stroke-linejoin="round" stroke-width="0.63" fill-rule="evenodd"/><path d="M9.289,24h4.677a.8.8,0,0,1,.773,1,1.337,1.337,0,0,1-1.294,1h-6.3" fill="none" stroke="#333" stroke-linecap="round" stroke-linejoin="round" stroke-width="0.63" fill-rule="evenodd"/><path d="M12.035,22h3.7a2.615,2.615,0,0,1,2.554,3.5c-.775,2.569-5.372,3.5-8.24,3.5H3.472" fill="none" stroke="#333" stroke-linecap="round" stroke-linejoin="round" stroke-width="0.63" fill-rule="evenodd"/><path d="M29.3,24c-1.141,0-2.6.314-2.965,1.495S27.582,27,28.59,27" fill="none" stroke="#333" stroke-linecap="round" stroke-linejoin="round" stroke-width="0.63" fill-rule="evenodd"/><path d="M9,23.991V6.343h5.242V8.416h0V5.7l-4.151.647" fill="none" stroke="#333" stroke-linecap="round" stroke-linejoin="round" stroke-width="0.7" fill-rule="evenodd"/><circle cx="2.5" cy="2.5" r="2.5" transform="translate(20 26)" fill="#ffa506"/><path d="M17.948,13.5c.738-2.5,3.154-4.049,3.852-5-.695.946-1.186,1.642-1.118,5q-1.63-3.794-3.882-5C17.351,9.288,17.948,9.79,17.948,13.5Z" fill="none" stroke="#ffa506" stroke-linecap="round" stroke-linejoin="round" stroke-width="0.7" fill-rule="evenodd"/><path d="M25,27.105c-.241.285-.842,1.123-2.264.156s-2.79-.326-2.734,1.1,1.677,1.881,2.9.976,1.713-.028,2.03.171" fill="none" stroke="#fff" stroke-width="0.5" fill-rule="evenodd"/></g></svg>
