<svg xmlns="http://www.w3.org/2000/svg" width="28.891" height="18.069" viewBox="0 0 28.891 18.069"><g transform="translate(-1.645 -5.742)"><path d="M30.091,12.057l-8-6h-12l-8,6" fill="none" stroke="#333" stroke-linecap="round" stroke-linejoin="round" stroke-width="0.63" fill-rule="evenodd"/><path d="M30.091,17.057l-8-8h-12l-8,8" fill="none" stroke="#333" stroke-linecap="round" stroke-linejoin="round" stroke-width="0.63" fill-rule="evenodd"/><path d="M30.091,22.057l-8-10h-12l-8,10" fill="none" stroke="#333" stroke-linecap="round" stroke-linejoin="round" stroke-width="0.63" fill-rule="evenodd"/><line y2="12.997" transform="translate(30.1 10.5)" fill="none" stroke="#333" stroke-linecap="round" stroke-linejoin="round" stroke-width="0.63"/><line y2="8.6" transform="translate(27.5 10.2)" fill="none" stroke="#333" stroke-linecap="round" stroke-linejoin="round" stroke-width="0.63"/><line y2="5.8" transform="translate(10.1 6.2)" fill="none" stroke="#333" stroke-linecap="round" stroke-linejoin="round" stroke-width="0.63"/><line y2="5.8" transform="translate(22.1 6.2)" fill="none" stroke="#333" stroke-linecap="round" stroke-linejoin="round" stroke-width="0.63"/><line y2="5.8" transform="translate(18.1 6.2)" fill="none" stroke="#333" stroke-linecap="round" stroke-linejoin="round" stroke-width="0.63"/><line y2="5.8" transform="translate(14.1 6.2)" fill="none" stroke="#333" stroke-linecap="round" stroke-linejoin="round" stroke-width="0.63"/><line y1="12.997" transform="translate(2.082 23.497) rotate(180)" fill="none" stroke="#333" stroke-linecap="round" stroke-linejoin="round" stroke-width="0.63"/><line y1="8.6" transform="translate(4.681 18.8) rotate(180)" fill="none" stroke="#333" stroke-linecap="round" stroke-linejoin="round" stroke-width="0.63"/><line y1="7" transform="translate(7.681 15) rotate(180)" fill="none" stroke="#333" stroke-linecap="round" stroke-linejoin="round" stroke-width="0.63"/><g transform="translate(14 15)"><line y2="7.876" transform="translate(0.118)" fill="none" stroke="#ffa506" stroke-linecap="round" stroke-linejoin="round" stroke-width="1"/><line y2="7.876" transform="translate(2.118)" fill="none" stroke="#ffa506" stroke-linecap="round" stroke-linejoin="round" stroke-width="1"/><line y2="7.876" transform="translate(4.118)" fill="none" stroke="#ffa506" stroke-linecap="round" stroke-linejoin="round" stroke-width="1"/></g></g></svg>
