<svg xmlns="http://www.w3.org/2000/svg" width="30.7" height="23.436" viewBox="0 0 30.7 23.436"><g transform="translate(-0.65 -5)"><path d="M5,20V19a2,2,0,0,1,4,0v1H9" fill="none" stroke="#333" stroke-linecap="round" stroke-linejoin="round" stroke-width="0.7" fill-rule="evenodd"/><line y1="11.632" transform="translate(7 8.368)" fill="none" stroke="#333" stroke-linecap="round" stroke-linejoin="round" stroke-width="0.7"/><rect width="2" height="4" transform="translate(6 5)" fill="#ffa506"/><path d="M11.167,15l2.746-2.746L16.659,15l-1.022-.976V11.258H17.5V6.93h2.948V11h2.066V9.659h1.622V11h1.811V9.659h1.659V15" fill="none" stroke="#333" stroke-linecap="round" stroke-linejoin="round" stroke-width="0.7" fill-rule="evenodd"/><circle cx="1" cy="1" r="1" transform="translate(13.5 15.5)" fill="#333"/><circle cx="1" cy="1" r="1" transform="translate(22.5 13.5)" fill="#333"/><circle cx="1" cy="1" r="1" transform="translate(21.5 14.5)" fill="#333"/><circle cx="1" cy="1" r="1" transform="translate(13.5 17.5)" fill="#333"/><circle cx="1" cy="1" r="1" transform="translate(19.5 15.5)" fill="#333"/><circle cx="1" cy="1" r="1" transform="translate(20.5 16.5)" fill="#333"/><circle cx="1" cy="1" r="1" transform="translate(15.5 17.5)" fill="#333"/><circle cx="1" cy="1" r="1" transform="translate(23.5 15.5)" fill="#333"/><circle cx="1" cy="1" r="1" transform="translate(22.5 17.5)" fill="#333"/><path d="M29.075,17.391,31,25H1L4.171,14" fill="none" stroke="#333" stroke-linecap="round" stroke-linejoin="round" stroke-width="0.7" fill-rule="evenodd"/><path d="M1,25v3.086H31V25" fill="none" stroke="#333" stroke-linecap="round" stroke-linejoin="round" stroke-width="0.7" fill-rule="evenodd"/></g></svg>
