<svg xmlns="http://www.w3.org/2000/svg" width="30.7" height="27.451" viewBox="0 0 30.7 27.451"><g transform="translate(-0.65 -2.549)"><path d="M22.651,17c2.328,4.233-2.362,6.266-2.651,8.636Q19.711,28.005,22.151,30H12a7.678,7.678,0,0,1,1.846-6.5C16.174,21.023,20,20.677,19.422,17" fill="#ffa506"/><path d="M9.093,16.9H24.436V10.686l1,.81L21.255,8.1l-5.186,4.193,1.49-1.2V6.642l.914.742L12.952,2.9,7.432,7.385,9.093,6.05Z" fill="none" stroke="#333" stroke-linecap="round" stroke-linejoin="round" stroke-width="0.7" fill-rule="evenodd"/><rect width="3" height="2" transform="translate(12 8)" fill="none" stroke="#333" stroke-linecap="round" stroke-linejoin="round" stroke-width="0.7"/><rect width="3" height="2" transform="translate(12 13)" fill="none" stroke="#333" stroke-linecap="round" stroke-linejoin="round" stroke-width="0.7"/><rect width="2" height="5" transform="translate(20 12)" fill="none" stroke="#333" stroke-linecap="round" stroke-linejoin="round" stroke-width="0.7"/><line x2="30" transform="translate(1 17)" fill="none" stroke="#333" stroke-linecap="round" stroke-linejoin="round" stroke-width="0.7"/></g></svg>
