<svg id="investment" xmlns="http://www.w3.org/2000/svg" width="48" height="48" viewBox="0 0 48 48" fill="#9f9f9f">
  <rect id="Rectangle" width="48" height="48" fill="#d8d8d8" opacity="0"/>
  <g id="Group-4" transform="translate(1 6.807)">
    <path id="Shape" d="M7.2,24.983a.659.659,0,0,0-.765-.518l-5.892.994A.64.64,0,0,0,.01,26.2L2.272,38.665a.635.635,0,0,0,.271.412.68.68,0,0,0,.494.106l5.891-.994a.64.64,0,0,0,.537-.738l-.121-.668,1.4-1.1a2.825,2.825,0,0,1,1.971-.608l9.607.677.044,0a10.237,10.237,0,0,0,5.919-1.85.649.649,0,0,0,.071-.059L39.8,23.043a.622.622,0,0,0,.037-.874,3.813,3.813,0,0,0-5.107-.469l-5.3,3.824a4.813,4.813,0,0,0-4.492-1.637l-5.373.906a6.061,6.061,0,0,1-2.6-.131l-.6-.165a9.967,9.967,0,0,0-8.918,1.834ZM3.46,37.816,1.427,26.605l4.589-.774L8.049,37.042ZM16,25.723l.6.165a7.442,7.442,0,0,0,3.187.16l5.373-.906a3.422,3.422,0,0,1,3.75,2.043L20.8,28.554a.656.656,0,0,0-.507.409.62.62,0,0,0,.114.628.675.675,0,0,0,.621.219l8.831-1.49a.664.664,0,0,0,.427-.262.62.62,0,0,0,.11-.476,4.413,4.413,0,0,0-.289-.955l5.423-3.911.014-.011a2.466,2.466,0,0,1,2.83-.1L27.468,32.9a8.844,8.844,0,0,1-5.07,1.577l-9.584-.675a4.17,4.17,0,0,0-2.907.894l-.823.645L7.719,27.823A8.592,8.592,0,0,1,16,25.723Z" stroke="#303030" stroke-width="0.5"/>
    <circle id="Oval" cx="10.497" cy="10.497" r="10.497" transform="translate(8.634 0)" fill="#fff" stroke="#9f9f9f" stroke-width="1.615"/>
  </g>
  <path id="Path" d="M23.506,13.7a.931.931,0,1,0,0-1.863H16.734a.931.931,0,1,0,0,1.863h1.938a2.014,2.014,0,0,1,1.74,1.087H16.734a.931.931,0,1,0,0,1.863h3.677a1.881,1.881,0,0,1-1.74.931H16.734a.956.956,0,0,0-.64,1.642l4.844,4.583a.93.93,0,1,0,1.278-1.349L19.055,19.5a3.8,3.8,0,0,0,3.339-2.853h1.112a.931.931,0,1,0,0-1.863H22.394a3.05,3.05,0,0,0-.433-1.087Z" fill="#ffa506"/>
</svg>
