<svg xmlns="http://www.w3.org/2000/svg" width="452.6" height="113.1" viewBox="0 0 452.6 113.1"><g transform="translate(920.6 387.781)"><path d="M4.891,0V-26.426q0-2.555-.109-5.22a51.981,51.981,0,0,0-.475-5.219h8.614l1.022,9.49-1.022-.511a11.449,11.449,0,0,1,4.307-7.373,12.452,12.452,0,0,1,7.592-2.482,13.462,13.462,0,0,1,2.044.146,7.665,7.665,0,0,1,1.679.438L28.4-28.835a12.331,12.331,0,0,0-4.818-.949,9.9,9.9,0,0,0-5.365,1.314,8.342,8.342,0,0,0-3.139,3.541,11.5,11.5,0,0,0-1.059,5V0ZM49.567.511A20.178,20.178,0,0,1,39.6-1.825a15.948,15.948,0,0,1-6.461-6.607,21.472,21.472,0,0,1-2.263-10.184A21.747,21.747,0,0,1,33.142-28.8,15.845,15.845,0,0,1,39.6-35.478a20.178,20.178,0,0,1,9.965-2.336,19.865,19.865,0,0,1,9.819,2.336,16.072,16.072,0,0,1,6.5,6.679,21.462,21.462,0,0,1,2.3,10.184,21.191,21.191,0,0,1-2.3,10.184,16.181,16.181,0,0,1-6.5,6.607A19.865,19.865,0,0,1,49.567.511Zm0-7.008a8.444,8.444,0,0,0,6.971-3.03q2.446-3.03,2.446-9.089,0-5.986-2.446-9.015a8.444,8.444,0,0,0-6.971-3.03,8.739,8.739,0,0,0-7.118,3.03q-2.519,3.03-2.519,9.015,0,6.059,2.482,9.089A8.717,8.717,0,0,0,49.567-6.5ZM75.993,15.768V-26.426q0-2.555-.109-5.22a51.983,51.983,0,0,0-.475-5.219h8.614l.8,7.3-.511.438a11.109,11.109,0,0,1,4.6-6.388,14.21,14.21,0,0,1,8.1-2.3,15.028,15.028,0,0,1,8.5,2.445,16.733,16.733,0,0,1,5.8,6.789A23,23,0,0,1,113.442-18.4a22.349,22.349,0,0,1-2.117,10.037,15.877,15.877,0,0,1-5.767,6.57,15.683,15.683,0,0,1-8.541,2.3,14.553,14.553,0,0,1-8.1-2.227,10.8,10.8,0,0,1-4.6-6.315l.8-1.168V15.768ZM94.681-6.5a8.461,8.461,0,0,0,7.008-3.1q2.482-3.1,2.482-8.8,0-5.84-2.482-9.052a8.342,8.342,0,0,0-7.008-3.212,8.521,8.521,0,0,0-7.118,3.1q-2.445,3.1-2.446,9.016,0,5.767,2.446,8.906A8.478,8.478,0,0,0,94.681-6.5ZM131.546,0,115.632-36.792h9.563L136.8-7.957h-2.044l11.826-28.835h9.052L139.5,0Zm59.86-4.088a18.735,18.735,0,0,1-6.46,3.395,25.788,25.788,0,0,1-7.775,1.2,22.083,22.083,0,0,1-10.329-2.263,15.678,15.678,0,0,1-6.68-6.57,21.133,21.133,0,0,1-2.336-10.22,21.416,21.416,0,0,1,2.263-10.038,16.923,16.923,0,0,1,6.278-6.789,17.465,17.465,0,0,1,9.271-2.445,16.5,16.5,0,0,1,8.76,2.226,14.8,14.8,0,0,1,5.658,6.388,22.469,22.469,0,0,1,2.008,9.855v1.387H165.856l.073-4.891h20.732l-2.482,2.482q.073-5.329-2.081-8.1a7.426,7.426,0,0,0-6.242-2.774,8.1,8.1,0,0,0-6.789,3.1q-2.409,3.1-2.409,8.87,0,6.57,2.7,9.672t8.176,3.1a18.054,18.054,0,0,0,5.876-.986,18.79,18.79,0,0,0,5.366-2.883ZM199.728,0V-26.426q0-2.628-.11-5.256a51.907,51.907,0,0,0-.474-5.183h8.614l.8,7.3-.8.219a13.216,13.216,0,0,1,5.219-6.315,14.836,14.836,0,0,1,7.993-2.153q13.14,0,13.14,15.184V0h-9.125V-22.265q0-4.307-1.679-6.315a6.377,6.377,0,0,0-5.183-2.007,8.851,8.851,0,0,0-6.753,2.664,9.835,9.835,0,0,0-2.518,7.045V0Zm57.305.511q-6.789,0-10.184-3.76T243.455-14.6V-36.865h9.125v22.338q0,4.015,1.679,5.913a6.375,6.375,0,0,0,5.037,1.9,8.293,8.293,0,0,0,6.424-2.628,9.967,9.967,0,0,0,2.409-7.008V-36.865h9.2V0h-8.906V-7.592l.949-.073a12.567,12.567,0,0,1-4.818,6.1A13.522,13.522,0,0,1,257.033.511Zm61.758-4.6a18.735,18.735,0,0,1-6.461,3.395,25.788,25.788,0,0,1-7.774,1.2,22.083,22.083,0,0,1-10.329-2.263,15.678,15.678,0,0,1-6.68-6.57,21.133,21.133,0,0,1-2.336-10.22,21.416,21.416,0,0,1,2.263-10.038,16.923,16.923,0,0,1,6.278-6.789,17.464,17.464,0,0,1,9.271-2.445,16.5,16.5,0,0,1,8.76,2.226,14.8,14.8,0,0,1,5.658,6.388,22.469,22.469,0,0,1,2.008,9.855v1.387H293.241l.073-4.891h20.732l-2.482,2.482q.073-5.329-2.081-8.1a7.426,7.426,0,0,0-6.242-2.774,8.1,8.1,0,0,0-6.789,3.1q-2.409,3.1-2.409,8.87,0,6.57,2.7,9.672t8.176,3.1a18.054,18.054,0,0,0,5.876-.986,18.79,18.79,0,0,0,5.366-2.883Zm21.9,4.6q-10.074,0-15.914-4.6l2.555-6.424a21.324,21.324,0,0,0,6.351,3.285,23.386,23.386,0,0,0,7.154,1.1,9.726,9.726,0,0,0,5.11-1.1,3.432,3.432,0,0,0,1.752-3.066,3.223,3.223,0,0,0-1.241-2.665,11.455,11.455,0,0,0-4.234-1.715l-6.132-1.387a14.607,14.607,0,0,1-7.555-3.686,9.088,9.088,0,0,1-2.519-6.607,9.807,9.807,0,0,1,1.9-5.949,12.464,12.464,0,0,1,5.329-4.051,20.185,20.185,0,0,1,7.957-1.46,24.069,24.069,0,0,1,7.592,1.2,19.082,19.082,0,0,1,6.351,3.467l-2.628,6.278A20.814,20.814,0,0,0,346.86-30a17.066,17.066,0,0,0-5.73-1.022,8.757,8.757,0,0,0-4.891,1.168,3.664,3.664,0,0,0-1.752,3.212,3.261,3.261,0,0,0,1.059,2.555,8.378,8.378,0,0,0,3.686,1.533l6.2,1.533q5.475,1.168,7.993,3.76a9.377,9.377,0,0,1,2.519,6.826,9.36,9.36,0,0,1-4.088,7.993Q347.772.511,340.691.511Z" transform="translate(-823.948 -332)"/><g transform="translate(-944.3 -406.281)"><path d="M476.3,116.7,119.1,103.6,476.3,90.4Z" fill="#ffa506"/><path d="M41.3,18.5H31.7a8.024,8.024,0,0,0-8,8V126.6a4.951,4.951,0,0,0,5,5H44.3a4.951,4.951,0,0,0,5-5V26.5A8.024,8.024,0,0,0,41.3,18.5Z" fill="#ef9300"/><path d="M86.9,94.9H48.7a25.009,25.009,0,0,1-25-25V26.5a8.024,8.024,0,0,1,8-8H86.9a25.009,25.009,0,0,1,25,25V69.9A25.009,25.009,0,0,1,86.9,94.9Z" fill="#ffa506"/><path d="M99.9,65.1,67.9,33l-.1.1V33L35.7,65.1l6.8,6.7L67.8,46.5,93.2,71.8Z" fill="#fff"/><rect width="9.6" height="16.1" transform="translate(72.313 80.262) rotate(180)" fill="#fff"/></g></g></svg>
