<svg id="research" xmlns="http://www.w3.org/2000/svg" width="48" height="48" viewBox="0 0 48 48" fill="#9f9f9f">
  <rect id="Rectangle" width="48" height="48" transform="translate(0)" fill="#d8d8d8" opacity="0"/>
  <path id="Shape" d="M4.944,8.163A5.034,5.034,0,0,0,0,13.107V43.668a4.056,4.056,0,0,0,4.045,4.045H30.562a.934.934,0,0,0,.9-.9V17.152a.861.861,0,0,0-.9-.9,3.388,3.388,0,0,1-3.146-3.146,3.388,3.388,0,0,1,3.146-3.146.9.9,0,1,0,0-1.8Zm0,1.8H26.8a4.785,4.785,0,0,0,0,6.292H4.944A3.388,3.388,0,0,1,1.8,13.107,3.388,3.388,0,0,1,4.944,9.961ZM1.8,16.871a4.893,4.893,0,0,0,3.146,1.18H29.663V45.916H4.045A2.223,2.223,0,0,1,1.8,43.668Z"/>
  <path id="Path" d="M7.191,23.893a.9.9,0,1,0,0,1.8H24.27a.9.9,0,0,0,0-1.8Z" fill="#ffa506"/>
  <path id="Path-2" data-name="Path" d="M7.191,31.084a.9.9,0,1,0,0,1.8H24.27a.9.9,0,0,0,0-1.8Z" fill="#ffa506"/>
  <path id="Path-3" data-name="Path" d="M7.191,38.275a.9.9,0,1,0,0,1.8H24.27a.9.9,0,0,0,0-1.8Z" fill="#ffa506"/>
</svg>
