<svg id="trend" xmlns="http://www.w3.org/2000/svg" width="48" height="48.001" viewBox="0 0 48 48.001" fill="#9f9f9f">
  <rect id="Rectangle" width="48" height="48" fill="#d8d8d8" opacity="0"/>
  <g id="Group-5" transform="translate(1.209 8.293)">
    <path id="Shape" d="M39.3,20.568l-7.526-6.313a1.1,1.1,0,0,0-1.505.084l-6.983,6.983-6.815-3.3a1.145,1.145,0,0,0-1.254.167L8.153,24.666.92,26.087A1.15,1.15,0,0,0,0,27.174V38.53a1.124,1.124,0,0,0,1.129,1.129H38.592a1.124,1.124,0,0,0,1.129-1.129V21.446A1.25,1.25,0,0,0,39.3,20.568ZM9.784,26.212l5.059-4.6V37.443H9.784Zm7.359-5.352,5.268,2.551V37.443H17.143Zm7.526,2.3,5.268-5.268V37.443H24.669ZM2.258,28.136l5.268-1.045V37.443H2.258Zm35.206,9.307H32.2V17.558l5.268,4.432Z" stroke="#fff" stroke-width="0.1"/>
    <path id="Path" d="M5.226,19.9a1.136,1.136,0,0,0,.711-.251l9.533-8.07,6.063,3.01a1.148,1.148,0,0,0,1.3-.209L33.115,3.972V7.819a1.129,1.129,0,1,0,2.258,0V1.129A1.124,1.124,0,0,0,34.244,0H27.638a1.129,1.129,0,0,0,0,2.258h4.014l-9.784,9.951L15.847,9.2a1.156,1.156,0,0,0-1.254.167L4.516,17.937a1.128,1.128,0,0,0-.125,1.589A1.114,1.114,0,0,0,5.226,19.9Z" fill="#ffa506"/>
  </g>
</svg>
