<svg xmlns="http://www.w3.org/2000/svg" width="32" height="32" viewBox="0 0 32 32"><rect width="32" height="32" fill="#fff" opacity="0"/><g transform="translate(1 5)"><path d="M1.5,22v-.75h27V22Z" fill="#333"/><path d="M0,23.5v-.75H30v.75Z" fill="#333"/><path d="M14.221,1.234A1.693,1.693,0,0,0,15,1.782a4.128,4.128,0,0,1,.866.1V1.528L16,1.6a5.074,5.074,0,0,1,1.9,1.637,3.755,3.755,0,0,1,.67,2.12A20.412,20.412,0,0,0,15,4.937a8.661,8.661,0,0,0-3.57.667V5.352a3.572,3.572,0,0,1,2.507-3.409q.137-.043.276-.074-.013-.134-.013-.284A2.88,2.88,0,0,1,14.221,1.234Zm.225-.671a.642.642,0,0,1,.869-.229A1.819,1.819,0,0,0,14.446.564Z" fill="none" stroke="#333" stroke-width="0.75" fill-rule="evenodd"/><path d="M20.427,8.473H28.5V10.88l-.7.3v9.245H2.323V11.007H1.53V8.472H9.573V9.629l.555-.255V7.717l.068-.1c.682-.972,2.194-1.745,4.8-1.745s4.124.772,4.8,1.745l.068.1v1.6l.555.274Zm.75,2.33-.541-.267-.508-.251-1.006-.5V7.961a2.879,2.879,0,0,0-.932-.7A7.005,7.005,0,0,0,15,6.625a7,7,0,0,0-3.19.633,2.9,2.9,0,0,0-.932.7V9.855l-.219.1-.8.366-1.04.477V9.223H2.28v1.035h.793v9.414H27.05V10.68l.7-.3V9.223H21.177Z" fill="#333"/><path d="M5.25,20.2H4.5V8.723h.75Z" fill="#333"/><path d="M7.5,20.2H6.75V8.723H7.5Z" fill="#333"/><path d="M18.75,11.8h-7.2l3.658-3.67Z" fill="none" stroke="#333" stroke-width="0.75" fill-rule="evenodd"/><path d="M12,18.25H10.5v-4.5H12Z" fill="#ffa506"/><path d="M15.75,18.25h-1.5v-4.5h1.5Z" fill="#ffa506"/><path d="M19.5,18.25H18v-4.5h1.5Z" fill="#ffa506"/><path d="M25.5,20.2h-.75V8.723h.75Z" fill="#333"/><path d="M23.25,20.2H22.5V8.723h.75Z" fill="#333"/></g></svg>