<svg xmlns="http://www.w3.org/2000/svg" width="32" height="32" viewBox="0 0 32 32"><rect width="32" height="32" fill="#fff" opacity="0"/><g transform="translate(1 1)"><path d="M8.567,9.774,9.786,8.567,4.825,3.62l-1.193,1.2Z" fill="#ffa506"/><path d="M22.588,3.349a13.8,13.8,0,0,0-15.612,0L10.707,7.08a8.751,8.751,0,0,1,8.13.02Zm-3.6,4.688.026.052a7.981,7.981,0,0,0-8.436-.052L5.8,3.26a14.568,14.568,0,0,1,17.966,0Z" fill="#333"/><path d="M24.935,26.154l1.219-1.207L21.193,20,20,21.2Z" fill="#ffa506"/><g transform="translate(3.287 26.36) rotate(-91)"><path d="M5.49,6.7,6.709,5.49,1.748.543.555,1.742Z" transform="translate(0.064 -0.063) rotate(1)" fill="#ffa506"/><path d="M21.406,23.015l1.219-1.207-4.961-4.947-1.193,1.2Z" transform="translate(0.351 -0.338) rotate(1)" fill="#ffa506"/></g><path d="M7.092,18.846a8.751,8.751,0,0,1,0-8.154L3.363,6.963a13.814,13.814,0,0,0,0,15.611Zm.959.128L3.273,23.752a14.582,14.582,0,0,1,0-17.967l4.778,4.778A7.981,7.981,0,0,0,8.051,18.974Z" fill="#333"/><path d="M6.948,26.178a13.787,13.787,0,0,0,15.681,0L18.9,22.451a8.738,8.738,0,0,1-8.255.027Zm3.6-4.691.026.065a7.968,7.968,0,0,0,8.449-.065L23.8,26.265a14.556,14.556,0,0,1-18.032,0Z" fill="#333"/><path d="M26.23,6.883,22.5,10.612a8.738,8.738,0,0,1,0,8.223l3.729,3.729A13.788,13.788,0,0,0,26.23,6.883Zm.087,16.856-4.778-4.778a7.968,7.968,0,0,0,0-8.475l4.778-4.778A14.555,14.555,0,0,1,26.317,23.739Z" fill="#333"/></g></svg>