<svg xmlns="http://www.w3.org/2000/svg" width="32" height="32" viewBox="0 0 32 32"><rect width="32" height="32" fill="#fff" opacity="0"/><g transform="translate(1 1)"><path d="M19.286,15.357A2.143,2.143,0,0,0,17.143,17.5v7.857A2.143,2.143,0,0,0,19.286,27.5h7.857a2.143,2.143,0,0,0,2.143-2.143V17.5a2.143,2.143,0,0,0-2.143-2.143Zm0-.714h7.857A2.857,2.857,0,0,1,30,17.5v7.857a2.857,2.857,0,0,1-2.857,2.857H19.286a2.857,2.857,0,0,1-2.857-2.857V17.5A2.857,2.857,0,0,1,19.286,14.643Z" fill="#333"/><path d="M12.857.714a2.143,2.143,0,0,0-2.143,2.143v9.286a2.143,2.143,0,0,0,2.143,2.143h9.286a2.143,2.143,0,0,0,2.143-2.143V2.857A2.143,2.143,0,0,0,22.143.714Zm0-.714h9.286A2.857,2.857,0,0,1,25,2.857v9.286A2.857,2.857,0,0,1,22.143,15H12.857A2.857,2.857,0,0,1,10,12.143V2.857A2.857,2.857,0,0,1,12.857,0Z" fill="#333"/><rect width="13.571" height="13.571" rx="2.857" transform="matrix(0.719, -0.695, 0.695, 0.719, 0.048, 19.475)" fill="#fff"/><path d="M20.165,8.447l.947.239a3.189,3.189,0,0,1-1.072,1.78,2.953,2.953,0,0,1-1.892.613,3.4,3.4,0,0,1-1.882-.471,2.943,2.943,0,0,1-1.1-1.365,4.869,4.869,0,0,1-.378-1.919,4.218,4.218,0,0,1,.427-1.951,2.927,2.927,0,0,1,1.216-1.265,3.553,3.553,0,0,1,1.736-.432,2.934,2.934,0,0,1,1.807.547A2.839,2.839,0,0,1,20.99,5.761l-.933.22a2.212,2.212,0,0,0-.723-1.138,1.925,1.925,0,0,0-1.191-.356,2.314,2.314,0,0,0-1.379.4,2.089,2.089,0,0,0-.779,1.062,4.277,4.277,0,0,0-.225,1.375,4.368,4.368,0,0,0,.266,1.594,1.982,1.982,0,0,0,.828,1.018,2.321,2.321,0,0,0,1.216.337,2.038,2.038,0,0,0,1.348-.459A2.349,2.349,0,0,0,20.165,8.447Z" fill="#333"/><path d="M20.732,24.528V17.37h2.686a3.325,3.325,0,0,1,1.316.217,1.692,1.692,0,0,1,.776.669,1.764,1.764,0,0,1,.281.945,1.623,1.623,0,0,1-.249.864,1.778,1.778,0,0,1-.752.654,1.871,1.871,0,0,1,1,.649,1.74,1.74,0,0,1,.349,1.084,2.091,2.091,0,0,1-.212.935,1.811,1.811,0,0,1-.525.667,2.192,2.192,0,0,1-.784.354,4.769,4.769,0,0,1-1.155.12Zm.947-4.15h1.548a3.451,3.451,0,0,0,.9-.083,1,1,0,0,0,.544-.356,1.027,1.027,0,0,0,.183-.625,1.152,1.152,0,0,0-.171-.628.865.865,0,0,0-.488-.371,4.08,4.08,0,0,0-1.089-.1H21.68Zm0,3.306h1.782a4.1,4.1,0,0,0,.644-.034,1.542,1.542,0,0,0,.547-.2,1.037,1.037,0,0,0,.361-.4,1.245,1.245,0,0,0,.142-.6,1.19,1.19,0,0,0-.205-.7,1.082,1.082,0,0,0-.569-.415,3.525,3.525,0,0,0-1.047-.12H21.68Z" fill="#333"/><path d="M5.714,13.571a2.143,2.143,0,0,0-2.143,2.143v7.857a2.143,2.143,0,0,0,2.143,2.143h7.857a2.143,2.143,0,0,0,2.143-2.143V15.714a2.143,2.143,0,0,0-2.143-2.143Zm0-.714h7.857a2.857,2.857,0,0,1,2.857,2.857v7.857a2.857,2.857,0,0,1-2.857,2.857H5.714a2.857,2.857,0,0,1-2.857-2.857V15.714A2.857,2.857,0,0,1,5.714,12.857Z" transform="matrix(0.719, -0.695, 0.695, 0.719, -10.939, 12.211)" fill="#333"/><path d="M14.783,19.707a.8.8,0,0,1-1.023.5L12.573,19.8l-2.548,2.548.4,1.211a.8.8,0,1,1-1.529.5L6.719,17.444a.8.8,0,0,1,1.026-1.012l6.539,2.252A.8.8,0,0,1,14.783,19.707Z" fill="#ffa506"/><path d="M9.462,20.632l1.418-1.418-2.126-.732Z" fill="#fff"/></g></svg>