<svg xmlns="http://www.w3.org/2000/svg" width="32" height="32" viewBox="0 0 32 32"><rect width="32" height="32" fill="#fff" opacity="0"/><g transform="translate(1 2)"><path d="M17.892,13.96a3.321,3.321,0,0,1-2.958,2.366,2.976,2.976,0,0,1-3.12-2.808,2.479,2.479,0,0,1,0-.528,6.14,6.14,0,0,1,1.2-.2h0l1.416-5.1a1.044,1.044,0,0,1,1.2-.96h1.6c.54,0,.7.612.7.612a.444.444,0,0,0,.312.168H20.5a10.678,10.678,0,0,1-.912,2.028h-1.4a.276.276,0,0,0-.252.2h0L17.5,12.114a2.592,2.592,0,0,1,.444,1.44,2.234,2.234,0,0,1,0,.24h0Z" fill="#ffa506"/><path d="M16.59,6.078a2.844,2.844,0,1,0-2.676-2.844A2.772,2.772,0,0,0,16.6,6.09Z" fill="#ffa506"/><path d="M27.693,22.842l.283-.213,1.945,2.3-.308.24a9.669,9.669,0,0,1-1.753,1.089A21.96,21.96,0,0,1,21.58,28.1a40.8,40.8,0,0,1-8.073.461A34.577,34.577,0,0,1,6,27.516a14.068,14.068,0,0,1-5.24-2.342l-.32-.231,1.9-2.369.291.222a7.039,7.039,0,0,0,1.068.674,24.374,24.374,0,0,1,4.085-8,5.326,5.326,0,0,0-1.5,1.176l-.27.3L3.633,14.459l.286-.259a7.8,7.8,0,0,1,1.34-.991,5.972,5.972,0,0,1,5.75-.5l.236.107-.017.259a3.091,3.091,0,0,0,0,.4,3.706,3.706,0,0,0,7.387.029c0-.11.376-1.6,1.524-6.093l.033-.085a4.181,4.181,0,0,1,.8-1.043,6.171,6.171,0,0,1,4.178-1.278l.283.018.468,2.2a7.239,7.239,0,0,1,1.6,7.766l-.078.2-.21.034a2.787,2.787,0,0,1-1.956-.416,2.84,2.84,0,0,0-.83-.523c-.558-.112-1.051.521-1.124,1.287a8.636,8.636,0,0,0,.767,3.8,23.433,23.433,0,0,0,2.191,4.321A7.65,7.65,0,0,0,27.693,22.842Zm-1.433,1.667-.284.116-.17-.256a24.093,24.093,0,0,1-2.429-4.709,9.366,9.366,0,0,1-.824-4.137c.11-1.172.909-2.2,2.077-1.96a3.313,3.313,0,0,1,1.073.644,2.025,2.025,0,0,0,1.177.3,6.489,6.489,0,0,0-1.587-6.824L25.211,7.6l-.395-1.854A5.4,5.4,0,0,0,21.46,6.851a3.431,3.431,0,0,0-.606.794c-.862,3.374-1.489,5.86-1.49,5.89a4.455,4.455,0,0,1-8.884,0q-.008-.118-.008-.236a5.279,5.279,0,0,0-4.829.559,7.109,7.109,0,0,0-.93.65l1.292,1.351a6.075,6.075,0,0,1,3.046-1.624l1.316-.269-.986.912C7.124,16.96,5.4,20.492,4.288,24.1l-.124.4-.385-.169a7.783,7.783,0,0,1-1.3-.73l-.953,1.185A13.341,13.341,0,0,0,6.17,26.786a33.874,33.874,0,0,0,7.364,1.021,40.085,40.085,0,0,0,7.937-.453,21.217,21.217,0,0,0,6.068-1.778,8.915,8.915,0,0,0,1.3-.768l-.982-1.159A8.408,8.408,0,0,1,26.259,24.509Zm-11.616,1.1a33.943,33.943,0,0,0,8.024-.769,10.927,10.927,0,0,0-7.678-4.529A9.645,9.645,0,0,0,6.81,24.648,31.793,31.793,0,0,0,14.643,25.611ZM5.9,24.692a10.4,10.4,0,0,1,9.136-5.127,11.689,11.689,0,0,1,8.491,5.2l.372.557-.526.124a34.674,34.674,0,0,1-8.737.91,32.507,32.507,0,0,1-8.51-1.117l-.475-.128Z" fill="#333"/></g></svg>
