<svg xmlns="http://www.w3.org/2000/svg" width="32" height="32" viewBox="0 0 32 32"><rect width="32" height="32" fill="#fff" opacity="0"/><g transform="translate(1 3)"><path d="M28.912,24.719H25.987V20.55c.469-.346-1.206-.4-.742,0v4.169H21.771V9.96c.59-.2-1.542-.2-.952,0v14.76H19.155l-.323-1.587h.433a.476.476,0,1,0,0-.952H18.252s-.013-.36-.036-1.079h.539a.476.476,0,1,0,0-.952h-.539v-.571h.539a.476.476,0,1,0,0-.952H9.616a.476.476,0,0,0,0,.952h.54v.571h-.54a.476.476,0,0,0,0,.952h.54v1.079H9.108a.476.476,0,1,0,0,.952h.433l-.323,1.587h-3.7v-4.9c-.006.006-.695-.01-.687,0v4.9H.476a.476.476,0,1,0,0,.952H28.912a.476.476,0,1,0,0-.952Z" fill="#333"/><path d="M21.771,9.668a1.494,1.494,0,0,0,1.016-1.413V6.224a.476.476,0,0,0-.476-.476h-.54V5.177h1.047a.476.476,0,0,0,0-.952H19.772a.476.476,0,1,0,0,.952h1.047v.571h-.54a.476.476,0,0,0-.476.476V8.255a1.494,1.494,0,0,0,1.016,1.413Z" fill="#ffa506"/><path d="M23.739,12.707a32.266,32.266,0,0,0-1.131,6.254,2.761,2.761,0,0,0,1.743,2.5V19.77a1.288,1.288,0,0,1,2.575,0v1.689a2.761,2.761,0,0,0,1.743-2.5,32.255,32.255,0,0,0-1.131-6.254c-.745-2.725-1.421-4.07-1.9-4.519C25.16,8.636,24.484,9.982,23.739,12.707ZM22.057,18.96a32.589,32.589,0,0,1,1.15-6.4C24.064,9.428,24.865,7.991,25.5,7.6l.144-.088.144.088c.631.386,1.431,1.823,2.288,4.956a32.582,32.582,0,0,1,1.15,6.4,3.354,3.354,0,0,1-2.491,3.154l-.354.1V19.77a.737.737,0,1,0-1.473,0v2.449l-.354-.1A3.354,3.354,0,0,1,22.057,18.96Z" fill="#333"/><path d="M20.756,1.849h1.079V3.4a.539.539,0,1,1-1.079,0Z" fill="#ffa506"/><path d="M4.906,1.6C2.513,7.176.774,12.343.774,15.233a4.135,4.135,0,0,0,3.451,4.08l1.321,0a4.139,4.139,0,0,0,3.493-4.083C9.039,12.343,7.3,7.176,4.906,1.6ZM.223,15.233C.223,12.134,2.1,6.674,4.654.8L4.906.22,5.159.8C7.716,6.674,9.59,12.134,9.59,15.233a4.7,4.7,0,0,1-4,4.631l-1.406,0A4.69,4.69,0,0,1,.223,15.233Z" fill="#333"/><path d="M5.413,19.809v-4l.947-.947A.326.326,0,1,0,5.9,14.4l-.486.486v-.6a.326.326,0,1,0-.652,0v1.646l-.486-.486a.326.326,0,1,0-.461.461l.947.947v2.956a1.207,1.207,0,0,0,.326.052A1.278,1.278,0,0,0,5.413,19.809Z" fill="#333"/><path d="M11.108,19.578h6.157v.571H11.108Z" fill="#fff"/><path d="M11.108,21.1h6.157v1.079H11.108Z" fill="#fff"/><path d="M10.513,23.132H17.86l.323,1.587H10.189Z" fill="#fff"/></g></svg>
