<svg xmlns="http://www.w3.org/2000/svg" width="32" height="32" viewBox="0 0 32 32"><rect width="32" height="32" fill="#fff" opacity="0"/><g transform="translate(2 1)"><path d="M18.234,28.645h-6v-1.2h.42a2.176,2.176,0,0,0,1.411-.568,2.176,2.176,0,0,0,.568-1.412v-.72a.3.3,0,0,0-.3-.3h-.72a2.176,2.176,0,0,0-1.411.568,1.959,1.959,0,0,0-.491.89c-.056-.059-.111-.117-.165-.17a1.36,1.36,0,0,1-.5-.825,2.74,2.74,0,0,0-.176-4.629.3.3,0,0,0-.268,0,2.74,2.74,0,0,0-.154,4.644,1.918,1.918,0,0,0,.676,1.234,1.272,1.272,0,0,1,.512.988v1.5H9.979a.3.3,0,1,0,0,.6h8.255a.3.3,0,1,0,0-.6Zm-6-2.218a1.581,1.581,0,0,1,.392-.989,1.581,1.581,0,0,1,.988-.392h.42v.419a1.581,1.581,0,0,1-.392.989,1.581,1.581,0,0,1-.988.392h-.419Zm-1.5-2.031a2.149,2.149,0,0,1,0-3.5,2.148,2.148,0,0,1,0,3.5Z" fill="#333"/><path d="M27.339,28.781H21.315V22.757h.927a4.075,4.075,0,0,0,2.644-1.062,4.075,4.075,0,0,0,1.063-2.644V17.66a.463.463,0,0,0-.463-.463H24.1a4.075,4.075,0,0,0-2.644,1.063c-.048.048-.092.1-.136.148V14.417a.463.463,0,1,0-.927,0v6.771c-.044-.05-.088-.1-.136-.148a4.075,4.075,0,0,0-2.644-1.063h-1.39a.463.463,0,0,0-.463.463v1.39a4.075,4.075,0,0,0,1.063,2.645,4.075,4.075,0,0,0,2.645,1.063h.927v3.244h-.463c-.256,0-.463-.256-.463,0a.463.463,0,0,0,.463.463h7.414a.463.463,0,0,0,.463-.463C27.8,28.525,27.6,28.781,27.339,28.781ZM21.315,20.9a3.134,3.134,0,0,1,.791-1.989,3.172,3.172,0,0,1,1.989-.791h.927v.927a3.135,3.135,0,0,1-.791,1.989,3.171,3.171,0,0,1-1.99.791h-.926Zm-.927,3.707h-.927a3.135,3.135,0,0,1-1.989-.791,3.172,3.172,0,0,1-.791-1.989V20.9h.927a3.133,3.133,0,0,1,1.989.791,3.172,3.172,0,0,1,.791,1.989Z" fill="#333"/><rect width="24.985" height="1" transform="translate(2.855 28.572)" fill="#333"/><path d="M19.966,13.664c-1.707,1.707-3.637,1.767-5.253.151a3.479,3.479,0,0,1-1.171-2.672,4.021,4.021,0,0,1,1.325-2.579,6.125,6.125,0,0,1,1.205-.887,6.065,6.065,0,0,1-1.205-.885,4.022,4.022,0,0,1-1.325-2.581,3.482,3.482,0,0,1,1.171-2.674c1.614-1.614,3.545-1.551,5.253.156A6.078,6.078,0,0,1,20.852,2.9a6.075,6.075,0,0,1,.886-1.205c1.709-1.708,3.639-1.771,5.253-.157a3.482,3.482,0,0,1,1.171,2.674,4.022,4.022,0,0,1-1.325,2.581,6.193,6.193,0,0,1-1.2.889,5.934,5.934,0,0,1,1.2.88,4.021,4.021,0,0,1,1.325,2.58,3.48,3.48,0,0,1-1.171,2.673,3.547,3.547,0,0,1-2.511,1.177,3.92,3.92,0,0,1-2.742-1.328,6.073,6.073,0,0,1-.886-1.205A6.083,6.083,0,0,1,19.966,13.664Zm-5.694-2.479A2.765,2.765,0,0,0,15.23,13.3c1.323,1.323,2.79,1.277,4.218-.152a6.863,6.863,0,0,0,1.078-1.614l.325-.624.325.624a6.871,6.871,0,0,0,1.079,1.614,3.217,3.217,0,0,0,2.225,1.114,2.833,2.833,0,0,0,1.994-.962,2.766,2.766,0,0,0,.958-2.115,3.319,3.319,0,0,0-1.112-2.1,6.681,6.681,0,0,0-1.61-1.068l-.627-.321.623-.328a7.019,7.019,0,0,0,1.614-1.087,3.32,3.32,0,0,0,1.112-2.1,2.767,2.767,0,0,0-.958-2.116c-1.32-1.321-2.788-1.273-4.218.157a6.866,6.866,0,0,0-1.079,1.614l-.325.624-.325-.624a6.868,6.868,0,0,0-1.079-1.614c-1.43-1.43-2.9-1.477-4.218-.157a2.767,2.767,0,0,0-.958,2.116,3.319,3.319,0,0,0,1.112,2.1A6.839,6.839,0,0,0,17,7.353l.625.324L17,8a6.91,6.91,0,0,0-1.614,1.08A3.318,3.318,0,0,0,14.272,11.185Z" fill="#333"/><path d="M18.072,10.923a.462.462,0,0,0,.328-.136l1.519-1.519a1.8,1.8,0,0,0,1.868,0L23.3,10.787a.463.463,0,0,0,.655-.655L22.442,8.614a1.8,1.8,0,0,0,0-1.871l1.516-1.516a.463.463,0,0,0-.655-.655L21.789,6.087a1.8,1.8,0,0,0-1.874,0L18.4,4.571a.463.463,0,0,0-.655.655L19.26,6.743a1.8,1.8,0,0,0,0,1.871l-1.517,1.518a.463.463,0,0,0,.328.791Zm2.117-3.891.009-.006s0-.007.006-.01a.922.922,0,0,1,1.294,0s0,.007.007.01l.009.006a.927.927,0,1,1-1.326,0Z" fill="#ffa506"/><g transform="translate(0 11.161)"><path d="M8.733,17.654H5V13.925h.574a2.523,2.523,0,0,0,1.637-.658,2.522,2.522,0,0,0,.658-1.637v-.861a.287.287,0,0,0-.287-.287H6.725a2.523,2.523,0,0,0-1.637.658c-.03.03-.057.061-.084.092V8.762a.287.287,0,1,0-.574,0v4.192c-.027-.031-.054-.062-.084-.092A2.523,2.523,0,0,0,2.709,12.2H1.848a.287.287,0,0,0-.287.287v.861a2.522,2.522,0,0,0,.658,1.637,2.523,2.523,0,0,0,1.637.658H4.43v2.008H4.143c-.159,0-.287-.158-.287,0a.287.287,0,0,0,.287.287h4.59a.287.287,0,0,0,.287-.287C9.019,17.5,8.891,17.654,8.733,17.654ZM5,12.777a1.94,1.94,0,0,1,.49-1.231,1.963,1.963,0,0,1,1.231-.49H7.3v.574a1.941,1.941,0,0,1-.49,1.231,1.964,1.964,0,0,1-1.232.49H5ZM4.43,15.072H3.856a1.941,1.941,0,0,1-1.231-.49,1.963,1.963,0,0,1-.49-1.231v-.574h.574a1.939,1.939,0,0,1,1.231.49A1.963,1.963,0,0,1,4.43,14.5Z" fill="#333"/><path d="M4.267,8.836A2.239,2.239,0,0,1,.818,8.93a2.29,2.29,0,0,1-.765-1.76A2.624,2.624,0,0,1,.913,5.482a3.473,3.473,0,0,1,.578-.45,3.441,3.441,0,0,1-.578-.45A2.625,2.625,0,0,1,.052,2.894,2.292,2.292,0,0,1,.818,1.132a2.239,2.239,0,0,1,3.449.1,3.449,3.449,0,0,1,.45.578,3.447,3.447,0,0,1,.45-.578,2.239,2.239,0,0,1,3.449-.1,2.292,2.292,0,0,1,.765,1.762A2.625,2.625,0,0,1,8.52,4.583a3.51,3.51,0,0,1-.577.451,3.371,3.371,0,0,1,.577.447,2.624,2.624,0,0,1,.861,1.688A2.291,2.291,0,0,1,8.615,8.93,2.332,2.332,0,0,1,6.963,9.7a2.561,2.561,0,0,1-1.8-.863,3.449,3.449,0,0,1-.45-.578A3.45,3.45,0,0,1,4.267,8.836ZM.783,7.21a1.576,1.576,0,0,0,.552,1.2A1.521,1.521,0,0,0,3.75,8.318a4.137,4.137,0,0,0,.642-.965l.324-.624.325.624a4.142,4.142,0,0,0,.643.965,1.859,1.859,0,0,0,1.279.649A1.618,1.618,0,0,0,8.1,8.412a1.577,1.577,0,0,0,.552-1.2A1.922,1.922,0,0,0,8,6a4.025,4.025,0,0,0-.962-.635l-.627-.321.623-.328A4.233,4.233,0,0,0,8,4.065,1.922,1.922,0,0,0,8.65,2.853,1.578,1.578,0,0,0,8.1,1.65a1.521,1.521,0,0,0-2.414.1,4.143,4.143,0,0,0-.642.965l-.325.624-.325-.624a4.142,4.142,0,0,0-.643-.965,1.521,1.521,0,0,0-2.414-.1,1.578,1.578,0,0,0-.552,1.2,1.922,1.922,0,0,0,.648,1.212,4.123,4.123,0,0,0,.964.641l.625.324L2.4,5.356A4.167,4.167,0,0,0,1.431,6,1.921,1.921,0,0,0,.783,7.21Z" fill="#333"/><path d="M3,7.058a.286.286,0,0,0,.2-.084l.94-.94a1.113,1.113,0,0,0,1.157,0l.94.94a.287.287,0,0,0,.406-.406L5.7,5.629a1.113,1.113,0,0,0,0-1.158l.939-.939a.287.287,0,0,0-.406-.406L5.3,4.065a1.113,1.113,0,0,0-1.16,0L3.2,3.126a.287.287,0,0,0-.406.406l.939.939a1.113,1.113,0,0,0,0,1.158l-.939.94a.287.287,0,0,0,.2.49ZM4.306,4.649l.006,0s0,0,0-.006a.571.571,0,0,1,.8,0l0,.006.006,0a.574.574,0,1,1-.821,0Z" fill="#ffa506"/></g></g></svg>
