<svg xmlns="http://www.w3.org/2000/svg" width="32" height="32" viewBox="0 0 32 32"><rect width="32" height="32" fill="#fff" opacity="0"/><g transform="translate(4 1)"><path d="M9.718.153a1.7,1.7,0,0,0-1.69,1.69v1.69H1.69A1.7,1.7,0,0,0,0,5.223V8.181A.423.423,0,0,0,.423,8.6H1.717L3.8,29.348a.423.423,0,0,0,.423.383H20.282a.423.423,0,0,0,.423-.383L22.791,8.6h1.294a.423.423,0,0,0,.423-.423V5.223a1.7,1.7,0,0,0-1.69-1.69H16.479V1.843a1.7,1.7,0,0,0-1.69-1.69Zm13.1,4.225a.834.834,0,0,1,.845.845V7.759H.845V5.223a.834.834,0,0,1,.845-.845ZM14.789,1a.834.834,0,0,1,.845.845v1.69H8.873V1.843A.834.834,0,0,1,9.718,1ZM2.562,8.6H21.945L19.9,28.885H4.608Z" fill="#333"/><g transform="translate(6 12.75)"><path d="M11.872,9.309c-.294-.6-.729-1.4-1.043-1.974L10.7,7.1a.272.272,0,0,0-.369-.107l-.476.262a.272.272,0,0,0-.107.369l.131.238c.308.561.735,1.352,1.019,1.925H7.635V8.967a.272.272,0,0,0-.484-.17L6.064,10.156a.272.272,0,0,0,0,.34l1.087,1.359a.272.272,0,0,0,.484-.17V10.87h3.214a1.12,1.12,0,0,0,1.119-.91A1.067,1.067,0,0,0,11.872,9.309Z" fill="#ffa506"/><path d="M5.189,9.783l-4.076.006c.44-.895,1.07-2.05,2.035-3.734l.01.005.711.4a.272.272,0,0,0,.385-.339L3.6,4.507a.272.272,0,0,0-.3-.166l-1.717.284A.272.272,0,0,0,1.5,5.13l.7.393C1.225,7.222.587,8.395.137,9.309a1.064,1.064,0,0,0-.1.593,1.143,1.143,0,0,0,1.159.969h4a.272.272,0,0,0,.272-.272v-.543A.272.272,0,0,0,5.189,9.783Z" fill="#ffa506"/><path d="M3.67,3.608l.47.273a.272.272,0,0,0,.371-.1l.137-.235c.541-.931,1.035-1.786,1.405-2.46.342.62,1.909,3.179,2.539,4.206l-.715.365a.272.272,0,0,0,.069.509l1.7.351a.272.272,0,0,0,.3-.154l.716-1.587a.272.272,0,0,0-.371-.354l-.726.371-.009,0C8.973,3.835,7.34,1.17,7,.562A1.09,1.09,0,0,0,5.551.121,1.059,1.059,0,0,0,5.1.564C4.733,1.232,4.244,2.079,3.708,3l-.137.235A.272.272,0,0,0,3.67,3.608Z" fill="#ffa506"/></g></g></svg>
