<svg xmlns="http://www.w3.org/2000/svg" width="20.561" height="27.455" viewBox="0 0 20.561 27.455"><g transform="translate(-6 -2.545)"><g transform="translate(6 3)"><g transform="translate(0.6)"><path d="M0,0H10l2,5H2Z" fill="none" stroke="#333" stroke-linecap="round" stroke-linejoin="round" stroke-width="0.7" fill-rule="evenodd"/><line x2="2" y2="5" transform="translate(3.5)" fill="#fff" stroke="#333" stroke-linecap="round" stroke-linejoin="round" stroke-width="0.7"/><line x2="2" y2="5" transform="translate(6.5)" fill="#fff" stroke="#333" stroke-linecap="round" stroke-linejoin="round" stroke-width="0.7"/></g><path d="M16.1,7.258h2a1,1,0,0,1,1,1v1h-4v-.9a32.073,32.073,0,0,0-8.021.894l-.691.167h0l.691-.167A32.073,32.073,0,0,1,15.1,8.356h0v-.1A1,1,0,0,1,16.1,7.258Z" transform="translate(-2.365 6.429) rotate(-26)" fill="none" stroke="#333" stroke-linecap="round" stroke-linejoin="round" stroke-width="0.7" fill-rule="evenodd"/><path d="M6.323,19.5H8.677L9.5,21.33V26.5h-4V21.33Z" fill="none" stroke="#333" stroke-width="1" fill-rule="evenodd"/><line x2="14" transform="translate(0.5 26.5)" fill="none" stroke="#333" stroke-linecap="round" stroke-linejoin="round" stroke-width="1"/><line y2="13.677" transform="translate(7.5 5.5)" fill="none" stroke="#333" stroke-linecap="round" stroke-linejoin="round" stroke-width="0.7"/><g transform="translate(15.764 8.978) rotate(-26)"><line x1="0.588" y2="1.819" transform="translate(0.206)" fill="none" stroke="#ffa506" stroke-linecap="round" stroke-linejoin="round" stroke-width="0.7"/><line x1="0.588" y1="1.819" transform="translate(3.794 1.819) rotate(180)" fill="none" stroke="#ffa506" stroke-linecap="round" stroke-linejoin="round" stroke-width="0.7"/></g><rect width="1.5" height="1.5" transform="translate(6.8 22)" fill="#ffa506"/></g><path d="M10.606,3.341h2.256l1.722,4.307H12.329Z" fill="#ffa506" fill-rule="evenodd"/></g></svg>
