<svg xmlns="http://www.w3.org/2000/svg" width="32" height="32" viewBox="0 0 32 32"><rect width="32" height="32" fill="#fff" opacity="0"/><g transform="translate(1 5)"><g transform="translate(4.093)"><path d="M1.861,18.216a1.156,1.156,0,0,1-.836-.368,1.134,1.134,0,0,1-.307-.826A12.013,12.013,0,0,1,11.944,4.99H13.4A12,12,0,0,1,24.568,16.9a.823.823,0,0,1,0,.159,1.153,1.153,0,0,1-1.153,1.153Zm21.556-.874a.293.293,0,0,0,.281-.319.535.535,0,0,0,0-.078,11.128,11.128,0,0,0-10.33-11.08H11.973A11.141,11.141,0,0,0,1.591,17.045a.279.279,0,0,0,.273.3Z" fill="#333"/><path d="M13.366,4.678a2.171,2.171,0,1,0-1.422,0Z" fill="#333"/><path d="M11.9,3.034a1.085,1.085,0,1,1,1.085,1.1,1.1,1.1,0,0,1-1.085-1.1Z" fill="#fff"/><path d="M23.406,19.24c.755,0,1.246.793,1.246,1.689s-.491,1.689-1.246,1.689H1.861c-.755,0-1.246-.793-1.246-1.689s.492-1.689,1.246-1.689Zm0,1.049H1.861a1.138,1.138,0,0,0,0,1.281H23.406a1.138,1.138,0,0,0,0-1.281Z" fill="#333"/></g><path d="M8.261,15.5c0,.434.265.8.586.8s.586-.353.586-.8c0-2.723,2.675-6.29,4.724-6.3.008-.4-.257-.779-.578-.779C10.848,8.423,8.261,11.861,8.261,15.5Z" fill="#ffa506"/><path d="M.563,5.929,5.946,9.005,6.293,8.4.91,5.322Z" fill="#ffa506"/><path d="M6.429.505,9.363,5.966l.616-.331L7.045.174Z" fill="#ffa506"/></g></svg>
