<svg xmlns="http://www.w3.org/2000/svg" width="32" height="32" viewBox="0 0 32 32"><rect width="32" height="32" fill="#fff" opacity="0"/><g transform="translate(1 1)"><path d="M0,.35v29.3A.349.349,0,0,0,.349,30h29.3A.349.349,0,0,0,30,29.651V.35A.349.349,0,0,0,29.651,0H.349A.355.355,0,0,0,0,.35ZM.7.7H29.3V29.3H.7Zm7.762,1.4a.7.7,0,1,0,.7.7A.7.7,0,0,0,8.459,2.094Zm2.791,0a.7.7,0,1,0,.7.7A.7.7,0,0,0,11.25,2.094Zm2.791,0a.7.7,0,1,0,.7.7A.7.7,0,0,0,14.041,2.094Zm10.2,6.279a.349.349,0,0,0-.2.12L22.3,10.586a.352.352,0,1,0,.545.447l1.123-1.352v3.924a.349.349,0,1,0,.7,0V9.681l1.123,1.352a.352.352,0,1,0,.545-.447L24.587,8.493A.349.349,0,0,0,24.238,8.373ZM23.965,16.4v3.913l-1.123-1.352a.353.353,0,1,0-.545.447L24.041,21.5a.349.349,0,0,0,.545,0L26.331,19.4a.352.352,0,1,0-.545-.447l-1.123,1.352V16.4a.349.349,0,1,0-.7,0Z" fill="#333"/><path d="M4.167,5.833V29.167H18.333V5.833ZM3.333,5H19.167V30H3.333Z" fill="#333"/><path d="M12.364,23.75a4.248,4.248,0,0,1,.093.58,1.207,1.207,0,1,1-2.406,0,4.368,4.368,0,0,1,.085-.58h-4.3v3.869a1.865,1.865,0,0,0,1.548,1.548h7.738c.7,0,1.633-.936,1.486-1.594.046,0,.062-3.823.062-3.823Zm2.755-3.1H12.8V19.107a.929.929,0,0,0-.774-.774H10.476a.936.936,0,0,0-.774.774v1.548H7.381c-.665,0-1.548.1-1.548.774v1.548H16.667V21.429C16.667,20.755,15.785,20.655,15.119,20.655Zm-3.1-.774H10.476v-.774h1.548Zm-.17,4.418a.612.612,0,0,0-.085-.3H10.731a.6.6,0,1,0,1.122.3Z" fill="#ffa506"/></g></svg>
