<svg xmlns="http://www.w3.org/2000/svg" width="32" height="32" viewBox="0 0 32 32"><rect width="32" height="32" fill="#fff" opacity="0"/><g transform="translate(1 3)"><path d="M3.3.189c.023-.069.046-.114.114-.137A.258.258,0,0,1,3.6.029L28.933,6.82a.226.226,0,0,1,.16.16.282.282,0,0,1-.046.229Z" fill="#333"/><path d="M14.747,13.856.669,10.075,3.087,1.056,28.848,7.983l-.4.453-5.3,6a3.21,3.21,0,0,1-3.069.834l-5.238-1.4ZM1.587,9.545,14.9,13.12l.091.012,5.283,1.413a2.451,2.451,0,0,0,2.333-.628l4.882-5.524L3.617,1.975Z" fill="#333"/><path d="M28.018,15.829h-.069l-5.373-1.441a.225.225,0,0,1,.114-.434l5.145,1.372L29.482,9.9l-1.9-.5a.217.217,0,0,1-.16-.274.248.248,0,0,1,.274-.16l2.1.572a.235.235,0,0,1,.16.274L28.2,15.669c-.023.069-.046.114-.114.137A.1.1,0,0,1,28.018,15.829Z" fill="#333"/><path d="M20.632,13.543A1.147,1.147,0,0,1,19.489,12.4a1.143,1.143,0,1,1,2.287,0A1.147,1.147,0,0,1,20.632,13.543Z" fill="#ffa506"/><path d="M4.169,9.221A1.147,1.147,0,0,1,3.026,8.078a1.143,1.143,0,1,1,2.287,0A1.147,1.147,0,0,1,4.169,9.221Z" fill="#ffa506"/><path d="M3.125,24.284v-2.95a1.713,1.713,0,0,0-1.087-1.566V25.76A1.569,1.569,0,0,0,3.125,24.284ZM1.475,26.416V19.1a2.26,2.26,0,0,1,2.212,2.235v2.95A2.17,2.17,0,0,1,1.475,26.416Z" fill="#333"/><path d="M.918,26.44a.208.208,0,0,1-.21-.229V19.284a.211.211,0,1,1,.42,0v6.927A.208.208,0,0,1,.918,26.44Z" fill="#333"/><path d="M3.979,24.175a.229.229,0,0,1,0-.457.96.96,0,1,0,0-1.921.229.229,0,1,1,0-.457,1.418,1.418,0,0,1,0,2.835Z" fill="#333"/><path d="M13.155,14.96a2.037,2.037,0,0,1-.5-.069,1.842,1.842,0,0,1-1.029-.823,1.632,1.632,0,0,1-.137-1.3.225.225,0,1,1,.434.114,1.276,1.276,0,0,0,.092.96,1.35,1.35,0,0,0,.755.617,1.276,1.276,0,0,0,.96-.092,1.349,1.349,0,0,0,.617-.755.225.225,0,0,1,.434.114,1.842,1.842,0,0,1-.823,1.029A1.976,1.976,0,0,1,13.155,14.96Z" fill="#333"/><path d="M10.234,22.879H5.481a.214.214,0,1,1,0-.428h4.753c.064,0,.171-.107.214-.236.043-.171,1.884-7.408,1.884-7.472a.21.21,0,1,1,.407.107c-.086.3-1.841,7.3-1.884,7.494A.733.733,0,0,1,10.234,22.879Z" fill="#333"/><path d="M12.519,14.744c0,.055-.24,1.009-.942,3.783l-.006.024c-.312,1.231-.944,3.72-.946,3.724-.064.191-.226.364-.392.364H5.481c-.025,0-.027,0-.027.027s0,.027.027.027h4.753a.542.542,0,0,0,.438-.389c.053-.238,1.81-7.236,1.893-7.522,0,.01-.012,0-.044-.013A.062.062,0,0,1,12.519,14.744Zm-2.286,8.323H5.481a.4.4,0,1,1,0-.8h4.753c-.031,0,.018-.052.032-.094,0,.009.63-2.482.942-3.712.482-1.9.937-3.714.94-3.752a.4.4,0,1,1,.771.2c-.075.261-1.83,7.252-1.886,7.5A.905.905,0,0,1,10.234,23.067Z" fill="#333"/></g></svg>
