<svg xmlns="http://www.w3.org/2000/svg" width="32" height="32" viewBox="0 0 32 32"><rect width="32" height="32" fill="#fff" opacity="0"/><g transform="translate(1 6)"><path d="M17.662.755l-4.911.06L1.365,18.75h27.3ZM18.079,0,30,19.5H0L12.336.07Z" fill="#333"/><line y2="15.75" transform="translate(14.625 2.784)" fill="none" stroke="#fff" stroke-linecap="square" stroke-width="0.75" stroke-dasharray="2.25"/><path d="M14.25,1.284v3.75h1.5V1.284Zm0,4.5v3.75h1.5V5.784Zm0,4.5v3.75h1.5v-3.75Zm0,4.5v3.75h1.5v-3.75Z" fill="#ffa506"/><path d="M2.625,10.673c-1.3,0-2.25-1.694-2.25-3.721s.949-3.721,2.25-3.721,2.25,1.694,2.25,3.721S3.926,10.673,2.625,10.673Zm0-.75c.77,0,1.5-1.3,1.5-2.971s-.73-2.971-1.5-2.971-1.5,1.3-1.5,2.971S1.855,9.923,2.625,9.923Z" fill="#333"/><path d="M2.25,7.832H3v4.933H2.25Z" fill="#333"/><path d="M25.125,6.49c-1.27,0-2.25-1.311-2.25-2.885s.98-2.885,2.25-2.885,2.25,1.311,2.25,2.885S26.4,6.49,25.125,6.49Zm0-.75c.8,0,1.5-.936,1.5-2.135s-.7-2.135-1.5-2.135-1.5.936-1.5,2.135S24.324,5.74,25.125,5.74Z" fill="#333"/><path d="M24.75,3.649h.75V8.582h-.75Z" fill="#333"/></g></svg>
