<svg xmlns="http://www.w3.org/2000/svg" width="32" height="32" viewBox="0 0 32 32"><rect width="32" height="32" fill="#fff" opacity="0"/><g transform="translate(3 1)"><path d="M3.167,23.782c-.784-4.013-.447-7.793,1.425-10.939l.945-1.588.429,1.8a7.357,7.357,0,0,0,1.277,3.1c.173.177.129.179.238.032.677-.91.742-3.593-.144-6.439l-.8-2.575L8.553,8.961a9.271,9.271,0,0,1,2.374,10.556,4.784,4.784,0,0,0,2.26-4.556c0-1.394-.65-3.282-1.931-5.9-.257-.526-.536-1.075-.883-1.74A56.169,56.169,0,0,1,7.713,1.931a17.3,17.3,0,0,0-3.652,4.25A20.956,20.956,0,0,0,.939,17.4,15.743,15.743,0,0,0,3.73,26.04C3.511,25.308,3.315,24.537,3.167,23.782Zm2.352-9.511c.113-.224-.874-.321-.8-.066-3.089,6.584.763,14.686,1.2,15.208C1.793,26.335.189,20.791.189,17.4c0-9.848,5.961-15.561,8-16.7.535,3.039,5.752,10.083,5.752,14.257s-2.7,5.465-4.93,6.3a8.52,8.52,0,0,0,.132-10.58c-.1-.455-.96,0-.694.331C9.6,16.492,7.155,19.621,5.519,14.271Z" fill="#333"/><rect width="9.13" height="5.217" rx="0.75" transform="translate(6.326 22.174)" fill="#ffa506"/><path d="M16.581,25.712h8.381V23.853H16.581ZM25.712,23.1v3.359h-9.88V23.1Z" fill="#333"/><path d="M23.1,28.321h1.859V23.853H23.1ZM25.712,23.1v5.967H22.353V23.1Z" fill="#333"/></g></svg>
