<svg xmlns="http://www.w3.org/2000/svg" width="32" height="32" viewBox="0 0 32 32"><rect width="32" height="32" fill="#fff" opacity="0"/><g transform="translate(1 4)"><path d="M1.7,14.341l.44.659L15,3.479,27.887,15l.41-.659L15,2.253Z" fill="#333"/><path d="M15,6.916,4.286,18.143v4.714h6.148l3.522-7.186h2.183l3.641,7.186h5.935V18.251ZM3.571,17.857,15,5.879,26.429,17.967v5.6H19.341L15.7,16.386H14.4l-3.522,7.186H3.571Z" fill="#333"/><path d="M11.429,23.571l3.192-6.428H15.5l3.074,6.428Z" fill="#ffa506"/><path d="M1.429,12.143h.714V24.309H1.429Z" fill="#333"/><path d="M27.857,12.143h.714V24.309h-.714Z" fill="#333"/><line x2="1.429" transform="translate(0.357 13.929)" fill="none" stroke="#333" stroke-linecap="square" stroke-width="0.714"/><line x2="1.429" transform="translate(28.214 13.929)" fill="none" stroke="#333" stroke-linecap="square" stroke-width="0.714"/><path d="M11.995,1.071,12.5.566l2.648,2.648-.5.505Z" fill="#333"/><path d="M14.852-1.071l.5.505,2.648-2.648L17.5-3.719Z" transform="translate(32.857) rotate(180)" fill="#333"/></g></svg>
