<svg xmlns="http://www.w3.org/2000/svg" width="32" height="32" viewBox="0 0 32 32"><rect width="32" height="32" fill="#fff" opacity="0"/><g transform="translate(3 1)"><g transform="translate(8.933 0.199)"><path d="M1.148,27H16.727V6.619a5.3,5.3,0,0,0-5.3-5.3H6.451a5.3,5.3,0,0,0-5.3,5.3ZM6.451.559h4.973a6.061,6.061,0,0,1,6.061,6.061V27.754H.391V6.619A6.061,6.061,0,0,1,6.451.559Z" fill="#333"/><path d="M12.046,5.221H12.8V24.646h-.757Z" fill="#333"/><path d="M8.938,6.775h3.108v.777H8.938Z" fill="#333"/><path d="M8.938,9.883h3.108v.777H8.938Z" fill="#333"/><path d="M8.938,12.214h3.108v.777H8.938Z" fill="#333"/><path d="M8.938,15.322h3.108V16.1H8.938Z" fill="#333"/><path d="M8.938,18.453h3.108v.777H8.938Z" fill="#333"/><path d="M8.938,20.761h3.108v.777H8.938Z" fill="#333"/><path d="M8.938,23.092h3.108v.777H8.938Z" fill="#333"/></g><path d="M3.139,20.885S0,25.443,0,26.95a3.165,3.165,0,0,0,6.279,0C6.279,25.443,3.139,20.885,3.139,20.885Z" fill="#ffa506"/><path d="M9.324,17.075V18.2H3.885V20.96H2.761V17.075H5.439V13.967H4.662V13.19H7.294v.777H6.6v3.108Z" fill="#333"/></g></svg>
