<svg xmlns="http://www.w3.org/2000/svg" width="32" height="32" viewBox="0 0 32 32"><rect width="32" height="32" fill="#fff" opacity="0"/><g transform="translate(2 1)"><path d="M5.83,19.371h15v-.413l-15-.012a5.184,5.184,0,1,1,5.184-5.184,2.686,2.686,0,0,1-5.373,0,.213.213,0,0,0-.425,0,3.112,3.112,0,0,0,6.223,0A5.617,5.617,0,0,0,7.563,8.43,5.182,5.182,0,0,1,17.927,8.5a2.909,2.909,0,1,1-5.818,0,.213.213,0,0,0-.425,0,3.331,3.331,0,0,0,3.984,3.27,5.564,5.564,0,0,0-.372,1.993,3.082,3.082,0,1,0,6.163,0,.213.213,0,0,0-.425,0,2.657,2.657,0,0,1-5.313,0,5.131,5.131,0,0,1,.467-2.144,3.343,3.343,0,0,0,2.059-2.305,5.182,5.182,0,0,1,7.841,4.45,5.246,5.246,0,0,1-5.249,5.184,1.452,1.452,0,0,0,0,.425,5.672,5.672,0,0,0,5.674-5.609,5.608,5.608,0,0,0-8.175-4.987c.007-.091.014-.183.014-.276A5.6,5.6,0,0,0,7.145,8.315,5.606,5.606,0,1,0,5.83,19.371Zm0,0h15v-.413l-15-.012a5.184,5.184,0,1,1,5.184-5.184,2.686,2.686,0,0,1-5.373,0,.213.213,0,0,0-.425,0,3.112,3.112,0,0,0,6.223,0A5.617,5.617,0,0,0,7.563,8.43,5.182,5.182,0,0,1,17.927,8.5a2.909,2.909,0,1,1-5.818,0,.213.213,0,0,0-.425,0,3.331,3.331,0,0,0,3.984,3.27,5.564,5.564,0,0,0-.372,1.993,3.082,3.082,0,1,0,6.163,0,.213.213,0,0,0-.425,0,2.657,2.657,0,0,1-5.313,0,5.131,5.131,0,0,1,.467-2.144,3.343,3.343,0,0,0,2.059-2.305,5.182,5.182,0,0,1,7.841,4.45,5.246,5.246,0,0,1-5.249,5.184,1.452,1.452,0,0,0,0,.425,5.672,5.672,0,0,0,5.674-5.609,5.608,5.608,0,0,0-8.175-4.987c.007-.091.014-.183.014-.276A5.6,5.6,0,0,0,7.145,8.315,5.606,5.606,0,1,0,5.83,19.371Z" fill="#333"/><path d="M25.909,13.762A5,5,0,0,0,18.4,9.429a3.522,3.522,0,0,1-2.08,2.328,4.948,4.948,0,0,0-.422,2,2.478,2.478,0,1,0,4.956,0,.391.391,0,0,1,.782,0,3.26,3.26,0,1,1-6.52,0,5.706,5.706,0,0,1,.283-1.771,3.466,3.466,0,0,1-.382.021A3.516,3.516,0,0,1,11.5,8.5a.391.391,0,0,1,.782,0,2.731,2.731,0,1,0,5.461,0,5,5,0,0,0-10-.2,5.8,5.8,0,0,1,3.873,5.459,3.29,3.29,0,0,1-6.58,0,.391.391,0,0,1,.782,0,2.508,2.508,0,0,0,5.016,0A5.005,5.005,0,1,0,5.83,18.767l14.99.012A5.09,5.09,0,0,0,25.909,13.762Zm-4.9,5.785-15.177,0a5.787,5.787,0,1,1,0-11.575,5.665,5.665,0,0,1,1.146.12A5.576,5.576,0,0,1,7.1,7.188a5.788,5.788,0,0,1,11.426,1.3,5.786,5.786,0,0,1,8.161,5.278A5.849,5.849,0,0,1,21.008,19.547Zm-.09-.355h-.08a.31.31,0,0,0,.126-.025Zm5.416-5.43a5.429,5.429,0,0,0-7.915-4.828l-.286.147.027-.321c.009-.112.013-.186.013-.261a5.426,5.426,0,0,0-10.85-.179l-.007.219L7.1,8.488a5.428,5.428,0,1,0-1.272,10.7h14.82v-.056L5.83,19.124a5.362,5.362,0,1,1,5.362-5.362,2.865,2.865,0,0,1-5.73,0,2.837,2.837,0,0,0,2.865,2.933,2.936,2.936,0,0,0,2.933-2.933A5.438,5.438,0,0,0,7.508,8.6l-.125-.041,0-.131A5.36,5.36,0,0,1,18.105,8.5a3.088,3.088,0,0,1-6.176,0,3.06,3.06,0,0,0,3.088,3.156,3.155,3.155,0,0,0,.615-.061l.317-.063-.115.3a5.382,5.382,0,0,0-.36,1.929,2.9,2.9,0,1,0,5.806,0,2.943,2.943,0,0,1-2.9,2.835,2.838,2.838,0,0,1-2.835-2.835,5.311,5.311,0,0,1,.484-2.219l.1-.093a3.164,3.164,0,0,0,1.949-2.182l.081-.11a5.36,5.36,0,0,1,8.111,4.6,5.424,5.424,0,0,1-5.428,5.362c.162,0,.154.1.164-.068,0,.016,0,.058,0,.1A5.443,5.443,0,0,0,26.334,13.762Zm-5.505,5.375-.178-.179v.178Zm5.08-5.375A5,5,0,0,0,18.4,9.429a3.522,3.522,0,0,1-2.08,2.328,4.948,4.948,0,0,0-.422,2,2.478,2.478,0,1,0,4.956,0,.391.391,0,0,1,.782,0,3.26,3.26,0,1,1-6.52,0,5.706,5.706,0,0,1,.283-1.771,3.466,3.466,0,0,1-.382.021A3.516,3.516,0,0,1,11.5,8.5a.391.391,0,0,1,.782,0,2.731,2.731,0,1,0,5.461,0,5,5,0,0,0-10-.2,5.8,5.8,0,0,1,3.873,5.459,3.29,3.29,0,0,1-6.58,0,.391.391,0,0,1,.782,0,2.508,2.508,0,0,0,5.016,0A5.005,5.005,0,1,0,5.83,18.767l14.99.012A5.09,5.09,0,0,0,25.909,13.762Zm-4.9,5.785-15.177,0a5.787,5.787,0,1,1,0-11.575,5.665,5.665,0,0,1,1.146.12A5.576,5.576,0,0,1,7.1,7.188a5.788,5.788,0,0,1,11.426,1.3,5.786,5.786,0,0,1,8.161,5.278A5.849,5.849,0,0,1,21.008,19.547Zm-.09-.355h-.08a.31.31,0,0,0,.126-.025Zm5.416-5.43a5.429,5.429,0,0,0-7.915-4.828l-.286.147.027-.321c.009-.112.013-.186.013-.261a5.426,5.426,0,0,0-10.85-.179l-.007.219L7.1,8.488a5.428,5.428,0,1,0-1.272,10.7h14.82v-.056L5.83,19.124a5.362,5.362,0,1,1,5.362-5.362,2.865,2.865,0,0,1-5.73,0,2.837,2.837,0,0,0,2.865,2.933,2.936,2.936,0,0,0,2.933-2.933A5.438,5.438,0,0,0,7.508,8.6l-.125-.041,0-.131A5.36,5.36,0,0,1,18.105,8.5a3.088,3.088,0,0,1-6.176,0,3.06,3.06,0,0,0,3.088,3.156,3.155,3.155,0,0,0,.615-.061l.317-.063-.115.3a5.382,5.382,0,0,0-.36,1.929,2.9,2.9,0,1,0,5.806,0,2.943,2.943,0,0,1-2.9,2.835,2.838,2.838,0,0,1-2.835-2.835,5.311,5.311,0,0,1,.484-2.219l.1-.093a3.164,3.164,0,0,0,1.949-2.182l.081-.11a5.36,5.36,0,0,1,8.111,4.6,5.424,5.424,0,0,1-5.428,5.362c.162,0,.154.1.164-.068,0,.016,0,.058,0,.1A5.443,5.443,0,0,0,26.334,13.762Zm-5.505,5.375-.178-.179v.178Z" fill="#333"/><path d="M19.121,19.056c.123.381.255.732.4,1.063a12.728,12.728,0,0,0,.758,1.468,5.507,5.507,0,0,1,.526,1.057,2.134,2.134,0,0,1,.117.69,2.341,2.341,0,1,1-4.682,0,3.184,3.184,0,0,1,.643-1.747,11.5,11.5,0,0,0,1.156-2.532c.021-.048.029-.067.036-.079a.256.256,0,0,1-.019.04.619.619,0,0,1,.12-.183.525.525,0,0,1,.1-.077c.017-.011.033-.021.05-.03s.03-.015.086-.039a.388.388,0,0,1,.058-.013l.034,0a.487.487,0,0,1,.082-.006.537.537,0,0,1,.1.01l-.038,0a.566.566,0,0,1,.106.019c.051.022.069.03.081.037a.614.614,0,0,1,.059.035.508.508,0,0,1,.086.069.514.514,0,0,1,.067.082.534.534,0,0,1,.056.1l-.023-.045A.7.7,0,0,1,19.121,19.056ZM17.5,21.944c-.439.761-.548,1.02-.548,1.39a1.627,1.627,0,0,0,3.254,0,1.425,1.425,0,0,0-.08-.463,5.067,5.067,0,0,0-.468-.927,13.358,13.358,0,0,1-.795-1.541c-.1-.23-.194-.469-.284-.72A12.451,12.451,0,0,1,17.5,21.944Z" fill="#333"/><path d="M13.285,21.241c.123.381.255.732.4,1.063a12.736,12.736,0,0,0,.758,1.468,5.507,5.507,0,0,1,.526,1.057,2.134,2.134,0,0,1,.117.69,2.341,2.341,0,1,1-4.682,0,3.183,3.183,0,0,1,.643-1.747A11.5,11.5,0,0,0,12.2,21.241c.021-.049.03-.068.036-.08a.236.236,0,0,1-.018.04.545.545,0,0,1,.059-.107.556.556,0,0,1,.063-.077.618.618,0,0,1,.184-.124l-.043.022a.7.7,0,0,1,.089-.042.424.424,0,0,1,.088-.017.574.574,0,0,1,.087-.007.548.548,0,0,1,.109.011l-.04-.005a.582.582,0,0,1,.1.019l.051.022.015.007a.145.145,0,0,1,.028.017l-.052-.027.024.011a.576.576,0,0,1,.075.044.515.515,0,0,1,.15.149.55.55,0,0,1,.057.1l-.023-.045A.7.7,0,0,1,13.285,21.241Zm-1.621,2.888c-.439.761-.548,1.02-.548,1.39a1.627,1.627,0,0,0,3.254,0,1.425,1.425,0,0,0-.08-.463,5.067,5.067,0,0,0-.468-.927,13.367,13.367,0,0,1-.795-1.541c-.1-.231-.194-.47-.284-.72A12.449,12.449,0,0,1,11.664,24.128Z" fill="#333"/><path d="M7.1,23.579A11.5,11.5,0,0,0,8.254,26.11,3.183,3.183,0,0,1,8.9,27.857a2.341,2.341,0,0,1-4.682,0,2.135,2.135,0,0,1,.117-.689,5.512,5.512,0,0,1,.526-1.058,11.508,11.508,0,0,0,1.156-2.532c.021-.048.029-.067.036-.079a.269.269,0,0,1-.018.04.547.547,0,0,1,.059-.107.5.5,0,0,1,.062-.077.525.525,0,0,1,.091-.074.622.622,0,0,1,.058-.034c.012-.006.032-.015.082-.037a.393.393,0,0,1,.086-.017.549.549,0,0,1,.194,0l-.039-.005a.584.584,0,0,1,.106.019c.048.021.067.029.079.035a.622.622,0,0,1,.062.037.507.507,0,0,1,.086.069.516.516,0,0,1,.066.081.538.538,0,0,1,.057.1l-.023-.045A.709.709,0,0,1,7.1,23.579ZM5.477,26.466a5.057,5.057,0,0,0-.468.928,1.425,1.425,0,0,0-.08.462,1.627,1.627,0,0,0,3.254,0c0-.37-.109-.629-.548-1.39a12.444,12.444,0,0,1-1.079-2.26A12.45,12.45,0,0,1,5.477,26.466Z" fill="#333"/><g transform="translate(16.582)"><path d="M4.9,2.609A3.549,3.549,0,0,1,8.448,6.152c0,1.112-1.265,3.1-.969,2.747S5.567,7.166,2.321,7.952C2.1,8,2.321,6.6,1.612,5.775A3.549,3.549,0,0,1,4.9,2.609Z" fill="#ffa506"/><path d="M5.036,0H4.765V1.621h.271Z" fill="#ffa506"/><path d="M9.512,6.015v.009H9.426v.27l1.624,0V6.289h.085v-.27Z" fill="#ffa506"/><path d="M9.353,1.849l-.191-.191L8.013,2.8l.191.191Z" fill="#ffa506"/><path d="M1.823,2.834.679,1.683l-.192.19L1.631,3.024Z" fill="#ffa506"/><path d="M9.1,4.446l.722-.356L9.7,3.848,8.98,4.2Z" fill="#ffa506"/><path d="M3.3,1.949l-.354-.722L2.7,1.347l.354.722Z" fill="#ffa506"/><path d="M9.076,7.946l.76.263.089-.255-.76-.263Z" fill="#ffa506"/><path d="M7.044,1.268l-.256-.089-.265.759.256.089Z" fill="#ffa506"/></g></g></svg>
