<svg xmlns="http://www.w3.org/2000/svg" width="32" height="32" viewBox="0 0 32 32"><rect width="32" height="32" fill="#fff" opacity="0"/><g transform="translate(1 6)"><path d="M7.441,16.426v-3.75H5.416v3.75H5.17l1.258,1.468,1.258-1.468Zm.916-.891H9.643l-3.214,3.75-3.214-3.75H4.5v-3.75H8.357Z" fill="#333"/><path d="M17.084,16.426v-3.75H15.059v3.75h-.246l1.258,1.468,1.259-1.468ZM18,15.536h1.286l-3.214,3.75-3.214-3.75h1.286v-3.75H18Z" fill="#333"/><path d="M25.655,16.426v-3.75H23.63v3.75h-.246l1.259,1.468L25.9,16.426Zm.916-.891h1.286l-3.214,3.75-3.214-3.75h1.286v-3.75h3.857Z" fill="#333"/><path d="M1.5.786v5.5a3.842,3.842,0,0,0,3.75,3.929h19.5A3.842,3.842,0,0,0,28.5,6.286V.786ZM.75,0h28.5V6.286A4.611,4.611,0,0,1,24.75,11H5.25A4.611,4.611,0,0,1,.75,6.286Z" fill="#333"/><rect width="17.25" height="1" transform="translate(3 3.929)" fill="#ffa506"/><rect width="17.25" height="1" transform="translate(3 6.286)" fill="#ffa506"/></g></svg>
