<svg xmlns="http://www.w3.org/2000/svg" width="32" height="32" viewBox="0 0 32 32"><rect width="32" height="32" fill="#fff" opacity="0"/><g transform="translate(1 4)"><path d="M3.961,19.381a.94.94,0,0,0,0,1.869H8.5A.708.708,0,0,0,8.75,21.2a11.876,11.876,0,0,1-.518-1.827H3.961Z" fill="none" stroke="#333" stroke-width="0.625" fill-rule="evenodd"/><path d="M8.125,10.673a.814.814,0,0,0-.246-.048H.827a.945.945,0,0,0,0,1.875H7.613A12.13,12.13,0,0,1,8.125,10.673Z" fill="none" stroke="#333" stroke-width="0.625" fill-rule="evenodd"/><path d="M6.841,15.932c0-.315.014-.623.034-.932H1.995a.859.859,0,0,0-.745.938.862.862,0,0,0,.745.938H6.87C6.856,16.566,6.841,16.252,6.841,15.932Z" fill="#ffa506"/><path d="M29.109,6.031l-1.827-1.8-.775.764.5.489L25.574,6.891l-.44-.344A9.756,9.756,0,0,0,20.216,4.53l-.558-.063V2.242h1.233V.621H17.234V2.242h1.233V4.465l-.556.065a9.849,9.849,0,0,0-4.92,2.017l-.44.343L11.122,5.483l.5-.489-.775-.764-1.828,1.8.775.764.5-.489,1.428,1.407-.347.433a9.5,9.5,0,0,0-2.1,5.959,9.792,9.792,0,0,0,19.582,0,9.536,9.536,0,0,0-2.1-5.96l-.345-.433,1.427-1.406.5.489Zm-1.858,1.73A10.151,10.151,0,0,1,29.484,14.1a10.422,10.422,0,0,1-20.842,0,10.113,10.113,0,0,1,2.232-6.343l-.586-.578-.5.489L8.125,6.031l2.719-2.679,1.666,1.642-.5.489.586.578a10.484,10.484,0,0,1,5.237-2.147V2.863H16.6V0h4.917V2.863H20.288V3.914a10.39,10.39,0,0,1,5.237,2.147l.586-.578-.5-.489,1.666-1.642L30,6.031,28.334,7.673l-.5-.489Z" fill="#333"/><path d="M19.063,21.26a7.2,7.2,0,1,0-7.2-7.2A7.208,7.208,0,0,0,19.063,21.26Zm0,.615a7.813,7.813,0,1,1,7.813-7.812A7.823,7.823,0,0,1,19.063,21.875Z" fill="#333"/><path d="M24.282,11.572a.65.65,0,0,0-.852-.252l-3.687,1.807a1.642,1.642,0,0,0-1.445.1,1.623,1.623,0,1,0,2.433,1.582l3.36-2.366A.649.649,0,0,0,24.282,11.572ZM19.818,14.8a.711.711,0,1,1-.511-.866A.716.716,0,0,1,19.818,14.8Z" fill="#ffa506"/><path d="M21.567,10.543a.621.621,0,1,0-.23-.224A.768.768,0,0,0,21.567,10.543Z" fill="#333"/><path d="M19.378,10a.625.625,0,1,0-.628-.622.638.638,0,0,0,.083.314A.617.617,0,0,0,19.378,10Z" fill="#333"/><path d="M19.375,18.75h0a.635.635,0,0,0-.625.635.609.609,0,0,0,.084.308.626.626,0,1,0,.541-.942Z" fill="#333"/><path d="M21.556,18.211a.623.623,0,0,0-.217.855h0a.615.615,0,0,0,.856.219.623.623,0,0,0,.217-.855A.629.629,0,0,0,21.556,18.211Z" fill="#333"/><path d="M24.058,16.33a.626.626,0,0,0-.846.864.6.6,0,0,0,.231.224.625.625,0,1,0,.615-1.088Z" fill="#333"/><path d="M14.375,14.372a.625.625,0,1,0-1.25.013.625.625,0,0,0,1.25-.013Z" fill="#333"/><path d="M14.681,16.339a.621.621,0,0,0-.218.854h0a.623.623,0,0,0,.858.218.624.624,0,1,0-.64-1.072Z" fill="#333"/><path d="M23.75,14.378a.6.6,0,0,0,.089.314.621.621,0,1,0-.089-.314Z" fill="#333"/><path d="M14.071,12.418a.619.619,0,0,0,.85-.237h0a.627.627,0,0,0-1.093-.615.645.645,0,0,0,.006.627A.665.665,0,0,0,14.071,12.418Z" fill="#333"/><path d="M16.557,10.54a.006.006,0,0,0,.006-.006c.006,0,.006,0,.006-.006h.006a.622.622,0,0,0,.214-.845.614.614,0,0,0-.845-.222.006.006,0,0,0-.006.006c-.006,0-.006.006-.013.006a.616.616,0,0,0-.214.845h0A.617.617,0,0,0,16.557,10.54Z" fill="#333"/><path d="M17.181,18.207a.624.624,0,0,0-.844.861.66.66,0,0,0,.23.229.633.633,0,0,0,.85-.236A.625.625,0,0,0,17.181,18.207Z" fill="#333"/></g></svg>
