<svg xmlns="http://www.w3.org/2000/svg" width="32" height="32" viewBox="0 0 32 32"><rect width="32" height="32" fill="#fff" opacity="0"/><g transform="translate(1 1)"><g transform="translate(0 1.387)"><path d="M10.1,15.527H3.92a.533.533,0,0,1-.373-.152l0,0A.531.531,0,0,1,3.391,15V12.536H6.514a.775.775,0,1,0,0-1.55H3.391V1.512A1.381,1.381,0,0,0,2.015.135h0A1.381,1.381,0,0,0,.638,1.512V11.02a.776.776,0,0,0,0,1.481V15A3.3,3.3,0,0,0,3.92,18.28c2.067,0,4.121.006,6.184.006a1.38,1.38,0,0,0,0-2.76Z" fill="none" stroke="#333" stroke-width="0.789" fill-rule="evenodd"/><circle cx="1" cy="1" r="1" transform="translate(2.302 25.916)" fill="#333"/><circle cx="1" cy="1" r="1" transform="translate(8.477 25.916)" fill="#333"/><circle cx="1" cy="1" r="1" transform="translate(5.457 25.916)" fill="#333"/><path d="M3.755,25.529a.377.377,0,1,0,0,.753H9.024a.377.377,0,1,0,0-.753H6.935V19.622h1.2a.377.377,0,1,0,0-.753h-3.5a.377.377,0,1,0,0,.753h1.2v5.906H3.755Z" fill="#333"/></g><rect width="18.139" height="2.093" transform="translate(5.581 8.674)" fill="#ffa506"/><g transform="translate(30.337 0.387) rotate(180)"><path d="M4.786-16a.134.134,0,0,1,.036-.093.138.138,0,0,1,.1-.04H11.1a1.779,1.779,0,0,0,1.774-1.775A1.778,1.778,0,0,0,11.1-19.681l-2.59,0h-.5l-3.093,0A3.7,3.7,0,0,0,1.244-16v2.248a1.17,1.17,0,0,0-.546.99,1.171,1.171,0,0,0,.546.99v9.259A1.776,1.776,0,0,0,3.015-.74,1.776,1.776,0,0,0,4.786-2.512v-9.079H7.514a1.17,1.17,0,0,0,1.17-1.17,1.17,1.17,0,0,0-1.17-1.17H4.786Zm6.318-.924H4.92a.929.929,0,0,0-.652.268A.931.931,0,0,0,4-16v2.857H7.514a.381.381,0,0,1,.381.38.381.381,0,0,1-.381.381H4v9.868a.986.986,0,0,1-.982.982.986.986,0,0,1-.982-.982v-9.8L1.755-12.4a.381.381,0,0,1-.268-.364.381.381,0,0,1,.268-.363l.278-.086V-16A2.906,2.906,0,0,1,4.92-18.886l3.094,0h.5l2.589,0a.989.989,0,0,1,.985.984A.99.99,0,0,1,11.1-16.921Z" fill="#333"/><circle cx="1" cy="1" r="1" transform="translate(3.302 -28.916)" fill="#333"/><circle cx="1" cy="1" r="1" transform="translate(9.477 -28.916)" fill="#333"/><circle cx="1" cy="1" r="1" transform="translate(6.457 -28.916)" fill="#333"/><path d="M4.755-26.529a.39.39,0,0,1-.4-.376.391.391,0,0,1,.4-.376h5.269a.391.391,0,0,1,.4.376.391.391,0,0,1-.4.376H7.935v5.906h1.2a.39.39,0,0,1,.4.376.39.39,0,0,1-.4.377h-3.5a.39.39,0,0,1-.4-.377.39.39,0,0,1,.4-.376h1.2v-5.906H4.755Z" fill="#333"/></g></g></svg>
