<svg xmlns="http://www.w3.org/2000/svg" width="32" height="32" viewBox="0 0 32 32"><rect width="32" height="32" fill="#fff" opacity="0"/><g transform="translate(32 5) rotate(180)"><path d="M27.029-11.909a.262.262,0,0,1-.458,0l-1.39-2.482a.263.263,0,0,1,.229-.391H28.19a.263.263,0,0,1,.229.391Z" fill="#ffa506"/><circle cx="1.838" cy="1.838" r="1.838" transform="translate(24.962 -8.875)" fill="#ffa506"/><circle cx="1.838" cy="1.838" r="1.838" transform="translate(27.325 -12.322)" fill="#ffa506"/><circle cx="1.838" cy="1.838" r="1.838" transform="translate(22.6 -12.322)" fill="#ffa506"/><path d="M8.135-10.284c-2.307,0-4.345,2.531-4.345,5.05A4.344,4.344,0,0,0,8.115-.871,4.27,4.27,0,0,0,10.347-1.5l.3-.181-.159-.31a6.457,6.457,0,0,1-.712-2.953A7.8,7.8,0,0,1,10.8-8.694l.142-.253-.21-.2A3.768,3.768,0,0,0,8.135-10.284Zm-.02,8.663A3.594,3.594,0,0,1,4.54-5.234c0-2.137,1.742-4.3,3.595-4.3A2.924,2.924,0,0,1,10-8.795a8.484,8.484,0,0,0-.98,3.849A7.2,7.2,0,0,0,9.66-1.979,3.506,3.506,0,0,1,8.115-1.621Z" fill="#333"/><path d="M10.87-11.434,12-11.676l-1.055-.467a8.532,8.532,0,0,1-5.078-7.443l-.015-.36H2.594A1.954,1.954,0,0,0,.638-18l-.013.676A6.031,6.031,0,0,0,6.66-11.3H9.6A6.051,6.051,0,0,0,10.87-11.434ZM6.66-12.047a5.28,5.28,0,0,1-5.285-5.27l.013-.676a1.205,1.205,0,0,1,1.206-1.2H5.137a9.276,9.276,0,0,0,4.383,7.15Z" fill="#333"/><path d="M16.218-9.805c2,0,3.935,2.437,3.935,4.86A3.985,3.985,0,0,1,16.192-.937a3.984,3.984,0,0,1-3.96-4.007C12.233-7.354,14.207-9.805,16.218-9.805Zm0-.937c-2.7,0-4.922,3.067-4.923,5.8A4.922,4.922,0,0,0,16.192,0a4.922,4.922,0,0,0,4.9-4.945C21.09-7.676,18.922-10.743,16.218-10.743Z" fill="#333"/><path d="M24.111-19.957a6.08,6.08,0,0,1-6.08,6.09H14.388a6.071,6.071,0,0,1-6.08-6.051l.017-.848a1.022,1.022,0,0,1,1.023-1.021H23.1a1.018,1.018,0,0,1,1.023,1Zm.937.019.017-.829A1.96,1.96,0,0,0,23.1-22.724H9.348a1.96,1.96,0,0,0-1.961,1.958l-.017.829a7.013,7.013,0,0,0,7.018,7.008H18.03A7.013,7.013,0,0,0,25.048-19.937Z" fill="#333"/></g></svg>
