<svg xmlns="http://www.w3.org/2000/svg" width="32" height="32" viewBox="0 0 32 32"><rect width="32" height="32" fill="#fff" opacity="0"/><g transform="translate(1 3)"><path d="M22.693,1.744a.424.424,0,0,0-.5-.348.456.456,0,0,0-.323.542l4.476,22.08a.425.425,0,0,0,.5.348.457.457,0,0,0,.323-.542Z" fill="#333"/><path d="M24.162,1.4a.424.424,0,0,0-.5-.348.457.457,0,0,0-.323.541l4.477,22.08a.423.423,0,0,0,.5.347.455.455,0,0,0,.323-.541Z" fill="#333"/><path d="M.309,24.809H29.655v1.033H.309Z" fill="#333"/><path d="M21.124,2,21.115,22.75a1.276,1.276,0,0,1-.31.849.948.948,0,0,1-.708.334H17.385a.944.944,0,0,1-.707-.335,1.285,1.285,0,0,1-.31-.852L16.378,2a1.282,1.282,0,0,1,.309-.851A.944.944,0,0,1,17.394.81l2.714,0a.947.947,0,0,1,.708.335A1.275,1.275,0,0,1,21.124,2Z" fill="none" stroke="#333" stroke-width="0.563" fill-rule="evenodd"/><path d="M17.649,5.382a.489.489,0,0,1-.456-.515.489.489,0,0,1,.456-.514l2.2,0a.493.493,0,0,1,.455.519.489.489,0,0,1-.455.514Z" fill="#ffa506"/><path d="M17.647,22.045a.518.518,0,0,1,0-1.029l2.2,0a.488.488,0,0,1,.455.514.483.483,0,0,1-.456.509Z" fill="#ffa506"/><path d="M10.514,1.089V23.9H15V1.089Zm3.763,22.2H11.219V1.8h3.059Z" fill="#333"/><path d="M5.679,21.993l.54-2.556,2.63-12.49.075-.364.458-2.2L9.9,1.9,5.176.809,4.654,3.293,4.191,5.484l-.078.367L1.491,18.34.95,20.895.491,23.077l4.731,1.1ZM5.622,1.547l3.584.827-.4,1.88L5.227,3.427ZM4.69,5.983l3.58.831L5.647,19.3l-3.58-.83Zm.085,17.458L1.191,22.61l.335-1.579,3.58.83Z" fill="#333"/><path d="M8.849,6.947l.075-.364.458-2.2L4.654,3.293,4.191,5.484l-.078.367Z" fill="#ffa506"/><path d="M5.679,21.993l.54-2.556-4.728-1.1L.95,20.895Z" fill="#ffa506"/></g></svg>
