<svg xmlns="http://www.w3.org/2000/svg" width="32" height="32" viewBox="0 0 32 32"><rect width="32" height="32" fill="#fff" opacity="0"/><g transform="translate(1 4)"><path d="M.75.75V22.728h28.5V.75ZM0,0H30V23.478H0Z" fill="#333"/><rect width="25.5" height="1" transform="translate(2.25 19.5)" fill="#333"/><rect width="25.5" height="1" transform="translate(2.25 2.25)" fill="#333"/><rect width="1" height="18" transform="translate(27 2.25)" fill="#333"/><rect width="1" height="18" transform="translate(2.25 2.25)" fill="#333"/><path d="M6,9H3v1.313H6v2.625H3V14.25H7.5V9Z" fill="#ffa506"/><path d="M25.5-9h-3v-1.312h3v-2.625h-3V-14.25H27V-9Z" transform="translate(49.5) rotate(180)" fill="#ffa506"/><path d="M14.348,2.252h.75V8.775h-.75Z" fill="#333"/><path d="M14.348,14.744h.75v4.921h-.75Z" fill="#333"/><path d="M14.738,14.005a2.25,2.25,0,1,1,2.25-2.25A2.25,2.25,0,0,1,14.738,14.005Zm0-.75a1.5,1.5,0,1,0-1.5-1.5A1.5,1.5,0,0,0,14.738,13.255Z" fill="#333"/><path d="M14.918,15.505v-.75a3,3,0,1,0,0-6v-.75a3.75,3.75,0,1,1,0,7.5Z" fill="#333"/><path d="M14.625,8.005v.75a3,3,0,1,0,0,6v.75a3.75,3.75,0,1,1,0-7.5Z" fill="#333"/></g></svg>
