<svg xmlns="http://www.w3.org/2000/svg" width="32" height="32" viewBox="0 0 32 32"><rect width="32" height="32" fill="#fff" opacity="0"/><g transform="translate(3 1)"><path d="M4.99,10.09,26.65,0,19.676,7.249h5.648L18.3,13.584V8.27h.82v3.468L23.189,8.07H17.748L23.008,2.6,8.694,9.27h6.665l-11.745,8.8H9.329L3.09,26.856l10.124-6.433.44.693L0,29.792l7.74-10.9H1.15L12.9,10.09Z" fill="#333"/><path d="M14.535,9.907v4.906h-.821V9.907Z" fill="#333"/><circle cx="4.718" cy="4.718" r="4.718" transform="translate(13.676 13.489)" fill="#ffa506"/><rect width="5.744" height="1" transform="translate(15.728 18.001)" fill="#fff"/><path d="M11.714,12.359v3.862h-.821V12.359Z" fill="#333"/><path d="M11.714,17.9v1.377h-.821V17.9Z" fill="#333"/><path d="M8.78,18.591v5.36H7.959v-5.36Z" fill="#333"/></g></svg>
