<svg xmlns="http://www.w3.org/2000/svg" width="32" height="32" viewBox="0 0 32 32"><rect width="32" height="32" fill="#fff" opacity="0"/><g transform="translate(1 4)"><path d="M18.862,3.564a3.827,3.827,0,0,0-1.106-2.19,3.632,3.632,0,0,0-2.112-1.1,4.865,4.865,0,0,1-1.609,2.987,4.273,4.273,0,0,1-3.117,1.494A3.894,3.894,0,0,0,14.27,8.077,5.67,5.67,0,0,1,15.778,5a4.864,4.864,0,0,1,3.084-1.435ZM14.739.178a3.771,3.771,0,0,0-2.715,1.195,3.765,3.765,0,0,0-1.106,2.589,4.208,4.208,0,0,0,2.615-1.195,3.66,3.66,0,0,0,1.2-2.589Zm1.609,5.377a4.131,4.131,0,0,0-1.207,2.589,3.587,3.587,0,0,0,2.614-1.1A3.7,3.7,0,0,0,18.962,4.36,3.576,3.576,0,0,0,16.34,5.555Z" fill="#ffa506"/><path d="M17.1-8.1a5.573,5.573,0,0,1-4.583,1.486,8.238,8.238,0,0,1-4.911-2.4,8.094,8.094,0,0,1-2.429-4.863,5.989,5.989,0,0,1,.272-2.575L4.2-19.381l-.264.261-3.9-3.866L2.068-25l3.9,3.866-.264.261,2.959,1.239a5.961,5.961,0,0,1,1.854-.306l.005.547a4.856,4.856,0,0,0-3.457,1.36c-2.147,2.125-1.731,6,.927,8.627s6.567,3.044,8.713.918,1.73-6-.927-8.627a7.722,7.722,0,0,0-4.464-2.235l-.8-.044.052-.545.8.044a8.281,8.281,0,0,1,4.8,2.392A8.094,8.094,0,0,1,18.6-12.639,5.45,5.45,0,0,1,17.1-8.1ZM2.068-24.226.815-22.985Zm0,0L.815-22.985l3.123,3.092,1.253-1.241Zm3.683,7.068a5.04,5.04,0,0,1,.929-1.262,5.051,5.051,0,0,1,1.279-.917L5.287-20.455l-.663.657Z" transform="translate(18.671) rotate(180)" fill="#333"/><path d="M17.1-8.1a5.573,5.573,0,0,1-4.583,1.486,8.238,8.238,0,0,1-4.911-2.4,8.094,8.094,0,0,1-2.429-4.863,5.989,5.989,0,0,1,.272-2.575L4.2-19.381l-.264.261-3.9-3.866L2.068-25l3.9,3.866-.264.261,2.959,1.239a5.961,5.961,0,0,1,1.854-.306l.005.547a4.856,4.856,0,0,0-3.457,1.36c-2.147,2.125-1.731,6,.927,8.627s6.567,3.044,8.713.918,1.73-6-.927-8.627a7.722,7.722,0,0,0-4.464-2.235l-.8-.044.052-.545.8.044a8.281,8.281,0,0,1,4.8,2.392A8.094,8.094,0,0,1,18.6-12.639,5.45,5.45,0,0,1,17.1-8.1ZM2.068-24.226.815-22.985Zm0,0L.815-22.985l3.123,3.092,1.253-1.241Zm3.683,7.068a5.04,5.04,0,0,1,.929-1.262,5.051,5.051,0,0,1,1.279-.917L5.287-20.455l-.663.657Z" transform="translate(18.671) rotate(180)" fill="#333"/><path d="M27.815,8.1a5.573,5.573,0,0,0-4.583-1.486,8.237,8.237,0,0,0-4.911,2.4,8.1,8.1,0,0,0-2.429,4.863,5.991,5.991,0,0,0,.272,2.575l-1.248,2.924-.264-.261-3.9,3.866L12.782,25l3.9-3.866-.264-.261,2.959-1.239a5.962,5.962,0,0,0,1.854.306l.005-.547a4.856,4.856,0,0,1-3.457-1.36c-2.147-2.125-1.731-6,.927-8.627s6.567-3.044,8.713-.918,1.73,6-.927,8.627a7.722,7.722,0,0,1-4.464,2.235l-.8.044.052.545.8-.044a8.281,8.281,0,0,0,4.8-2.392,8.1,8.1,0,0,0,2.429-4.863A5.45,5.45,0,0,0,27.815,8.1ZM12.782,24.226l-1.253-1.241Zm0,0-1.253-1.241,3.123-3.092,1.253,1.241Zm3.683-7.068a5.021,5.021,0,0,0,2.208,2.179L16,20.455l-.663-.657Z" fill="#333"/><path d="M27.815,8.1a5.573,5.573,0,0,0-4.583-1.486,8.237,8.237,0,0,0-4.911,2.4,8.1,8.1,0,0,0-2.429,4.863,5.991,5.991,0,0,0,.272,2.575l-1.248,2.924-.264-.261-3.9,3.866L12.782,25l3.9-3.866-.264-.261,2.959-1.239a5.962,5.962,0,0,0,1.854.306l.005-.547a4.856,4.856,0,0,1-3.457-1.36c-2.147-2.125-1.731-6,.927-8.627s6.567-3.044,8.713-.918,1.73,6-.927,8.627a7.722,7.722,0,0,1-4.464,2.235l-.8.044.052.545.8-.044a8.281,8.281,0,0,0,4.8-2.392,8.1,8.1,0,0,0,2.429-4.863A5.45,5.45,0,0,0,27.815,8.1ZM12.782,24.226l-1.253-1.241Zm0,0-1.253-1.241,3.123-3.092,1.253,1.241Zm3.683-7.068a5.021,5.021,0,0,0,2.208,2.179L16,20.455l-.663-.657Z" fill="#333"/></g></svg>
