<svg xmlns="http://www.w3.org/2000/svg" width="32" height="32" viewBox="0 0 32 32"><rect width="32" height="32" fill="#fff" opacity="0"/><g transform="translate(1 3)"><path d="M24,.482H6.44a.835.835,0,0,0-.835.835V18.864l.007.1a.835.835,0,0,0,.829.73H19.652v3.861a.835.835,0,0,0,1.426.593l8.194-8.189a.834.834,0,0,0,.184-.912l-.049-.1a.835.835,0,0,0-.726-.416H24.835V1.317A.835.835,0,0,0,24,.482Z" fill="#fff"/><path d="M6.44.982H24a.335.335,0,0,1,.335.335V15.036h4.347a.335.335,0,0,1,.238.573l-8.2,8.19a.335.335,0,0,1-.573-.238V19.2H6.44a.335.335,0,0,1-.335-.335V1.317A.335.335,0,0,1,6.44.982Z" fill="#303030"/><path d="M7.844,1.9h9.829a18.559,18.559,0,0,0-5.993,3.834Z" fill="#fff"/><path d="M22.861,1.9h.553V14.786H20.74L12.509,6.563A16.5,16.5,0,0,1,22.861,1.9Z" fill="#fff"/><path d="M7.026,2.738l3.83,3.825a18.537,18.537,0,0,0-3.83,5.982Z" fill="#fff"/><path d="M11.681,7.39,19.9,15.6v2.676H7.026v-.555A16.483,16.483,0,0,1,11.681,7.39Z" fill="#fff"/><path d="M19.756,14.689l9.974.256-9.512,9.506Z" fill="#ffa506"/><path d="M.7,24.983l-.527-.507c2.775-2.885,7.833-2.885,15.143-.088,6.966,2.665,10.284.9,10.284-5.378h.732c0,6.843-3.869,8.9-11.277,6.061C7.989,22.368,3.215,22.368.7,24.983Z" fill="#333"/></g></svg>
