<svg xmlns="http://www.w3.org/2000/svg" width="32" height="32" viewBox="0 0 32 32"><rect width="32" height="32" fill="#fff" opacity="0"/><g transform="translate(1 2)"><path d="M4.756.366h.732v9.5H4.756Z" fill="#333"/><path d="M4.756,18.366h.732V28.9H4.756Z" fill="#333"/><path d="M.9,8.383C-.2,7.547-.192,6.417.917,6.094c.992-.289,2.461.228,3.857,1.482l.15.135-.034.2-.544,3.149a3.6,3.6,0,0,0-.137.7c-.131.941-.26,1.312-.753,1.557C1.7,14.183.71,13.953.723,12.775A3.584,3.584,0,0,1,1,11.577a7.053,7.053,0,0,1,.33-.735,4.679,4.679,0,0,1,.8-.984l.188-.189c.3-.291.482-.474.612-.608A6.063,6.063,0,0,1,.9,8.383ZM1.122,6.8c-.45.131-.453.492.221,1A6.4,6.4,0,0,0,3.5,8.393a.425.425,0,0,1,.415.593,1.269,1.269,0,0,1-.254.371c-.152.172-.363.382-.82.83l-.182.183a4.272,4.272,0,0,0-.679.812,6.349,6.349,0,0,0-.295.656,2.952,2.952,0,0,0-.227.944c0,.464.332.542,1.675-.124.178-.088.259-.324.354-1a3.679,3.679,0,0,1,.156-.778l.5-2.889C2.961,6.986,1.806,6.6,1.122,6.8Z" fill="#333"/><path d="M26.445,16.983l.552-1.3c.28-.658.536-1.285.741-1.822l-1.328.857.207-1.568a8.691,8.691,0,0,0,.013-3.147A4.853,4.853,0,0,1,23.119,12.5a14.288,14.288,0,0,0-2.417.863,10.529,10.529,0,0,0-3.952,4.366l-.3.574.249.355c-.037-.052.252.214.262.22.358.219.539.326.783.456a6.414,6.414,0,0,0,1.472.584,8.188,8.188,0,0,0,1.746.191A9.251,9.251,0,0,0,26.7,17.969a13.222,13.222,0,0,0,1.49-1.356Zm-11,.741a10.591,10.591,0,0,0-4.009-4.475,14.261,14.261,0,0,0-2.416-.863,4.853,4.853,0,0,1-3.51-2.494,8.683,8.683,0,0,0,.013,3.148l.207,1.568L4.405,13.75c.2.536.46,1.162.741,1.822L5.7,16.867,3.956,16.5a13.2,13.2,0,0,0,1.49,1.356A9.252,9.252,0,0,0,11.179,20a8.149,8.149,0,0,0,1.727-.187,6.425,6.425,0,0,0,1.491-.588c.245-.13.426-.237.782-.455.11-.068.3-.174.567-.325l.051-.029ZM30,15.479l-.443.623c-.137.194-3.426,4.74-8.594,4.74a8.929,8.929,0,0,1-1.9-.208A8.655,8.655,0,0,1,16.58,19.5a3.8,3.8,0,0,1-.479-.424q-.392.218-.539.309a8.654,8.654,0,0,1-2.481,1.131,8.912,8.912,0,0,1-1.9.208c-5.168,0-8.457-4.546-8.594-4.74l-.442-.624,1.458.31q.1.232.2.472l.3-.366.372.079-.148-.351.3-.365-.5-.105c-.312-.762-.666-1.672-.827-2.249l-.211-.757L4,12.619q.032.294.074.611l.441-.279.284.183q-.022-.169-.043-.336l.44-.278-.5-.326a6.753,6.753,0,0,1,.562-3.738l.371-.778.19.84a4.022,4.022,0,0,0,3.394,3.159,14.819,14.819,0,0,1,2.587.932,11.1,11.1,0,0,1,3.886,4.021q-.118.211-.23.425l.473,0c.064.118.123.23.176.335.055-.105.115-.216.18-.333l.473,0q-.109-.215-.226-.428a11,11,0,0,1,3.818-3.909,14.828,14.828,0,0,1,2.587-.932,4.022,4.022,0,0,0,3.394-3.159l.189-.84.371.778a6.756,6.756,0,0,1,.562,3.738l-.505.326.44.279q-.02.167-.043.336l.284-.184.441.279c.028-.212.053-.415.074-.611l.91-.587-.211.757c-.161.577-.516,1.487-.828,2.249l-.5.105.3.365-.148.351.372-.079.3.366q.1-.24.2-.472Z" fill="#333"/><path d="M8.2,14.14a1.188,1.188,0,0,1,.247-.407,1.16,1.16,0,0,1,.406-.284l.058-.025c.034-.014.039-.013.059-.02l.1-.031a1.422,1.422,0,0,1,.256-.039,1.065,1.065,0,0,1,.48.1.811.811,0,0,1,.348.314.545.545,0,0,1,.055.434.45.45,0,0,1-.1.165.441.441,0,0,1-.122.1.37.37,0,0,1-.119.061l-.1.036c-.13.022-.2.028-.2.028s.063-.04.168-.1l.077-.063.043-.034.035-.044a.272.272,0,0,0,.063-.1.291.291,0,0,0,.032-.108.341.341,0,0,0-.08-.217.627.627,0,0,0-.24-.157.826.826,0,0,0-.319-.037,1.524,1.524,0,0,0-.158.03l-.1.033a.243.243,0,0,0-.041.015l-.04.018A.879.879,0,0,0,8.721,14a.94.94,0,0,0-.2.272,1.3,1.3,0,0,0-.1.315,1.44,1.44,0,0,0-.015.308,1.491,1.491,0,0,0,.044.267,1.527,1.527,0,0,0,.07.2c.021.057.05.1.063.131l.023.046-.04-.033a.812.812,0,0,1-.11-.1,1.047,1.047,0,0,1-.145-.188,1.158,1.158,0,0,1-.129-.284,1.254,1.254,0,0,1-.058-.373A1.273,1.273,0,0,1,8.2,14.14Z" fill="#333"/><path d="M6.164,14.205a1.278,1.278,0,0,1-.191-.458.946.946,0,0,1-.016-.292.54.54,0,0,1,.146-.326.569.569,0,0,1,.347-.162A.948.948,0,0,1,6.782,13a1.3,1.3,0,0,1,.572.284,1.249,1.249,0,0,1,.214.251,1.951,1.951,0,0,1,.139.278,3.1,3.1,0,0,1,.148.546c.037.173.061.337.1.486.02.072.033.147.058.21a.9.9,0,0,0,.073.184l.042.082.053.068a.643.643,0,0,0,.051.066l.061.049.058.048c.02.014.042.021.061.032l.114.058.248.069-.067,0c-.044,0-.109.009-.191.006l-.141-.028a.455.455,0,0,1-.162-.061l-.087-.044a.794.794,0,0,1-.08-.065l-.082-.073-.068-.09a1.578,1.578,0,0,1-.222-.43c-.057-.158-.107-.322-.151-.488a3.883,3.883,0,0,0-.163-.481.965.965,0,0,0-.263-.38.911.911,0,0,0-.406-.209.836.836,0,0,0-.205-.03.22.22,0,0,0-.13.041.41.41,0,0,0-.082.328,1.28,1.28,0,0,0,.1.389.522.522,0,0,0,.184.245c.055.036.129-.02.17-.086A.885.885,0,0,0,6.8,14.09l.026-.062s0,.023,0,.067a.732.732,0,0,1-.037.193.368.368,0,0,1-.077.135.213.213,0,0,1-.2.062A.608.608,0,0,1,6.164,14.205Z" fill="#333"/><path d="M13.7,18.089a2.376,2.376,0,0,1-3.193-.168c-.613-.579-1.14-1.251-1.767-1.974l-.1,0-.611-.038c-.123,0-.257-.007-.391,0a1.294,1.294,0,0,0-.391.082.593.593,0,0,0-.288.232.79.79,0,0,0-.092.177,2,2,0,0,0-.052.2c-.006.041-.015.086-.018.122l-.006.1a.716.716,0,0,0,.023.2.362.362,0,0,0,.188.25.529.529,0,0,0,.337.033.589.589,0,0,0,.288-.149.367.367,0,0,0,.1-.246.612.612,0,0,0-.058-.233,1.234,1.234,0,0,0-.085-.146l-.035-.051a1.148,1.148,0,0,1,.185.153.625.625,0,0,1,.143.256.512.512,0,0,1-.07.4.759.759,0,0,1-.384.3.783.783,0,0,1-.558.007.7.7,0,0,1-.422-.466,1.147,1.147,0,0,1-.045-.3c0-.05,0-.1.005-.153s.011-.086.016-.129a2.131,2.131,0,0,1,.08-.285A1.188,1.188,0,0,1,6.646,16a.9.9,0,0,1,.483-.337,1.333,1.333,0,0,1,.508-.048,2.415,2.415,0,0,1,.423.068,5.718,5.718,0,0,1,.593.185l.02.007c-.033-.038-.064-.075-.1-.112.9-.142,1.633-.3,2.377-.367a2.425,2.425,0,0,1,2.9,2.274A.516.516,0,0,1,13.7,18.089Z" fill="#ffa506"/><path d="M21.989,13.865a.816.816,0,0,1,.349-.314,1.066,1.066,0,0,1,.479-.1,1.439,1.439,0,0,1,.256.039l.1.031a.563.563,0,0,1,.059.02l.057.025a1.16,1.16,0,0,1,.406.284,1.182,1.182,0,0,1,.247.407,1.262,1.262,0,0,1,.073.426,1.231,1.231,0,0,1-.058.373,1.141,1.141,0,0,1-.128.284,1.048,1.048,0,0,1-.145.188.766.766,0,0,1-.11.1l-.04.033.023-.046a1.388,1.388,0,0,0,.063-.131,1.486,1.486,0,0,0,.07-.2,1.54,1.54,0,0,0,.045-.267,1.5,1.5,0,0,0-.015-.308,1.3,1.3,0,0,0-.1-.315.945.945,0,0,0-.2-.272.881.881,0,0,0-.286-.186l-.039-.018a.383.383,0,0,0-.041-.015l-.1-.033a1.47,1.47,0,0,0-.159-.03.824.824,0,0,0-.319.037.625.625,0,0,0-.24.157.342.342,0,0,0-.08.217.289.289,0,0,0,.032.108.283.283,0,0,0,.063.1l.036.043.042.034.076.063c.1.061.168.1.168.1s-.07-.007-.2-.028l-.1-.036a.366.366,0,0,1-.119-.06.434.434,0,0,1-.122-.1.45.45,0,0,1-.1-.165A.545.545,0,0,1,21.989,13.865Z" fill="#333"/><path d="M25.7,17.244a.7.7,0,0,1-.422.466.784.784,0,0,1-.558-.006.759.759,0,0,1-.384-.3A.518.518,0,0,1,24.266,17a.622.622,0,0,1,.143-.256,1.156,1.156,0,0,1,.185-.153l-.035.051a1.212,1.212,0,0,0-.085.146.611.611,0,0,0-.058.233.368.368,0,0,0,.1.246.591.591,0,0,0,.288.149.531.531,0,0,0,.336-.033.361.361,0,0,0,.189-.25.766.766,0,0,0,.023-.2l-.006-.1c0-.036-.013-.082-.019-.123a2,2,0,0,0-.052-.2.776.776,0,0,0-.092-.177.592.592,0,0,0-.288-.232,1.291,1.291,0,0,0-.391-.082c-.134-.01-.268-.006-.392,0l-.611.037-.1,0c-.627.722-1.154,1.395-1.767,1.974a2.377,2.377,0,0,1-3.193.168.516.516,0,0,1-.159-.42,2.426,2.426,0,0,1,2.9-2.274c.744.064,1.478.225,2.377.367l-.1.112.02-.007a5.765,5.765,0,0,1,.593-.185,2.408,2.408,0,0,1,.423-.068,1.323,1.323,0,0,1,.507.048.9.9,0,0,1,.483.337,1.17,1.17,0,0,1,.146.263,2.1,2.1,0,0,1,.081.285c.005.043.012.081.016.128s.005.1.005.153A1.13,1.13,0,0,1,25.7,17.244Z" fill="#ffa506"/><path d="M26.17,13.863a1.28,1.28,0,0,1-.191.458.606.606,0,0,1-.343.28.212.212,0,0,1-.2-.063.361.361,0,0,1-.077-.134.73.73,0,0,1-.037-.193c0-.044-.005-.067-.005-.067l.026.062a.88.88,0,0,0,.086.162c.041.066.115.122.17.086a.52.52,0,0,0,.184-.245,1.275,1.275,0,0,0,.1-.389.411.411,0,0,0-.082-.327.217.217,0,0,0-.13-.041.842.842,0,0,0-.205.03.91.91,0,0,0-.406.209.969.969,0,0,0-.263.38,3.945,3.945,0,0,0-.163.481c-.045.166-.095.331-.151.489a1.576,1.576,0,0,1-.222.431l-.068.09-.082.073a.759.759,0,0,1-.08.065l-.086.044a.461.461,0,0,1-.163.061l-.142.028c-.082,0-.146-.005-.191-.006l-.067,0,.248-.069.113-.058c.02-.011.041-.018.062-.032l.058-.048.061-.05a.7.7,0,0,0,.051-.065c.017-.022.035-.045.053-.068l.042-.082a.911.911,0,0,0,.073-.184,2.074,2.074,0,0,0,.057-.211c.034-.149.059-.312.1-.486a3.038,3.038,0,0,1,.149-.546,1.913,1.913,0,0,1,.139-.278,1.251,1.251,0,0,1,.214-.251,1.3,1.3,0,0,1,.572-.284.953.953,0,0,1,.333-.028.571.571,0,0,1,.347.162.541.541,0,0,1,.146.326A.974.974,0,0,1,26.17,13.863Z" fill="#333"/></g></svg>
