<svg xmlns="http://www.w3.org/2000/svg" width="32" height="32" viewBox="0 0 32 32"><rect width="32" height="32" fill="#fff" opacity="0"/><g transform="translate(0 4)"><path d="M29.444,23.333H5.667a.389.389,0,1,1,0-.778H29.444a.778.778,0,0,0,.778-.778V5.444a.778.778,0,0,0-.778-.778H10.333a.389.389,0,0,1,0-.778H29.444A1.556,1.556,0,0,1,31,5.444V21.778A1.555,1.555,0,0,1,29.444,23.333Z" fill="#333"/><path d="M10.333,5.25a.389.389,0,0,1-.389-.389,4.083,4.083,0,1,0-8.167,0,.389.389,0,0,1-.778,0,4.861,4.861,0,1,1,9.722,0,.389.389,0,0,1-.389.389Z" fill="#333"/><path d="M5.861,23.333a4.861,4.861,0,1,1,4.861-4.861.389.389,0,1,1-.778,0,4.083,4.083,0,1,0-4.083,4.083.389.389,0,1,1,0,.778Z" fill="#333"/><path d="M1.389,19.056A.389.389,0,0,1,1,18.667v-14a.389.389,0,0,1,.778,0v14A.389.389,0,0,1,1.389,19.056Z" fill="#333"/><path d="M10.333,18.667a.389.389,0,0,1-.389-.389V4.667a.389.389,0,1,1,.778,0V18.278A.389.389,0,0,1,10.333,18.667Z" fill="#333"/><path d="M2.833,12.67c-.215,0-.389-.1-.389-.227V4.5c0-.125.174-.227.389-.227s.389.1.389.227v7.939C3.222,12.569,3.048,12.67,2.833,12.67Z" fill="#333"/><path d="M4.333,8.17c-.215,0-.389-.065-.389-.146v-5.1c0-.08.174-.146.389-.146s.389.065.389.146v5.1C4.722,8.105,4.548,8.17,4.333,8.17Z" fill="#333"/><path d="M7.358,21.778a2.808,2.808,0,0,1-2.8-2.59A2.333,2.333,0,0,1,6.7,16.695a1.944,1.944,0,0,1,2.077,1.781A.39.39,0,1,1,8,18.534a1.167,1.167,0,0,0-1.244-1.066,1.556,1.556,0,0,0-1.423,1.657A2.034,2.034,0,0,0,7.51,20.992a2.633,2.633,0,0,0,2.434-2.823.388.388,0,1,1,.774-.058,3.414,3.414,0,0,1-3.142,3.667Z" fill="#333"/><path d="M20.4,10.834h4.268v.7H20.4Zm-1.865,1.831V8.975a.726.726,0,0,1,.724-.725h.124a.726.726,0,0,1,.724.725V13.4a.726.726,0,0,1-.724.725H19.26a.726.726,0,0,1-.724-.725Zm-2.217-1.73a.1.1,0,0,1,.1-.1h.412v.7h-.412a.1.1,0,0,1-.1-.1Zm-2.055,6.119h-.412a.1.1,0,0,1-.1-.1v-.5a.1.1,0,0,1,.1-.1h.412Zm1.411,1.126a.559.559,0,1,1-1.119,0V15.223a.559.559,0,1,1,1.119,0V18.18Zm1.865-2.124v2.856a.726.726,0,0,1-.724.725h-.124a.726.726,0,0,1-.724-.725V14.49a.726.726,0,0,1,.724-.725h.124a.726.726,0,0,1,.724.725Zm-.415-3.391V9.708a.559.559,0,1,1,1.119,0v2.957a.559.559,0,1,1-1.119,0ZM22.1,17.054H17.832v-.7H22.1Zm1.865-1.831v3.69a.726.726,0,0,1-.724.725h-.124a.726.726,0,0,1-.724-.725V14.49a.726.726,0,0,1,.724-.725h.124a.726.726,0,0,1,.724.725Zm1.411.834V18.18a.559.559,0,1,1-1.119,0V15.223a.559.559,0,1,1,1.119,0Zm.806.9a.1.1,0,0,1-.1.1h-.412v-.7h.412a.1.1,0,0,1,.1.1Zm.351-7.245V13.4a.726.726,0,0,1-.724.725h-.124a.726.726,0,0,1-.724-.725V8.975a.726.726,0,0,1,.724-.725h.124a.726.726,0,0,1,.724.725Zm1.411.834v2.124a.559.559,0,1,1-1.119,0V9.708a.559.559,0,1,1,1.119,0Zm.7,1h-.412v-.7h.412a.1.1,0,0,1,.1.1v.5A.1.1,0,0,1,28.649,11.539Z" transform="matrix(0.719, 0.695, -0.695, 0.719, 15.65, -10.848)" fill="#ffa506"/></g></svg>
