<svg xmlns="http://www.w3.org/2000/svg" width="32" height="32" viewBox="0 0 32 32"><rect width="32" height="32" fill="#fff" opacity="0"/><g transform="translate(3 1)"><path d="M15.4-22.23l.749-.961,3.59,10.084a.31.31,0,0,1,.007.172l-.968,3.841a.294.294,0,0,1-.184.205.287.287,0,0,1-.27-.042l-3.1-2.377a.278.278,0,0,1-.1-.138l-1.589-4.639-.293.276a7.965,7.965,0,0,1-1.208.938l-.142.09.561,4.959A7.3,7.3,0,0,1,14.1-4.408,7.112,7.112,0,0,1,11.484-.054.286.286,0,0,1,11.14-.06.3.3,0,0,1,11.047-.4l.258-.7a2.871,2.871,0,0,0-1.1-3.387A3.448,3.448,0,0,1,9.023-8.928l.307-.615-.238-4.223-.273.033a7.7,7.7,0,0,1-2.66-.166L5.9-13.961l-.193.9.151.1a.985.985,0,0,1,.295.306,1.032,1.032,0,0,1,.132.769,1.014,1.014,0,0,1-.437.641.981.981,0,0,1-.369.145l-.175.029-.171.785a1.511,1.511,0,0,0,.048.864,2.233,2.233,0,0,1-.374,2.158L1.845-3.787a.283.283,0,0,1-.28.094A.29.29,0,0,1,1.352-3.9L.1-8.337a2.225,2.225,0,0,1,.553-2.116,1.508,1.508,0,0,0,.4-.763L1.226-12l-.146-.1A1,1,0,0,1,.805-12.4a1.036,1.036,0,0,1-.132-.77,1.019,1.019,0,0,1,.437-.641.986.986,0,0,1,.394-.149l.181-.025.5-2.313-.088-.1c-.365-.424.419-.576.149-1.069l.947-1.607Q16.736-22.883,15.4-22.23ZM18.33-9.668l.338-1.345-.382.049a1.72,1.72,0,0,0-.372.09,1.725,1.725,0,0,0-.342.168l-.329.207Zm-1.525-1.171.16-.142a2.33,2.33,0,0,1,.76-.453,2.223,2.223,0,0,1,.866-.133l.215.013.3-1.184-.362.025a5.078,5.078,0,0,0-2.59.932l-.3.213Zm-1.273-1.22.283-.2a5.754,5.754,0,0,1,.892-.522l.217-.1L15.066-18.31l-.284.516a8.252,8.252,0,0,1-.711,1.085l-.091.116ZM10.513-4.983a3.434,3.434,0,0,1,1.545,2.806l.02.812.456-.664a5.83,5.83,0,0,0,.992-2.466,6.58,6.58,0,0,0-1.387-4.778L12.053-9.4l-2.245.2-.271.541A2.849,2.849,0,0,0,10.513-4.983Zm-.7-6.175L9.894-9.8l1.971-.175-.152-1.353Zm1.827-.757-.288-2.559-.323.143a7.622,7.622,0,0,1-1.158.4l-.209.054.118,2.125Zm-10.6,1.9A1.641,1.641,0,0,0,.657-8.5l.934,3.323L2.2-8.006a.3.3,0,0,1,.342-.225.3.3,0,0,1,.221.354L2.154-5.051l2.219-2.6A1.647,1.647,0,0,0,4.647-9.2a2.117,2.117,0,0,1-.076-1.216l.168-.777-2.954-.673-.168.777A2.079,2.079,0,0,1,1.046-10.019Zm.6-3.354a.4.4,0,0,0-.226.069.435.435,0,0,0-.18.265.429.429,0,0,0,.059.331.414.414,0,0,0,.258.184l.079.017,3.684.829a.408.408,0,0,0,.228-.07.42.42,0,0,0,.18-.266.43.43,0,0,0-.059-.33.406.406,0,0,0-.258-.182Zm3.707-.766-.209-.083a7.686,7.686,0,0,1-1.363-.7A7.648,7.648,0,0,1,3-15.506l-.329-.279-.42,1.933,2.9.66ZM15.816-22.5l-.048,1.13a8.218,8.218,0,0,1-.363,2.1l-.027.085,2.089,6.1.231-.059a5.487,5.487,0,0,1,1.011-.164l.344-.023L15.91-22.515C17.385-22.841,15.7-22.473,15.816-22.5Z" transform="translate(19.787) rotate(180)" fill="#333"/><path d="M19.627,21.353a1.654,1.654,0,0,1-1.722.713,1.8,1.8,0,0,1-.8-2.415q.117-.339,1.889-3.945l.569-1.266c-1.712-1.646-4.372-2.644-7.982-2.1-7.918,1.2-12.638,10.467-7.5,14.774C8.89,31.145,13.69,28.3,15.512,25.252a1.213,1.213,0,0,1,1.111-.505,4.356,4.356,0,0,0,4.982-3.154,6.612,6.612,0,0,0,.184-2.82Q19.83,21.212,19.627,21.353Z" fill="#fff"/><path d="M21.3,20.257c-.668.82-1.066,1.284-1.266,1.472a2.169,2.169,0,0,1-2.287.862,2.321,2.321,0,0,1-1.156-3.118c.09-.261.707-1.549,1.907-3.99l.406-.9a8.732,8.732,0,0,0-7.236-1.694C4.153,14.018-.281,22.742,4.434,26.694A6.751,6.751,0,0,0,15.041,24.97a1.754,1.754,0,0,1,1.637-.769c2.06.207,3.726-.506,4.4-2.765A5.627,5.627,0,0,0,21.3,20.257Zm-1.668,1.1q.2-.141,2.162-2.581a6.612,6.612,0,0,1-.184,2.82,4.356,4.356,0,0,1-4.982,3.154,1.213,1.213,0,0,0-1.111.505C13.69,28.3,8.89,31.145,4.082,27.115c-5.138-4.307-.418-13.577,7.5-14.774,3.61-.545,6.27.453,7.982,2.1l-.569,1.266q-1.771,3.605-1.889,3.945a1.8,1.8,0,0,0,.8,2.415A1.654,1.654,0,0,0,19.627,21.353Z" fill="#333"/><path d="M10.613,24A1.557,1.557,0,1,1,8.97,25.56,1.6,1.6,0,0,1,10.613,24Zm-4.58-2.5a1.557,1.557,0,1,1,0,3.11,1.557,1.557,0,1,1,0-3.11Zm1.574-4.614a1.557,1.557,0,1,1,0,3.11,1.557,1.557,0,1,1,0-3.11ZM11.94,14.2A1.557,1.557,0,1,1,10.3,15.75,1.6,1.6,0,0,1,11.94,14.2Z" fill="#ffa506"/><path d="M22.639,11.371a3.966,3.966,0,0,0,.853-.125c.148-.044.194-.075.189-.067l.146-.253.164.242a2.905,2.905,0,0,1,.28.572,4.3,4.3,0,0,1,.162,2.493,2.054,2.054,0,0,1-.5,1.1,2.3,2.3,0,0,1-3.122.26,2.042,2.042,0,0,1-.275-2.983l.116-.132c.03-.037.085-.1.163-.176a3.847,3.847,0,0,1,.437-.377A2.628,2.628,0,0,1,22.639,11.371Zm-1.174.848a3.479,3.479,0,0,0-.4.341c-.069.069-.116.122-.143.155l-.121.137a1.676,1.676,0,0,0,.228,2.454,1.935,1.935,0,0,0,2.621-.216,1.707,1.707,0,0,0,.418-.92,3.961,3.961,0,0,0-.144-2.3,3.3,3.3,0,0,0-.149-.34,1.444,1.444,0,0,1-.182.067,4.3,4.3,0,0,1-.935.14A2.275,2.275,0,0,0,21.464,12.219Z" fill="#333"/><path d="M17.564,19.786l1.373-3.054.185.155c.039.033.083.068.135.11a5.5,5.5,0,0,0,2.183,1.118l.285.062-.179.229-1.96,2.507a1.488,1.488,0,0,1-1.72.622A1.36,1.36,0,0,1,17.564,19.786Zm.334.15c-.242.538-.157,1.113.145,1.28s.884-.052,1.255-.527L21.085,18.4a6.072,6.072,0,0,1-2.011-1.083Z" fill="#333"/><path d="M21.01,15.262a2.2,2.2,0,0,0,2.263.195l.56-.235-1.813,2.716h-.1a4.48,4.48,0,0,1-2.811-1.37l-.1-.093,1.21-2.452.151.385A2.036,2.036,0,0,0,21.01,15.262Zm-.806-.372-.742,1.5a4.218,4.218,0,0,0,2.362,1.178L22.9,15.963A2.373,2.373,0,0,1,20.2,14.889Z" fill="#333"/></g></svg>
