<svg xmlns="http://www.w3.org/2000/svg" width="32" height="32" viewBox="0 0 32 32"><rect width="32" height="32" fill="#fff" opacity="0"/><g transform="translate(1 2)"><path d="M2.724,13.843a1.089,1.089,0,0,0-1.084,1.084v11.4a1.089,1.089,0,0,0,1.084,1.085h21.2a1.089,1.089,0,0,0,1.084-1.085v-11.4a1.089,1.089,0,0,0-1.084-1.084Zm0-.718h21.2a1.806,1.806,0,0,1,1.8,1.8v11.4a1.806,1.806,0,0,1-1.8,1.8H2.724a1.806,1.806,0,0,1-1.8-1.8v-11.4A1.806,1.806,0,0,1,2.724,13.126Z" fill="#333"/><path d="M3.4,20.044H6.049V17.4H3.4Zm-.354-3.366H6.4a.363.363,0,0,1,.363.363V20.4a.363.363,0,0,1-.363.363H3.047a.363.363,0,0,1-.363-.363V17.042A.363.363,0,0,1,3.047,16.678Z"/><path d="M19.969,22.4h0a1.939,1.939,0,0,1,.924.236,1.922,1.922,0,0,1,.925-.236,1.939,1.939,0,1,1,0,3.878,1.922,1.922,0,0,1-.926-.237,1.939,1.939,0,0,1-.923.237h0a1.939,1.939,0,1,1,0-3.878Z" fill="#ffa506"/><path d="M3.072,22.937H13.144a.363.363,0,1,1,0,.727H3.072a.363.363,0,1,1,0-.727Z"/><path d="M3.072,24.615h9.161a.363.363,0,1,1,0,.727H3.072a.363.363,0,1,1,0-.727Z"/><path d="M23.632,1.71l.693,1.311L3.373,14.081H1.308l-.1-.191-.141-.267a2.164,2.164,0,0,1,.9-2.919L20.711.808a2.165,2.165,0,0,1,2.921.9Zm-.277,1.012L23,2.046a1.448,1.448,0,0,0-1.263-.769,1.429,1.429,0,0,0-.688.166L2.3,11.338a1.446,1.446,0,0,0-.6,1.949l.04.076H3.195Z" fill="#333"/><path d="M25.357,4.974l3.606,6.82a2.155,2.155,0,0,1-.905,2.922L25.3,16.122v-.638c0-.557-1.026-1.394-1.819-1.394H8.087Zm-14.372,8.4h12.5A2.919,2.919,0,0,1,25.919,15l1.812-.925a1.437,1.437,0,0,0,.6-1.947l-3.27-6.186Z" fill="#333"/><path d="M25.826,5.86,9.668,14.091H1.861L24.067,2.519ZM23.764,3.486,4.791,13.373H9.5L24.852,5.551Z" fill="#333"/></g></svg>
