<svg xmlns="http://www.w3.org/2000/svg" width="32" height="32" viewBox="0 0 32 32"><rect width="32" height="32" fill="#fff" opacity="0"/><g transform="translate(1 1)"><path d="M15.665,5.542a1,1,0,0,1,.144.182,1,1,0,0,1,.719,1.262H24.78a1,1,0,0,1,1.472-1.147,1,1,0,0,1,1.2,1.2,1,1,0,0,1-.817,1.516v7.911a1,1,0,0,1,1.106.753,1,1,0,0,1,0,1.7,1,1,0,0,1-.7.725c.927,3.257.9,6.618,2.855,9.2a.5.5,0,0,1-.4.806H23.684a.5.5,0,0,1-.467-.69,9.671,9.671,0,0,0,.342-1.957c.105-.922.212-2.064.358-3.19.243-1.862.619-4.015,1.5-5.183-4.767-.57-8.428-4.97-10.447-10.446-2.041,5.449-5.713,9.805-10.484,10.33.956,1.146,1.347,3.4,1.594,5.3.147,1.126.253,2.267.359,3.19a9.722,9.722,0,0,0,.342,1.957.5.5,0,0,1-.466.69H.5a.5.5,0,0,1-.4-.806c1.956-2.584,1.922-5.92,2.849-9.184a1,1,0,0,1-.784-.745,1,1,0,0,1,0-1.7A1,1,0,0,1,3.412,16.5V8.656a1.011,1.011,0,0,1-.1.005,1,1,0,0,1-.852-1.517,1,1,0,0,1,1.2-1.2A1,1,0,0,1,5.173,6.8a1.01,1.01,0,0,1-.018.191h8.236a1,1,0,0,1,.719-1.262,1,1,0,0,1,1.555-.182ZM4.017,19.649l-.138.467c-.738,2.707-.862,5.629-2.2,8.147l-.241.416H5.661l-.049-.265c-.065-.385-.12-.821-.17-1.263-.109-.954-.211-2.055-.357-3.174a21.487,21.487,0,0,0-.6-3.115,6.56,6.56,0,0,0-.449-1.17Zm21.966,0-.024.043a6.583,6.583,0,0,0-.449,1.17,21.5,21.5,0,0,0-.6,3.115c-.146,1.119-.248,2.219-.356,3.174-.051.45-.105.885-.17,1.268l-.048.26H28.56l-.242-.416c-1.337-2.52-1.465-5.454-2.2-8.152ZM25.63,7.9H15.971c2,5.316,5.457,9.951,9.659,10.406ZM13.972,7.765H4.417V18.039C8.56,17.56,11.977,12.993,13.972,7.765Z" fill="#333"/><g transform="translate(7.5)"><path d="M9.643,2.576c-.846,0-1.384.944-1.51.944-.111,0-.626-.944-1.511-.944A1.644,1.644,0,0,0,5.013,4.145a1.885,1.885,0,0,0,.351,1.189A8.7,8.7,0,0,0,8.136,7.611,8.548,8.548,0,0,0,10.9,5.334a1.885,1.885,0,0,0,.351-1.189A1.644,1.644,0,0,0,9.643,2.576" fill="#ffa506"/><path d="M4.909,5.634a2.438,2.438,0,0,1-.44-1.518A2.22,2.22,0,0,1,5.13,2.65a2.117,2.117,0,0,1,1.492-.619,1.693,1.693,0,0,1,1.317.526c.074.075.16.019.176-.073a1.99,1.99,0,0,0,.014-.441A2.141,2.141,0,0,0,6.034,0c-1.1,0-1.8,1.229-1.967,1.229C3.922,1.229,3.251,0,2.1,0A2.141,2.141,0,0,0,0,2.043,2.456,2.456,0,0,0,.461,3.592c.574.87,3.082,2.966,3.609,2.966a2.694,2.694,0,0,0,1.014-.552A.079.079,0,0,0,5.1,5.883,1.807,1.807,0,0,1,4.909,5.634Z" fill="#ffa506"/></g></g></svg>
