<svg xmlns="http://www.w3.org/2000/svg" width="32" height="32" viewBox="0 0 32 32"><rect width="32" height="32" fill="#fff" opacity="0"/><g transform="translate(2 2)"><path d="M24.7,9.514h.941a1.7,1.7,0,1,1,0,3.4H23.913l.1-.468a10.175,10.175,0,0,0,.2-2.018v-.9h.5Zm.3.792v.122a10.968,10.968,0,0,1-.135,1.706h.781a.92.92,0,0,0,.152-1.828Z" fill="#333"/><path d="M1.3-9.514h.941a1.7,1.7,0,0,0,1.7-1.7,1.7,1.7,0,0,0-1.7-1.7H.52l.1.468a10.176,10.176,0,0,1,.2,2.018v.9h.5Zm.3-.792v-.122a10.958,10.958,0,0,0-.135-1.706h.781a.92.92,0,0,1,.92.92.92.92,0,0,1-.768.908Z" transform="translate(4.464) rotate(180)" fill="#333"/><path d="M24.253,8.936c.01.085.021.171.043.336a5.453,5.453,0,0,1,.072.669v.523a10.627,10.627,0,0,1-.221,2.178,10.369,10.369,0,0,1-5.184,6.948,10.166,10.166,0,0,1-1.892.8,10.372,10.372,0,0,1-3.124.48h-.156a10.373,10.373,0,0,1-2.917-.467,10.233,10.233,0,0,1-1.892-.8A10.433,10.433,0,0,1,3.643,8.95,1.438,1.438,0,0,1,5.064,7.718H22.818A1.467,1.467,0,0,1,24.253,8.936ZM22.818,8.5H5.065a.658.658,0,0,0-.65.564,9.654,9.654,0,0,0,4.942,9.858,9.459,9.459,0,0,0,1.75.743,9.585,9.585,0,0,0,2.691.432h.15a9.6,9.6,0,0,0,2.891-.444,9.4,9.4,0,0,0,1.75-.743,9.59,9.59,0,0,0,4.8-6.424,9.846,9.846,0,0,0,.2-2.017V9.941c0-.07-.016-.208-.063-.554-.024-.181-.036-.27-.043-.336A.682.682,0,0,0,22.818,8.5Z" fill="#333"/><path d="M12.038,18.475h-.125a10.086,10.086,0,0,1-1.859-.761,8.1,8.1,0,0,1-4.566-7.161h0a.986.986,0,0,1,1.971,0,.911.911,0,0,1,0,.112h0v.075A7.386,7.386,0,0,0,10.4,17.178a8.9,8.9,0,0,0,1.659,1.048h.075a.15.15,0,0,1-.087.25Z" fill="#ffa506"/><path d="M17.54,19.8a10.333,10.333,0,0,1-1,.487c-.274.112.314-.038.027.062l2.408,4.192L20.1,26.509l1.048,1.821c.16.331.72.621.9.3a.986.986,0,0,0-.039-1.023Z" fill="#333"/><path d="M6.624-19.8a10.325,10.325,0,0,0-1-.487c-.274-.112.313.038.027-.062L8.06-24.538l1.123-1.971,1.048-1.821c.16-.331.72-.621.9-.3a.986.986,0,0,1-.039,1.023Z" transform="translate(16.804) rotate(180)" fill="#333"/><path d="M22.9,22.393H5.009c-.659,0-1.193.175-1.193.39s.534.39,1.193.39H22.9c.659,0,1.193-.175,1.193-.39S23.556,22.393,22.9,22.393Z" fill="#333"/><path d="M9.3-.142a2.327,2.327,0,0,1,.176-1.508,2.8,2.8,0,0,0,.379-2.315,2.022,2.022,0,0,0-.806-.96,2.352,2.352,0,0,1,.276.827,4.465,4.465,0,0,1-.4,2.235C8.562-.866,8.912-.378,9.3-.142Z" transform="matrix(-0.97, -0.242, 0.242, -0.97, 19.074, 2.342)" fill="none" stroke="#333" stroke-width="0.5" fill-rule="evenodd"/><path d="M13.976-.142a2.327,2.327,0,0,1,.176-1.508,2.8,2.8,0,0,0,.379-2.315,2.022,2.022,0,0,0-.806-.96A2.351,2.351,0,0,1,14-4.1a4.463,4.463,0,0,1-.4,2.235C13.241-.866,13.59-.378,13.976-.142Z" transform="matrix(-0.97, -0.242, 0.242, -0.97, 28.292, 3.474)" fill="none" stroke="#333" stroke-width="0.5" fill-rule="evenodd"/><path d="M18.654-.142a2.327,2.327,0,0,1,.176-1.508,2.8,2.8,0,0,0,.379-2.315,2.022,2.022,0,0,0-.806-.96,2.353,2.353,0,0,1,.276.827,4.465,4.465,0,0,1-.4,2.235C17.919-.866,18.269-.378,18.654-.142Z" transform="matrix(-0.97, -0.242, 0.242, -0.97, 37.51, 4.606)" fill="none" stroke="#333" stroke-width="0.5" fill-rule="evenodd"/></g></svg>
