<svg xmlns="http://www.w3.org/2000/svg" width="32" height="32" viewBox="0 0 32 32"><rect width="32" height="32" fill="#fff" opacity="0"/><g transform="translate(4 1)"><path d="M6.506,9.469v1.743a2.327,2.327,0,0,1-2.02-2.2A2.39,2.39,0,0,1,7,6.772,2.39,2.39,0,0,1,9.508,9.014h.982A3.325,3.325,0,0,0,7,5.9,3.325,3.325,0,0,0,3.5,9.014a3.263,3.263,0,0,0,3,3.087v.468A3.758,3.758,0,0,1,2.985,9.014,3.819,3.819,0,0,1,7,5.432a3.819,3.819,0,0,1,4.012,3.582h.982A4.754,4.754,0,0,0,7,4.555,4.754,4.754,0,0,0,2,9.014,4.754,4.754,0,0,0,7,13.472h.491V10.346H23c-.258,5.22-5.1,9.4-11,9.4s-10.747-4.177-11-9.4h.5V9.469H0v.438c0,5.76,5.118,10.472,11.507,10.7v5.825h.982V20.61C18.88,20.379,24,15.667,24,9.907V9.469Z" fill="#333"/><path d="M18.494,28.61a2.137,2.137,0,0,0-2.242-1.988H12.491v-.455h-.982v.455H7.762A2.136,2.136,0,0,0,5.52,28.61l-.044.675H18.539Zm-11.969-.2a1.234,1.234,0,0,1,1.237-.91h8.49a1.234,1.234,0,0,1,1.237.91Z" fill="#333"/><path d="M3.284,14.329c1.639,2.219,3.794,4.442,7.943,4.421a8.943,8.943,0,0,0,8.036-4.421Z" fill="#ffa506"/><g transform="translate(5.938 14.714)"><path d="M.059,1.008h1v.877h-1Z" fill="#fff"/><path d="M1.56,1.9h1v.877h-1Z" fill="#fff"/><path d="M5.062,2.349h1v.877h-1Z" fill="#fff"/><path d="M3.561,3.242h1v.877h-1Z" fill="#fff"/></g><path d="M15.493,16.871h-.982V1.429L18.5,0V.877L15.493,2.305Z" fill="#333"/></g></svg>
