<svg xmlns="http://www.w3.org/2000/svg" width="32" height="32" viewBox="0 0 32 32"><rect width="32" height="32" fill="#fff" opacity="0"/><g transform="translate(28 1) rotate(180)"><path d="M11.637-29.268l-.5-.036-1.023.462.056,13.333c0,.208.222.314.509.5.842.3,1.084.282,1.243.238.321-.379.517-.531.514-.763l.508-12.545Z" fill="none" stroke="#333" stroke-width="0.75" fill-rule="evenodd"/><path d="M10.467-13.943a11.5,11.5,0,0,0-2.281,1.892,5.541,5.541,0,0,0-1.429,3.8c0,3.639,2.252,7.491,4.384,7.491h.311c2.134,0,4.384-3.852,4.384-7.491a5.64,5.64,0,0,0-1.422-3.787,10.5,10.5,0,0,0-2.255-1.91C12.6-14.257,10-14.25,10.467-13.943Z" fill="#ffa506"/><path d="M17.8-29.939a.45.45,0,0,0-.251.075l-1.021.653a1.321,1.321,0,0,0-.612,1.128l.822,10.657a1.081,1.081,0,0,0,.808.939l1.187.6v14.83a1,1,0,0,0,.975,1.047h.5c1.859,0,3.109-1.448,3.109-3.6V-14.143a1.06,1.06,0,0,0-.824-1.025l-2.835-1.3v-11.84a1.265,1.265,0,0,0-.677-1.093L18-29.891A.486.486,0,0,0,17.8-29.939Zm.125,12.609a.323.323,0,0,0-.082-.033c-.1-.028-.18-.087-.182-.129l-.824-10.662c0-.04.041-.153.235-.311l.755-.483.741.373a.332.332,0,0,1,.164.264v11.387ZM19.706-.937c-.01,0-.05-.04-.05-.123V-15.453l2.5,1.149a.569.569,0,0,0,.125.038.124.124,0,0,1,.106.123V-3.611c0,1.649-.837,2.675-2.183,2.675Z" fill="#333"/><path d="M3.21-29.682H2.743a.464.464,0,0,0-.2.045l-.912.456A1.246,1.246,0,0,0,.96-28.069L1.47-14c0,.271.2.569.61.889-.136.066-.274.132-.413.19l-.06.031-1.284.806a.741.741,0,0,0-.322.6L.582-.814A.831.831,0,0,0,1.416,0a6.573,6.573,0,0,0,.676-.007.707.707,0,0,0,.275-.072.775.775,0,0,0,.307.072h.6a.859.859,0,0,0,.376-.084A.87.87,0,0,0,4,0c.063,0,.195,0,.536,0a.842.842,0,0,0,.841-.837l.59-10.637a.749.749,0,0,0-.309-.608c-.093-.051-.729-.421-1.427-.867a.386.386,0,0,0-.059-.031c-.09-.043-.186-.086-.278-.133a1.281,1.281,0,0,0,.592-.909l.511-14.04a1.259,1.259,0,0,0-.668-1.118l-.91-.456A.462.462,0,0,0,3.21-29.682Zm-.356.921H3.1l.813.407a.327.327,0,0,1,.158.265L3.562-14.069a2.112,2.112,0,0,1-.575.458,2.364,2.364,0,0,1-.6-.468L1.882-28.1a.317.317,0,0,1,.158-.257ZM2.067-12.089c.343-.152.651-.3.923-.446q.344.188.77.383c.538.34,1.031.637,1.273.778L4.455-.924l-.995,0V-8.8A.461.461,0,0,0,3-9.262a.463.463,0,0,0-.463.462V-.924c-.112.01-.931.01-1.04,0L.932-11.377Z" fill="#333"/></g></svg>
