<svg xmlns="http://www.w3.org/2000/svg" width="32" height="32" viewBox="0 0 32 32"><rect width="32" height="32" fill="#fff" opacity="0"/><g transform="translate(2 1)"><path d="M26.314,12.6a3.138,3.138,0,0,1,1.247,2.734c-.033,3.4-3.594,6.928-6.8,7.475-1.037,1.773-2.341,3.124-3.568,3.429q0,.013,0,.434H8.1v-.215a.721.721,0,0,1-.2-.184c-2.43-.354-4.182-2.833-5.317-6.728a30.5,30.5,0,0,1-1.172-8.874l.021-.372H23.27v1.8A4.4,4.4,0,0,1,26.314,12.6ZM23,12.978l-.518.17V11.083H2.178C1.953,17.1,4.384,25.188,8.213,25.509l.362.03v.276c.053.03.078.045.1.061h7.61v-.369h.395c1.018,0,2.423-1.387,3.486-3.261l.1-.171.194-.026c2.892-.385,6.284-3.681,6.314-6.758a2.351,2.351,0,0,0-.877-2.028A3.608,3.608,0,0,0,23,12.978Zm1.8,2.347c0-.048,0-.085,0-.163.011-.238,0-.272-.089-.341-.161-.121-.708-.089-1.613.154a25.057,25.057,0,0,1-.83,4.2A5.531,5.531,0,0,0,24.8,15.325Zm-3.59,4.616a24.285,24.285,0,0,0,1.135-5.312l.026-.266.257-.075c1.3-.378,2.1-.441,2.562-.1a1,1,0,0,1,.4,1.009c0,.065,0,.094,0,.137-.057,1.95-1.764,4.007-3.823,5.08l-.867.451Z" fill="#333"/><path d="M11.368,24.019h-.126a10.217,10.217,0,0,1-1.882-.771A8.2,8.2,0,0,1,4.737,16h0a1,1,0,1,1,2,0,.922.922,0,0,1,0,.114h0v.076a7.478,7.478,0,0,0,2.981,6.518,9.007,9.007,0,0,0,1.68,1.061h.076a.152.152,0,0,1-.088.253Z" fill="#ffa506"/><path d="M11.064,6.627a3.2,3.2,0,0,1,.569,2.257c.764-.448.925-1.135.258-2.359-1-1.757-1.292-3.173-.871-4.391C9.7,3.19,9.528,4.582,11.064,6.627Zm-.5.312C6.87,2.035,13.089.455,13.089.455c-1.9,1.441-2.237,3.046-.683,5.776,1.844,3.384-2.179,3.69-2.187,3.691S11.887,9.073,10.561,6.939Z" fill="#333"/><path d="M14.808,6.538A3.076,3.076,0,0,1,15.2,8.665c.531-.472.588-1.1-.065-2.088a1.882,1.882,0,0,1-.279-1.042C14.612,5.732,14.58,6.031,14.808,6.538Zm.67-.155c1.757,2.654-1.466,3.274-1.542,3.286,1.011-.708,1.226-1.517.518-2.958-.808-1.793,1.259-1.858,1.264-1.858S14.847,5.26,15.478,6.383Z" fill="#333"/><path d="M7.7,6.538a3.075,3.075,0,0,1,.39,2.127c.531-.472.588-1.1-.065-2.088a1.882,1.882,0,0,1-.279-1.042C7.507,5.732,7.475,6.031,7.7,6.538Zm.91-1.684s-.872.4-.24,1.529C10.13,9.037,6.906,9.657,6.831,9.669c1.011-.708,1.226-1.517.518-2.958C6.54,4.917,8.613,4.854,8.613,4.854Z" fill="#333"/><path d="M.676,27.295c0,.9.5,1.218,1.26,1.218h21.18c.761,0,1.26-.332,1.26-1.218Z" fill="#333"/><path d="M7.5,30H7.105v-.789H18.158V30H7.5Z" fill="#333"/></g></svg>
