<svg xmlns="http://www.w3.org/2000/svg" width="32" height="32" viewBox="0 0 32 32"><rect width="32" height="32" fill="#fff" opacity="0"/><g transform="translate(1 1)"><path d="M14.634,12.274a6.609,6.609,0,1,0,6.609,6.609A6.616,6.616,0,0,0,14.634,12.274Zm0,12.274A5.665,5.665,0,1,1,20.3,18.883,5.671,5.671,0,0,1,14.634,24.548Z" fill="#333"/><path d="M24.076,0a5.187,5.187,0,0,0-.944.09V0H5.665V5.689c-.156-.014-.313-.024-.472-.024a5.193,5.193,0,0,0,0,10.386c.16,0,.316-.01.472-.024V29.268H9.441V27.38H19.827v1.888H23.6V10.361c.156.014.313.024.472.024A5.193,5.193,0,1,0,24.076,0ZM8.5,28.324H6.609V27.38H8.5Zm14.162,0H20.771V27.38h1.888Zm0-1.888H6.609V15.849a5.187,5.187,0,0,0,0-9.983V.944H21.1a5.191,5.191,0,0,0-2.185,3.686,4.719,4.719,0,1,0,.393,2.614,5.212,5.212,0,0,0,3.352,2.94ZM18.411,6.609a3.777,3.777,0,1,1-3.777-3.777A3.781,3.781,0,0,1,18.411,6.609Z" fill="#333"/><circle cx="5.25" cy="5.25" r="5.25" transform="translate(0 5.625)" fill="#fff"/><path d="M5.25,15.375a4.5,4.5,0,1,0-4.5-4.5A4.5,4.5,0,0,0,5.25,15.375Zm0,.75a5.25,5.25,0,1,1,5.25-5.25A5.25,5.25,0,0,1,5.25,16.125Z" fill="#333"/><path d="M4.721,11.417a1.4,1.4,0,0,0-.472-.087,1.416,1.416,0,1,0,1.416,1.416V8.5H7.081V7.553H4.721Zm-.472,1.8a.472.472,0,1,1,.472-.472A.472.472,0,0,1,4.249,13.218Z" fill="#ffa506"/><circle cx="5.488" cy="5.488" r="5.488" transform="translate(18.75 0)" fill="#fff"/><path d="M24.238,10.226A4.738,4.738,0,1,0,19.5,5.488,4.738,4.738,0,0,0,24.238,10.226Zm0,.75a5.488,5.488,0,1,1,5.488-5.488A5.488,5.488,0,0,1,24.238,10.976Z" fill="#333"/><path d="M23.6,5.752a1.4,1.4,0,0,0-.472-.087,1.416,1.416,0,1,0,1.416,1.416V2.832h1.416V1.888H23.6Zm-.472,1.8a.472.472,0,1,1,.472-.472A.473.473,0,0,1,23.131,7.553Z" fill="#ffa506"/></g></svg>
