<svg xmlns="http://www.w3.org/2000/svg" width="32" height="32" viewBox="0 0 32 32"><rect width="32" height="32" fill="#fff" opacity="0"/><g transform="translate(2 1)"><path d="M15.834,29.069l-4.292-3.682h0L8.524,22.8V18.634a.493.493,0,0,0-.987,0V22.8l-7.31,6.27a.493.493,0,0,0,.642.749L4.9,26.362l2.64,1.4v1.677a.493.493,0,0,0,.987,0V27.766l2.64-1.4,4.028,3.455a.493.493,0,0,0,.643-.749Z" fill="#333"/><path d="M5.7,25.673,7.537,24.1v2.55Z" fill="#fff"/><path d="M8.524,26.648V24.1l1.835,1.574Z" fill="#fff"/><path d="M17.414,19.82a20.291,20.291,0,0,1-7.571-4.972A20.289,20.289,0,0,1,4.871,7.277,6.425,6.425,0,0,1,4.835,2.29c-1.36,1.53-1.824,3.779-1.283,6.4A16.174,16.174,0,0,0,8.08,16.611a14.3,14.3,0,0,0,8.841,4.527c.309.028.618.041.925.041a7.425,7.425,0,0,0,4.527-1.308A6.458,6.458,0,0,1,17.414,19.82Zm7.274-3.507A4.473,4.473,0,0,1,23.5,19.568l-.465.465a7.532,7.532,0,0,1-5.188,1.709c-.322,0-.648-.014-.975-.044a14.863,14.863,0,0,1-9.189-4.689A16.73,16.73,0,0,1,3,8.807C2.4,5.871,2.984,3.332,4.658,1.657l.464-.464C6.443-.127,8.652-.36,11.342.537A20.734,20.734,0,0,1,19.08,5.612a22.388,22.388,0,0,1,4.4,6.07.493.493,0,1,1-.891.424,21.393,21.393,0,0,0-4.2-5.8A19.74,19.74,0,0,0,11.03,1.473C8.712.7,6.863.849,5.821,1.89S4.632,4.781,5.4,7.1a19.741,19.741,0,0,0,4.836,7.352,19.74,19.74,0,0,0,7.351,4.836c2.317.772,4.167.625,5.208-.416a3.472,3.472,0,0,0,.9-2.557.493.493,0,1,1,.987,0Z" fill="#333"/><path d="M28.421,9.3l-2.21-2.21a.493.493,0,0,0-.7.7l.116.116L24.583,8.947a.493.493,0,1,0,.7.7L26.327,8.6l1.047,1.047-6.9,6.9a.493.493,0,0,0,.7.7l7.248-7.248a.493.493,0,0,0,0-.7Z" fill="#ffa506"/><path d="M1.524,0A1.524,1.524,0,1,1,0,1.524,1.524,1.524,0,0,1,1.524,0Z" transform="translate(23.952 6.75)" fill="#ffa506" stroke="#ef9300" stroke-width="0.75"/></g></svg>
