<svg xmlns="http://www.w3.org/2000/svg" width="32" height="32" viewBox="0 0 32 32"><rect width="32" height="32" fill="#fff" opacity="0"/><g transform="translate(1 1)"><g transform="translate(15) rotate(180)"><path d="M5.905-1.934a2.905,2.905,0,0,0,.547-.244.28.28,0,0,1,.141-.038.281.281,0,0,1,.244.14.281.281,0,0,1-.1.384,3.47,3.47,0,0,1-.653.292.281.281,0,0,1-.355-.179A.281.281,0,0,1,5.905-1.934Z" fill="#ffa506"/><path d="M7.812-4.945a5.808,5.808,0,0,0-.145-1.275.281.281,0,0,1,.213-.336.283.283,0,0,1,.062-.007.281.281,0,0,1,.274.219,6.37,6.37,0,0,1,.159,1.4,3.964,3.964,0,0,1-.712,2.431.281.281,0,0,1-.394.057.281.281,0,0,1-.057-.394,3.42,3.42,0,0,0,.6-2.094Z" fill="#ffa506"/><path d="M3.751-9.24A4.843,4.843,0,0,0,2.079-6.794a.281.281,0,0,1-.355.179.281.281,0,0,1-.179-.355A5.34,5.34,0,0,1,3.434-9.7a.28.28,0,0,1,.158-.049.281.281,0,0,1,.233.123.281.281,0,0,1-.074.391Z" fill="#333"/><path d="M13.572-4.593A4.787,4.787,0,0,1,10.193-3.3a5.545,5.545,0,0,1-.823-.061,4.521,4.521,0,0,1-1.2,2.068A4.787,4.787,0,0,1,4.793,0,4.787,4.787,0,0,1,1.415-1.293a4.949,4.949,0,0,1-1.4-3.652A7.745,7.745,0,0,1,1.381-9.293a4.658,4.658,0,0,1,2.634-1.975.876.876,0,0,1-.1-.413v-.6a.281.281,0,0,1,.281-.281h.3a1.743,1.743,0,0,0-.115-.42,2.237,2.237,0,0,1-.168-.9,2.239,2.239,0,0,1,.168-.9,1.69,1.69,0,0,0,.132-.7,1.69,1.69,0,0,0-.132-.7,2.24,2.24,0,0,1-.168-.9.281.281,0,0,1,.281-.281.281.281,0,0,1,.281.281,1.691,1.691,0,0,0,.132.7,2.239,2.239,0,0,1,.168.9,2.239,2.239,0,0,1-.168.9,1.691,1.691,0,0,0-.132.7,1.689,1.689,0,0,0,.132.7,2.219,2.219,0,0,1,.155.617h.332a.281.281,0,0,1,.281.281v.6a.875.875,0,0,1-.1.413,3.5,3.5,0,0,1,.421.131,5.433,5.433,0,0,1,3.423-3.429.876.876,0,0,1-.1-.415v-.6a.281.281,0,0,1,.281-.281h.3a1.742,1.742,0,0,0-.115-.42,2.237,2.237,0,0,1-.168-.9.281.281,0,0,1,.281-.281.281.281,0,0,1,.281.281,1.688,1.688,0,0,0,.132.7,2.221,2.221,0,0,1,.155.617h.332a.281.281,0,0,1,.281.281v.6a.877.877,0,0,1-.1.413,4.659,4.659,0,0,1,2.634,1.975,7.746,7.746,0,0,1,1.369,4.348A4.949,4.949,0,0,1,13.572-4.593ZM1.842-8.97A7.17,7.17,0,0,0,.575-4.945,4.4,4.4,0,0,0,1.808-1.7,4.229,4.229,0,0,0,4.793-.562,4.229,4.229,0,0,0,7.779-1.7,4.4,4.4,0,0,0,9.012-4.945,7.17,7.17,0,0,0,7.745-8.97,3.734,3.734,0,0,0,4.793-10.8,3.734,3.734,0,0,0,1.842-8.97Zm3.27-2.711V-12H4.475v.319a.319.319,0,0,0,.319.319A.319.319,0,0,0,5.112-11.681Zm5.4-3.3V-15.3H9.875v.319a.319.319,0,0,0,.319.319A.319.319,0,0,0,10.512-14.981Zm2.633,2.711a3.734,3.734,0,0,0-2.952-1.83A3.259,3.259,0,0,0,8-13.144,6.291,6.291,0,0,0,6.5-10.9a4.355,4.355,0,0,1,.537.358A5.2,5.2,0,0,1,8.834-13a.28.28,0,0,1,.158-.049.281.281,0,0,1,.233.123.281.281,0,0,1-.074.391,4.818,4.818,0,0,0-1.656,2.4,6.166,6.166,0,0,1,.711.848A7.746,7.746,0,0,1,9.575-4.945a6.272,6.272,0,0,1-.083,1.033,5,5,0,0,0,.7.049A4.229,4.229,0,0,0,13.179-5a4.4,4.4,0,0,0,1.233-3.249,7.17,7.17,0,0,0-1.267-4.025Z" fill="#333"/><path d="M13.062-5.813a.281.281,0,0,1-.394.057.281.281,0,0,1-.056-.394,3.42,3.42,0,0,0,.6-2.094,5.812,5.812,0,0,0-.145-1.275.281.281,0,0,1,.212-.336.283.283,0,0,1,.062-.007.281.281,0,0,1,.274.219,6.372,6.372,0,0,1,.159,1.4,3.965,3.965,0,0,1-.713,2.431Z" fill="#ffa506"/><path d="M12.134-4.991a3.468,3.468,0,0,1-.653.292.281.281,0,0,1-.355-.179.281.281,0,0,1,.179-.355,2.9,2.9,0,0,0,.547-.244.28.28,0,0,1,.141-.038.281.281,0,0,1,.243.14.281.281,0,0,1-.1.384Z" fill="#ffa506"/></g><path d="M14.063,27.628a6.155,6.155,0,0,1-.439-1.064,20.123,20.123,0,0,1-.822-8.956,12.59,12.59,0,0,1-2.277-.888c-2.413-1.166-1.991-.977-2.309-.982-.057,0-.038-.012-.067.042a3.023,3.023,0,0,0-.172,1.242c0,5.1,3.512,11.918,6.6,11.918a2.791,2.791,0,0,0,.361-.03A5.769,5.769,0,0,1,14.063,27.628Zm.275-1.294a5.412,5.412,0,0,0,.386.938A5.13,5.13,0,0,0,16.36,29.18a3.534,3.534,0,0,1-1.773.511c-4.066,0-7.361-8.018-7.361-12.668,0-4.264,2.8-.594,6.423,0A19.373,19.373,0,0,0,14.337,26.334Z" fill="#333"/><path d="M15.8,15.188C14.175,20,15.333,27.67,18.278,28.758c2.916,1.078,8.367-4.113,9.977-8.919a3.284,3.284,0,0,0,.237-1.215c-.01-.1-.01-.1-.04-.112-.223-.112-.632-.1-2.037.053a12.542,12.542,0,0,1-3.187.061,6.752,6.752,0,0,1-1.477-.358,8.859,8.859,0,0,1-3.13-2.146c-.307-.3-1.207-1.237-1.3-1.329a3.8,3.8,0,0,0-.857-.712c-.09-.044-.067-.045-.094-.023A2.824,2.824,0,0,0,15.8,15.188Zm-.711-.24c1.481-4.39,3.086,1.2,6.923,2.617s8.425-1.877,6.955,2.513-7.111,10.8-10.948,9.384S13.608,19.338,15.088,14.948Z" fill="#333"/><path d="M10.125,20.346c-.873-.354-1.453-.978-1.3-1.392s.986-.467,1.851-.113,1.453.978,1.3,1.392-.978.467-1.851.09Z" fill="#333"/><path d="M16,17.357c.386-.469,1.491-.136,2.471.74s1.47,1.981,1.043,2.45-1.491.135-2.471-.74S15.609,17.784,16,17.336Z" fill="#ffa506"/><path d="M21.125,26.97c-.167.49-1.2.553-2.315.136s-1.887-1.136-1.72-1.627.886.4,1.991.8,2.21.167,2.044.646Z" fill="#333"/><path d="M24.493,22.549c-1.293,0-2.356-.417-2.377-1.043s1.043-1.157,2.3-1.209,2.356.417,2.377,1.043S25.827,22.476,24.493,22.549Z" fill="#ffa506"/><path d="M22.5,10.451l1.706.9-.326-1.9L25.261,8.1l-1.907-.277L22.5,6.1l-.853,1.729L19.739,8.1l1.38,1.345-.326,1.9Zm-2.7,2.268.516-3.009L18.128,7.579l3.021-.439L22.5,4.4,23.851,7.14l3.021.439L24.686,9.71l.516,3.009L22.5,11.3Z" fill="#333"/><path d="M3.375,23.6l.853.448-.163-.95.69-.673L3.8,22.288l-.427-.864-.427.864-.954.139.69.673-.163.95ZM2.024,24.735l.258-1.5L1.189,22.165,2.7,21.945l.676-1.369.676,1.369,1.511.219L4.468,23.23l.258,1.5-1.351-.71Z" fill="#333"/></g></svg>
