<svg xmlns="http://www.w3.org/2000/svg" width="32" height="32" viewBox="0 0 32 32"><rect width="32" height="32" fill="#fff" opacity="0"/><g transform="translate(3 1)"><path d="M15.758,5a2.5,2.5,0,1,0-2.5-2.5A2.5,2.5,0,0,0,15.758,5Zm0-4a1.5,1.5,0,0,1,.5,2.908V2.5a.5.5,0,1,0-1,0V3.908A1.5,1.5,0,0,1,15.758,1Z" fill="#333"/><path d="M18.275,5.885l-.028,0-.091-.048a.4.4,0,0,0,.135.053Zm-.028,0-.1-.008c-.144-.011-.347-.02-.6-.028-.485-.015-1.126-.023-1.792-.023s-1.307.008-1.792.023c-.25.008-.453.017-.6.028l-.1.008A5.228,5.228,0,0,0,10.508,10.5v18a.752.752,0,0,0,.75.75h9a.752.752,0,0,0,.75-.75v-18A5.228,5.228,0,0,0,18.247,5.882Zm.252-.715a5.979,5.979,0,0,1,3.26,5.333v18a1.5,1.5,0,0,1-1.5,1.5h-9a1.5,1.5,0,0,1-1.5-1.5v-18a5.979,5.979,0,0,1,3.26-5.333A39.708,39.708,0,0,1,18.5,5.167Z" fill="#333"/><rect width="8.25" height="10.5" transform="translate(13.125 13.125)" fill="none" stroke="#333" stroke-width="0.75"/><path d="M19.258,19h-3a.5.5,0,0,0,0,1h3a.5.5,0,0,0,0-1Z" fill="#333"/><path d="M19.258,17h-3a.5.5,0,0,0,0,1h3a.5.5,0,1,0,0-1Z" fill="#333"/><path d="M26.258,2h-6.5a.5.5,0,0,0-.312.891l2.5,2a.5.5,0,1,0,.625-.781L21.183,3h5.075a.5.5,0,0,0,0-1Z" fill="#333"/><path d="M11.758,3a.5.5,0,1,0,0-1c-5.215,0-9,4.206-9,10v2.073a2.059,2.059,0,0,0-1.5,1.894l-.5,7.5a.5.5,0,0,0,.5.533h4a.5.5,0,0,0,.5-.533l-.5-7.5a2.063,2.063,0,0,0-1.5-1.894V12C3.758,6.7,7.048,3,11.758,3Z" fill="#333"/><path d="M5.341,14.759l.951,8.491h-6l.951-8.492c.08-.729.942-1.258,2.049-1.258C4.379,13.5,5.261,14.042,5.341,14.759Z" fill="#ffa506"/></g></svg>
