<svg xmlns="http://www.w3.org/2000/svg" width="32" height="32" viewBox="0 0 32 32"><rect width="32" height="32" fill="#fff" opacity="0"/><g transform="translate(1 1)"><path d="M29.078,25.909H27.039V12.327A10.544,10.544,0,0,0,16.457,1.844a10.709,10.709,0,0,0-1.147.063,1.237,1.237,0,0,0,.118-.522,1.27,1.27,0,0,0-2.54,0A1.237,1.237,0,0,0,13,1.89c-.321-.029-.646-.046-.975-.046A10.544,10.544,0,0,0,1.441,12.327V25.909H.086v.852H29.078Zm-2.9-13.582V25.909H22.6V12.327A10.5,10.5,0,0,0,16.212,2.7c.082,0,.163-.006.246-.006A9.687,9.687,0,0,1,26.178,12.327ZM15.406,3.3v.408H12.99V3.331a9.741,9.741,0,0,1,1.25-.38A9.767,9.767,0,0,1,15.406,3.3ZM13.812,4.56V6.438H10.567V7.29H17.75V6.438H14.672V4.56h1.595v-.9a9.635,9.635,0,0,1,5.477,8.662V25.909H6.736V12.327a9.632,9.632,0,0,1,5.394-8.62V4.56ZM14.158.978a.406.406,0,1,1-.409.406A.408.408,0,0,1,14.158.978ZM2.3,12.327A9.687,9.687,0,0,1,12.022,2.7c.082,0,.164,0,.246.006a10.5,10.5,0,0,0-6.392,9.625V25.909H2.3Z" fill="#333"/><path d="M4.6,28.908a.818.818,0,1,0-.817-.817A.819.819,0,0,0,4.6,28.908Zm0,.75A1.568,1.568,0,1,1,6.17,28.09,1.569,1.569,0,0,1,4.6,29.658Z" fill="#333"/><path d="M23.873,28.908a.818.818,0,1,0-.817-.817A.819.819,0,0,0,23.873,28.908Zm0,.75a1.568,1.568,0,1,1,1.568-1.567A1.569,1.569,0,0,1,23.873,29.658Z" fill="#333"/><g transform="translate(9.375 10.5)"><path d="M8.29,2.417H7.057v-.1h.607V1.043A1.045,1.045,0,0,0,6.62,0H3.13A1.045,1.045,0,0,0,2.086,1.043V2.315h.607v.1H1.46A1.425,1.425,0,0,0,.037,3.84V14.465a1.425,1.425,0,0,0,1.176,1.4l1.745.022H6.791l1.745-.022a1.425,1.425,0,0,0,1.176-1.4V3.84A1.425,1.425,0,0,0,8.29,2.417ZM2.655,1.043A.475.475,0,0,1,3.13.569H6.62a.475.475,0,0,1,.474.474v.7H6.526V1.727a.589.589,0,0,0-.588-.588H3.813a.589.589,0,0,0-.588.588v.019H2.655ZM6.488,2.417H3.262v-.1h.531V1.727a.019.019,0,0,1,.019-.019H5.937a.019.019,0,0,1,.019.019v.588h.531ZM9.144,14.465a.855.855,0,0,1-.854.854H1.46a.855.855,0,0,1-.854-.854V3.84a.855.855,0,0,1,.854-.854H8.29a.855.855,0,0,1,.854.854Z" fill="#333"/><path d="M3.31,4.277a.855.855,0,0,0-.854.854V13.82a.854.854,0,0,0,1.708,0V5.13A.855.855,0,0,0,3.31,4.277Z" fill="#ffa506"/><path d="M6.516,4.277a.855.855,0,0,0-.854.854V13.82a.854.854,0,0,0,1.708,0V5.13A.855.855,0,0,0,6.516,4.277Z" fill="#ffa506"/></g></g></svg>
