<svg xmlns="http://www.w3.org/2000/svg" width="32" height="32" viewBox="0 0 32 32"><rect width="32" height="32" fill="#fff" opacity="0"/><g transform="translate(1 2)"><path d="M10.167,16.813l1.708,1.86,7.809-7.307L18,9.482ZM18.444,8.85l1.9,2.124a.5.5,0,0,1,0,.8L12.3,19.3a.564.564,0,0,1-.864,0l-1.9-2.064a.564.564,0,0,1,0-.864L17.58,8.85a.54.54,0,0,1,.864,0Z" fill="#333"/><path d="M4.69,17.014l7.184,7.8,1.029-.98L5.743,16.06ZM6.156,15.4l7.4,8.04a.468.468,0,0,1,0,.8l-1.26,1.2a.564.564,0,0,1-.864,0l-7.4-8.04a.5.5,0,0,1,0-.8l1.32-1.2a.5.5,0,0,1,.8,0Z" fill="#333"/><path d="M17.1,4.784l7.158,7.778,1.055-.956L18.125,3.8Zm1.467-1.61,7.4,8.04a.5.5,0,0,1,0,.8l-1.32,1.2a.5.5,0,0,1-.8,0l-7.4-8.04a.5.5,0,0,1,0-.8l1.26-1.2a.564.564,0,0,1,.864,0Z" fill="#333"/><path d="M19.828,2.28l7.245,7.747L28.1,9.048,20.854,1.3ZM21.264.642l7.464,7.98a.54.54,0,0,1,0,.864l-1.26,1.2a.468.468,0,0,1-.8,0L19.2,2.706a.54.54,0,0,1,0-.864l1.26-1.2A.468.468,0,0,1,21.264.642Z" fill="#333"/><path d="M1.972,19.62l7.245,7.747,1-.95L3,18.643Zm1.436-1.638,7.464,8.04a.468.468,0,0,1,0,.8l-1.26,1.2a.468.468,0,0,1-.8,0l-7.464-7.98a.54.54,0,0,1,0-.864l1.26-1.2A.468.468,0,0,1,3.408,17.982Z" fill="#333"/><path d="M2.076,22.386a.278.278,0,0,0-.48,0l-.756.72a.324.324,0,0,0,0,.516l4.476,4.8a.278.278,0,0,0,.48,0l.756-.72a.278.278,0,0,0,0-.48Z" fill="#ffa506"/><path d="M29.352,5.586,24.876.786a.278.278,0,0,0-.48,0l-.756.72a.324.324,0,0,0,0,.516l4.476,4.8a.278.278,0,0,0,.48,0l.756-.72a.376.376,0,0,0,0-.552Z" fill="#ffa506"/></g></svg>
