<svg xmlns="http://www.w3.org/2000/svg" width="32" height="32" viewBox="0 0 32 32"><rect width="32" height="32" fill="#fff" opacity="0"/><g transform="translate(1 2)"><path d="M10.816,3.016a2.617,2.617,0,0,0-1.863.772L8.941,3.8h0l-.521.521h0l-.044.044L2.278,7.2a.24.24,0,0,0-.069.048A1.4,1.4,0,0,0,3.2,9.65a1.421,1.421,0,0,0,.265-.025,1.4,1.4,0,0,0,1.378,1.669,1.425,1.425,0,0,0,.265-.025,1.4,1.4,0,0,0,1.378,1.669h0a1.415,1.415,0,0,0,.264-.025,1.418,1.418,0,0,0-.025.265,1.4,1.4,0,0,0,2.4.993.242.242,0,0,0,.046-.065L12.11,8.083l.569-.569a2.635,2.635,0,0,0-1.863-4.5Zm1.158,4.518L8.933,4.493l.179-.179,3.042,3.042ZM3.2,9.166a.92.92,0,0,1-.679-1.542L7.392,5.358,3.853,8.9A.914.914,0,0,1,3.2,9.166Zm1.644,1.644a.92.92,0,0,1-.651-1.571L8.531,4.9l.511.511.791.791L5.5,10.54A.914.914,0,0,1,4.846,10.809Zm1.644,1.644a.92.92,0,0,1-.651-1.571l4.336-4.336,1.3,1.3-4.3,4.3h0l-.039.039A.914.914,0,0,1,6.489,12.453Zm2.267,1.4a.92.92,0,0,1-1.274-1.328l.219-.219,3.534-3.534Z" transform="matrix(-0.259, 0.966, -0.966, -0.259, 18.096, 3.71)" fill="#333"/><path d="M11.906,15.7,8.249,12.044A2.6,2.6,0,0,1,11.906,15.7Z" transform="matrix(-0.259, 0.966, -0.966, -0.259, 26.17, 7.084)" fill="#ffa506"/><path d="M28.233,2.367A6.127,6.127,0,0,0,23.785.632a9.949,9.949,0,0,0-6.88,3.074c-3.42,3.42-4.067,8.364-1.506,11.153l-5.01,5.01a.242.242,0,0,0-.048.07l-.561-.561a.242.242,0,0,0-.253-.057L8.48,19.7l-.005,0-.009,0-.032.017-.006,0a.245.245,0,0,0-.033.027l0,0L2.133,26.015a.242.242,0,0,0,0,.342l2.11,2.11a.242.242,0,0,0,.342,0l6.258-6.258,0,0a.244.244,0,0,0,.027-.032l0,0a.245.245,0,0,0,.018-.034l0-.009,0-.007.378-1.048a.242.242,0,0,0-.057-.253l-.559-.559a.241.241,0,0,0,.07-.048l5.01-5.01a6.167,6.167,0,0,0,4.272,1.566,9.949,9.949,0,0,0,6.88-3.074,10.248,10.248,0,0,0,3.014-5.912A6.37,6.37,0,0,0,28.233,2.367ZM4.414,27.954,2.646,26.186l5.916-5.916,1.768,1.768Zm6.16-6.357L9,20.026l.546-.2,1.223,1.223ZM29.428,7.724a9.764,9.764,0,0,1-2.876,5.629,9.464,9.464,0,0,1-6.538,2.932,5.654,5.654,0,0,1-4.106-1.592c-2.565-2.565-1.964-7.34,1.34-10.644a9.465,9.465,0,0,1,6.538-2.932,5.654,5.654,0,0,1,4.106,1.592A5.9,5.9,0,0,1,29.428,7.724Z" fill="#333" stroke="#333" stroke-width="0.5"/><path d="M14.007,8.263l.537-.524L22.6,16l-.537.524Z" fill="#333"/><path d="M21.22,1.5,21.753.97l7.754,7.855-.534.527Z" fill="#333"/><path d="M14.484,12.354l-.529-.532L25.079.753l.529.532Z" fill="#333"/><path d="M18.753,16.607l-.533-.528L29.39,4.8l.533.528Z" fill="#333"/><path d="M15.75,15.155l-.53-.53L27.84,2l.53.53Z" fill="#333"/><path d="M15.595,5.625l.53-.53,9.546,9.546-.53.53Z" fill="#333"/><path d="M18.105,2.824l.532-.529,9.549,9.612-.532.529Z" fill="#333"/></g></svg>
