<svg xmlns="http://www.w3.org/2000/svg" width="32" height="32" viewBox="0 0 32 32"><rect width="32" height="32" fill="#fff" opacity="0"/><g transform="translate(1 1)"><path d="M7.5,22.605A1.107,1.107,0,0,0,8.605,21.5V19.605H10.5a1.105,1.105,0,1,0,0-2.211H8.605V15.5a1.105,1.105,0,1,0-2.211,0v1.895H4.5a1.105,1.105,0,1,0,0,2.211H6.395V21.5A1.107,1.107,0,0,0,7.5,22.605Z" fill="#ffa506"/><path d="M22.5,11H19V6.5a2.5,2.5,0,1,0-5,0,1.5,1.5,0,1,1-3,0V.5a.5.5,0,0,0-1,0v6a2.5,2.5,0,0,0,5,0,1.5,1.5,0,1,1,3,0v5a.5.5,0,0,0,.5.5h4A6.587,6.587,0,0,1,29,18.5v8.026A2.563,2.563,0,0,1,26.5,29c-1.451,0-2.313-.942-3.4-2.134C21.522,25.144,19.562,23,15,23s-6.508,2.139-8.077,3.858C5.83,28.055,4.968,29,3.5,29A2.607,2.607,0,0,1,1,26.5v-8A6.587,6.587,0,0,1,7.5,12h11L18,11H7.5A7.6,7.6,0,0,0,0,18.5v8A3.6,3.6,0,0,0,3.5,30c1.909,0,3-1.2,4.161-2.467C9.173,25.877,10.886,24,15,24s5.842,1.882,7.36,3.542C23.515,28.806,24.608,30,26.5,30A3.582,3.582,0,0,0,30,26.527V18.5A7.6,7.6,0,0,0,22.5,11Z" fill="#333"/><path d="M25.5,19.211a.711.711,0,1,0-.711-.711A.712.712,0,0,0,25.5,19.211Zm0,.789A1.5,1.5,0,1,1,27,18.5,1.5,1.5,0,0,1,25.5,20Z" fill="#333"/><path d="M22.5,14.79a.711.711,0,1,0,.711.71A.712.712,0,0,0,22.5,14.79Zm0-.79A1.5,1.5,0,1,1,21,15.5,1.5,1.5,0,0,1,22.5,14Z" fill="#333"/><path d="M19.5,17.789a.711.711,0,1,0,.711.711A.712.712,0,0,0,19.5,17.789Zm0-.789A1.5,1.5,0,1,1,18,18.5,1.5,1.5,0,0,1,19.5,17Z" fill="#333"/><path d="M22.5,22.211a.711.711,0,1,0-.711-.711A.712.712,0,0,0,22.5,22.211Zm0,.789A1.5,1.5,0,1,1,24,21.5,1.5,1.5,0,0,1,22.5,23Z" fill="#333"/></g></svg>
