<svg xmlns="http://www.w3.org/2000/svg" width="32" height="32" viewBox="0 0 32 32"><rect width="32" height="32" fill="#fff" opacity="0"/><g transform="translate(1 2)"><path d="M7.828,27.388c.057.027.108.05.158.078H29.118a.111.111,0,0,0,.113-.11V.881A.108.108,0,0,0,29.2.8a.114.114,0,0,0-.081-.034H7.829ZM7.748,0h21.37A.881.881,0,0,1,30,.895V27.356a.881.881,0,0,1-.882.879H7.748c-.4-.336-.689.016-.689-.847V.847C7.059,0,7.347,0,7.748,0Z" fill="#333"/><path d="M12.24,5.181V8.054H24.819V5.181Zm-.769-.769H25.588V8.824H11.471Z" fill="#333"/><path d="M24.507,10.2a1.47,1.47,0,0,1,1.036.426,1.455,1.455,0,0,1,.43,1.032v11.97a1.462,1.462,0,0,1-1.466,1.459H12.552a1.47,1.47,0,0,1-1.036-.426,1.455,1.455,0,0,1-.43-1.032V11.74a1.462,1.462,0,0,1,1.465-1.459Zm-11.952.847a.694.694,0,0,0-.7.689V23.632a.686.686,0,0,0,.2.486.7.7,0,0,0,.494.2H24.507a.693.693,0,0,0,.7-.689V11.662a.686.686,0,0,0-.2-.486.7.7,0,0,0-.491-.2Z" fill="#333"/><path d="M15.882,22.059H14.118V20.294h1.765Z" fill="#ffa506"/><path d="M15.882,18.529H14.118V16.765h1.765Z" fill="#ffa506"/><path d="M15.882,15.038H14.118v-1.8h1.765Z" fill="#ffa506"/><path d="M19.412,22.059H17.647V20.294h1.765Z" fill="#ffa506"/><path d="M19.412,18.529H17.647V16.765h1.765Z" fill="#ffa506"/><path d="M19.412,15H17.647V13.235h1.765Z" fill="#ffa506"/><path d="M22.941,22.059H21.177V20.294h1.765Z" fill="#ffa506"/><path d="M22.941,18.529H21.177V16.765h1.765Z" fill="#ffa506"/><path d="M22.941,15H21.177V13.235h1.765Z" fill="#ffa506"/><path d="M.769.769v26.7H4.525V.769ZM0,0H5.294V28.235H0Z" fill="#333"/></g></svg>
