<svg xmlns="http://www.w3.org/2000/svg" width="30" height="28.839" viewBox="0 0 30 28.839"><g transform="translate(0 -0.161)"><path d="M26.51,28.719H3.49A3.209,3.209,0,0,1,.281,25.51a3.508,3.508,0,0,1,3.22-3.5l11.931-.981L26.5,22a3.527,3.527,0,0,1,3.22,3.513,3.209,3.209,0,0,1-3.209,3.209Z" fill="none" stroke="#333" stroke-width="0.563" fill-rule="evenodd"/><path d="M6.808,21.04A57.639,57.639,0,0,1,15,20.469a57.64,57.64,0,0,1,8.192.571,27.282,27.282,0,0,1,3.327.668,6.3,6.3,0,0,1,1.018.365c-.122,1.186-.515,1.327-1.018,1.469a27.282,27.282,0,0,1-3.327.668A57.638,57.638,0,0,1,15,24.781a57.638,57.638,0,0,1-8.192-.571,27.284,27.284,0,0,1-3.328-.668,6.3,6.3,0,0,1-1.018-.365c.122-1.186.515-1.327,1.018-1.469A27.284,27.284,0,0,1,6.808,21.04Z" fill="#fff" stroke="#333" stroke-width="0.563"/><path d="M16.114-15.58l6.78-1.979a2.342,2.342,0,0,1,.653-.094,2.349,2.349,0,0,1,2.244,1.687.322.322,0,0,1-.213.4l-2.917.851A1.709,1.709,0,0,0,21.5-12.608a.316.316,0,0,1-.215.39l-1.774.518a2.347,2.347,0,0,1,1.231,1.453,2.341,2.341,0,0,1-1.245,2.764,2.349,2.349,0,0,1,1.3,1.68,2.4,2.4,0,0,1-1.72,2.7L9.024-.187a.653.653,0,0,1-.809-.445L7.275-3.868a.649.649,0,0,1,.055-.5.649.649,0,0,1,.39-.312l1.647-.478L9.281-5.2A2.323,2.323,0,0,1,8.162-6.6,2.341,2.341,0,0,1,9.413-9.364c-.044-.021-.089-.043-.132-.067a2.323,2.323,0,0,1-1.119-1.4,2.34,2.34,0,0,1,1.593-2.9L14.135-15Zm4.056,9.9a1.712,1.712,0,0,0-1.676-1.392,1.708,1.708,0,0,0-.477.068L9.235-4.459l.951,3.276,8.709-2.528A1.76,1.76,0,0,0,20.17-5.684ZM7.882-4.044,8.821-.808a.021.021,0,0,0,.02.015h.006l.732-.212L8.628-4.283,7.9-4.07A.021.021,0,0,0,7.882-4.044Zm.887-2.728a1.7,1.7,0,0,0,.817,1.019,1.7,1.7,0,0,0,.819.212,1.708,1.708,0,0,0,.478-.069l8.086-2.348a1.708,1.708,0,0,0,1.163-2.114A1.714,1.714,0,0,0,18.494-11.3a1.709,1.709,0,0,0-.477.068L9.931-8.886A1.708,1.708,0,0,0,8.769-6.772Zm0-4.231a1.7,1.7,0,0,0,.817,1.019,1.693,1.693,0,0,0,1.3.143l9.941-2.9a2.344,2.344,0,0,1,1.661-2.577l2.588-.755a1.715,1.715,0,0,0-1.525-.945,1.708,1.708,0,0,0-.476.068L9.931-13.117A1.708,1.708,0,0,0,8.769-11Zm6-4.183.716-.209Z" transform="translate(33.051) rotate(180)" fill="#333"/><path d="M25.224-22.341a1.127,1.127,0,0,0-.759-.278,1.128,1.128,0,0,0-.759.278,1.743,1.743,0,0,1-1.127.4,1.744,1.744,0,0,1-1.127-.4,1.129,1.129,0,0,0-.76-.278,1.129,1.129,0,0,0-.76.278,1.744,1.744,0,0,1-1.127.4,1.744,1.744,0,0,1-1.127-.4,1.129,1.129,0,0,0-.76-.278,4.369,4.369,0,0,0-1.259.556,1.8,1.8,0,0,1-.746.115,1.751,1.751,0,0,1-1.009-.392,1.129,1.129,0,0,0-.759-.278,1.13,1.13,0,0,0-.76.278,1.746,1.746,0,0,1-1.127.4,1.747,1.747,0,0,1-1.128-.4,1.132,1.132,0,0,0-.761-.278,1.132,1.132,0,0,0-.761.278,1.747,1.747,0,0,1-1.128.4.316.316,0,0,1-.316-.316.316.316,0,0,1,.316-.316,1.132,1.132,0,0,0,.761-.278,1.747,1.747,0,0,1,1.128-.4,1.747,1.747,0,0,1,1.128.4,1.132,1.132,0,0,0,.761.278,1.13,1.13,0,0,0,.76-.278,1.745,1.745,0,0,1,1.127-.4,1.743,1.743,0,0,1,1.127.4,1.129,1.129,0,0,0,.759.278,1.13,1.13,0,0,0,.76-.278,1.744,1.744,0,0,1,1.127-.4,1.744,1.744,0,0,1,1.127.4,1.13,1.13,0,0,0,.76.278,1.13,1.13,0,0,0,.76-.278,1.744,1.744,0,0,1,1.127-.4,1.744,1.744,0,0,1,1.127.4,1.13,1.13,0,0,0,.76.278,1.128,1.128,0,0,0,.759-.278,1.743,1.743,0,0,1,1.127-.4,1.742,1.742,0,0,1,1.126.4,1.127,1.127,0,0,0,.759.278.316.316,0,0,1,.316.316C26.666-22.086,25.471-22.164,25.224-22.341Z" transform="translate(33.832) rotate(180)" fill="#ffa506"/><path d="M18.391-23.25l-.022,6.238-1.754.512v-6.156Z" transform="translate(35.005) rotate(180)" fill="#ffa506"/></g></svg>
