<svg xmlns="http://www.w3.org/2000/svg" width="32" height="32" viewBox="0 0 32 32"><rect width="32" height="32" fill="#fff" opacity="0"/><g transform="translate(1 1)"><path d="M0,0V29.952H29.143V0ZM28.757,29.143H.81V.81H28.333V29.143Z" fill="#333"/><path d="M15.174,7.884a9.646,9.646,0,0,0-9.283,7.075H3.863v5.108H5.891A9.628,9.628,0,1,0,15.174,7.884ZM5.8,19.774H4.156V15.253H5.81c-.015.063-.026.125-.039.188a9.533,9.533,0,0,0-.168,3.13A8.7,8.7,0,0,0,5.8,19.774Zm9.37,6.526a8.786,8.786,0,1,1,8.786-8.786A8.8,8.8,0,0,1,15.174,26.3Z" fill="#333"/><path d="M15.174,11.69A5.823,5.823,0,1,0,21,17.514,5.831,5.831,0,0,0,15.174,11.69Zm0-.857a6.68,6.68,0,1,1-6.681,6.681A6.688,6.688,0,0,1,15.174,10.833Z" fill="#333"/><path d="M13.713,18.58a.855.855,0,0,1-.839-.683,1.738,1.738,0,1,1,1.014-1.014.857.857,0,0,1-.175,1.7Z" fill="#ffa506"/><path d="M15.791,12.653s4.333.338,4.333,5.778C20.124,18.431,18.988,14.141,15.791,12.653Z" fill="#ffa506"/><rect width="24.286" height="4.048" transform="translate(2.429 2.429)" fill="#ffa506"/><path d="M22.512,4.352H24.6a.321.321,0,0,0,0-.642H22.512a.321.321,0,0,0,0,.642Z" fill="#fff"/><path d="M22.512,5.227H24.6a.321.321,0,0,0,0-.642H22.512a.321.321,0,0,0,0,.642Z" fill="#fff"/><path d="M4.552,5.215a.722.722,0,1,0-.723-.722A.722.722,0,0,0,4.552,5.215Z" fill="#fff"/><path d="M7.852,5.207a.722.722,0,1,0-.818-.612A.723.723,0,0,0,7.852,5.207Z" fill="#fff"/><path d="M11.231,5.156a.722.722,0,1,0-.948-.379A.723.723,0,0,0,11.231,5.156Z" fill="#fff"/></g></svg>
