<svg xmlns="http://www.w3.org/2000/svg" width="32" height="32" viewBox="0 0 32 32"><rect width="32" height="32" fill="#fff" opacity="0"/><g transform="translate(1 1)"><path d="M.283,0A.349.349,0,0,0,0,.35v29.3A.349.349,0,0,0,.349,30h29.3A.349.349,0,0,0,30,29.651V.35A.349.349,0,0,0,29.651,0H.349A.349.349,0,0,0,.283,0ZM.7.7H29.3V29.3H.7Zm7.762,1.4a.7.7,0,1,0,.7.7A.7.7,0,0,0,8.459,2.094Zm2.791,0a.7.7,0,1,0,.7.7A.7.7,0,0,0,11.25,2.094Zm2.791,0a.7.7,0,1,0,.7.7A.7.7,0,0,0,14.041,2.094Zm10.2,6.279a.349.349,0,0,0-.2.12L22.3,10.586a.352.352,0,1,0,.545.447l1.123-1.352v3.924a.349.349,0,1,0,.7,0V9.681l1.123,1.352a.352.352,0,1,0,.545-.447L24.587,8.493A.349.349,0,0,0,24.238,8.373Zm.033,7.663a.349.349,0,0,0-.305.36v3.913l-1.123-1.352a.353.353,0,1,0-.545.447L24.041,21.5a.349.349,0,0,0,.545,0L26.331,19.4a.352.352,0,1,0-.545-.447l-1.123,1.352V16.4a.349.349,0,0,0-.392-.36Z" fill="#333"/><path d="M19.167,4.167V30H3.333V4.167ZM18.333,5H4.167V29.167H18.333Z" fill="#333"/><path d="M9.774,11.892a2.1,2.1,0,0,1,0-2.951,2.083,2.083,0,0,1,3.559,1.476,2.087,2.087,0,0,1-3.559,1.476Z" fill="#ffa506"/><path d="M6.855,21.729a.736.736,0,0,0,.879,0,.569.569,0,0,0,.188-.479V15.833a.164.164,0,0,1,.126-.167.548.548,0,0,1,.419,0,.164.164,0,0,1,.126.167V28.292a.813.813,0,0,0,.272.625.967.967,0,0,0,1.3,0,.813.813,0,0,0,.272-.625V20.666A.258.258,0,0,1,10.6,20.4a.8.8,0,0,1,.251-.062.639.639,0,0,1,.23.063.262.262,0,0,1,.147.271v7.625a.813.813,0,0,0,.272.625.927.927,0,0,0,.649.25.908.908,0,0,0,.67-.25.845.845,0,0,0,.251-.625l.042-12.458a.164.164,0,0,1,.126-.167.548.548,0,0,1,.419,0,.164.164,0,0,1,.126.167V21.25a.569.569,0,0,0,.188.479.674.674,0,0,0,.838,0A.569.569,0,0,0,15,21.25V15.5a2.259,2.259,0,0,0-.565-1.5,1.9,1.9,0,0,0-1.528-.667h-4.4a1.558,1.558,0,0,0-1.4.667,2.664,2.664,0,0,0-.44,1.5v5.75A.569.569,0,0,0,6.855,21.729Z" fill="#ffa506"/></g></svg>
