<svg xmlns="http://www.w3.org/2000/svg" width="32" height="32" viewBox="0 0 32 32"><rect width="32" height="32" fill="#fff" opacity="0"/><g transform="translate(1 1)"><path d="M8.165,28.864,1.5,22.14,3.967,19.5l7.283,7.151C9.8,27.6,8.943,28.308,8.165,28.864Z" fill="#ffa506"/><path d="M28.382,20.31a5.68,5.68,0,0,0-5.441-1.5l-.75-.688A2.547,2.547,0,0,0,21.878,17a2.166,2.166,0,0,0-1.939-1.063,2.376,2.376,0,0,0-.625-1.625,2.171,2.171,0,0,0-1.563-.625,2.707,2.707,0,0,0-.688-1.626,2.169,2.169,0,0,0-1.376-.625,2.479,2.479,0,0,0-.25-1.5A2.226,2.226,0,0,0,13.5,8.869a1.22,1.22,0,0,0-.5.063L11.185,7.119a5.676,5.676,0,0,0-1.5-5.439A5.567,5.567,0,0,0,4.306.179c-.25,0-.375.188-.438.438a.634.634,0,0,0,.188.625L6.87,4.055,4.056,6.868,1.18,3.993a.5.5,0,0,0-.563-.188.606.606,0,0,0-.438.5,5.564,5.564,0,0,0,1.5,5.377,5.68,5.68,0,0,0,5.44,1.5l.5.5a2.275,2.275,0,0,0-.875,1.438,8.754,8.754,0,0,1-.625,1.938,8.13,8.13,0,0,0-1.188,3.376q7.1,7.625,7.629,7.5a14.094,14.094,0,0,0,2.064-.813,10.861,10.861,0,0,0,3.94-2.5l.25.25A5.736,5.736,0,0,0,24.317,30a5.207,5.207,0,0,0,1.376-.188.755.755,0,0,0,.438-.438.634.634,0,0,0-.188-.625l-2.814-2.813,2.814-2.813,2.814,2.813a.6.6,0,0,0,.625.188.755.755,0,0,0,.438-.438A5.682,5.682,0,0,0,28.382,20.31Z" fill="#333"/><path d="M8.746,11.307H8.6L7.435,10.276c-.094-.093-.152-.106-.169-.094l-.1.046A4.819,4.819,0,0,1,2.29,9.009,4.926,4.926,0,0,1,.868,5.764l-.056-1,.7.717,2.31,2.372a.23.23,0,0,0,.345,0L7.856,4.165a.23.23,0,0,0,0-.345L4.9.867h.905a4.862,4.862,0,0,1,3.267,1.36,4.753,4.753,0,0,1,1.162,4.92.347.347,0,0,0,.026.269l2.079,2.078-.953.953-.1.07a14.761,14.761,0,0,1-2.277.7A.406.406,0,0,1,8.746,11.307Zm.328-.141a.26.26,0,0,1-.117.068h.008l.048-.012A.642.642,0,0,0,9.074,11.166Z" fill="#fff"/><path d="M12.655,24.973l-.125.073L6.05,18.567,6,18.422a5.875,5.875,0,0,1,1.029-2.9,7.786,7.786,0,0,0,.788-2.25,1.806,1.806,0,0,1,1.322-1.394,9.647,9.647,0,0,0,2.681-.9l.036-.035.827-.827a1.183,1.183,0,1,1,1.641,1.7l-.25.25a.431.431,0,0,0,.61.61,1.16,1.16,0,1,1,1.641,1.641.49.49,0,0,0-.133.3.382.382,0,0,0,.133.305.417.417,0,0,0,.61,0,1.169,1.169,0,0,1,1.641,0,1.1,1.1,0,0,1,0,1.641.431.431,0,0,0,.61.61,1.183,1.183,0,1,1,1.641,1.7L18.071,21.63a10.412,10.412,0,0,1-3.818,2.481A15.549,15.549,0,0,0,12.655,24.973Z" fill="#fff"/><path d="M26.182,22.141a.232.232,0,0,0-.349,0l-3.689,3.689a.23.23,0,0,0,0,.345l3.008,3.007-.98-.054A4.928,4.928,0,0,1,20.925,27.7a4.753,4.753,0,0,1-1.162-4.92.347.347,0,0,0-.026-.269l-.766-.765,2.266-2.266a.74.74,0,0,0,.18-.215l.233-.465.931.931c.077.077.135.09.152.078l.085-.042a4.8,4.8,0,0,1,4.953,1.152,4.925,4.925,0,0,1,1.422,3.245l.053.961Z" fill="#fff"/></g></svg>
