<svg xmlns="http://www.w3.org/2000/svg" width="32" height="32" viewBox="0 0 32 32"><rect width="32" height="32" fill="#fff" opacity="0"/><g transform="translate(1 2)"><path d="M26.7,22.464a9,9,0,0,1,2.423-1.858l.734-.366-.725-.383a11.807,11.807,0,0,0-1.409-.62,12.836,12.836,0,0,0,1.752-1.99l.3-.446-.506-.184a13.487,13.487,0,0,0-6.243-.526,13.5,13.5,0,0,0,1.429-6.1l-.019-.538-.518.148A13.033,13.033,0,0,0,17.6,13.987c-.94,1.294-2.2,2.715-2.51,3.962-.31-1.235-1.564-2.667-2.506-3.962-.07-.1,0-.418-.967-1.141A13.49,13.49,0,0,0,6.256,9.6l-.518-.148-.019.538A13.644,13.644,0,0,0,6.9,15.579l.765-.35A13.065,13.065,0,0,1,6.572,10.6a12.1,12.1,0,0,1,5.33,3.879,11.423,11.423,0,0,1,1.915,4.977c.032.215.057.418.076.6A12.528,12.528,0,0,0,8.6,16.446a13.029,13.029,0,0,0-7.695.172L.4,16.8l.3.446A13.03,13.03,0,0,0,6.825,21.91a11.07,11.07,0,0,0,3.418.515,21.116,21.116,0,0,0,4.847-.638,21.111,21.111,0,0,0,4.847.638,11.07,11.07,0,0,0,3.418-.515A11.416,11.416,0,0,0,27,19.873c.368.124.712.254,1.029.39A10.046,10.046,0,0,0,25.815,22.2l-.214.265.214.265a10.056,10.056,0,0,0,2.215,1.936,31.049,31.049,0,0,1-11.249,1.779A45.829,45.829,0,0,1,5.5,25.174c-2.4-.749-3.838-1.763-3.838-2.71,0-.685.733-1.275,1.347-1.648L2.572,20.1C1.41,20.8.82,21.6.82,22.464c0,1.4,1.531,2.61,4.429,3.514a46.623,46.623,0,0,0,11.532,1.308c5.111,0,9.73-.828,12.355-2.215l.725-.383-.734-.366A9.015,9.015,0,0,1,26.7,22.464Zm-8.425-7.983a12.128,12.128,0,0,1,5.33-3.879,12.431,12.431,0,0,1-1.689,5.74q-.17.048-.34.1a12.528,12.528,0,0,0-5.289,3.613A11.759,11.759,0,0,1,18.279,14.481Z" fill="#333"/><path d="M6.425,21.437A13.539,13.539,0,0,1,.47,17.125c-.1-.128-.221-.279-.349-.452.205-.065.389-.118.548-.161a13.505,13.505,0,0,1,7.352.012,13.537,13.537,0,0,1,5.954,4.312c.1.128.221.279.349.452-.205.065-.39.118-.548.16A13.538,13.538,0,0,1,6.425,21.437Z" fill="#ffa506" stroke="#ffa506" stroke-width="0.769"/><path d="M23.656,21.444a13.353,13.353,0,0,1-7.252.011c-.158-.043-.342-.1-.548-.161.128-.173.246-.324.348-.452a13.322,13.322,0,0,1,5.874-4.253,13.353,13.353,0,0,1,7.252-.011c.158.043.343.1.548.161-.128.173-.245.324-.348.452A13.32,13.32,0,0,1,23.656,21.444Z" fill="#ffa506" stroke="#ffa506" stroke-width="0.769"/><path d="M17.417,19.891V14.863a4.9,4.9,0,0,0,3.159-4.441c0-1.927-1.633-3.322-2.906-4.441a7.964,7.964,0,0,1-1.2-1.159,1.012,1.012,0,0,0-1-.947.988.988,0,0,1-.98,0,1.012,1.012,0,0,0-1,.947,7.925,7.925,0,0,1-1.2,1.159C10.976,7.1,9.343,8.5,9.376,10.422c.049,2.629,1.478,3.535,2.955,4.245l.188.065a1.778,1.778,0,0,0,0,.2v4.9c-1.878.147-3.837.253-3.967,1.355a1.584,1.584,0,0,0,.392,1.241c.816.988,4.016,1.151,5.331,1.159a1.086,1.086,0,0,1,1.461,0c1.323,0,4.474-.171,5.331-1.159a1.584,1.584,0,0,0,.392-1.208C21.319,20.079,19.343,20.005,17.417,19.891ZM14.968,7.8a3.731,3.731,0,1,0,.024.008Zm1.306,5.249s-.474-.18-.71-.237l-.6.612-.58-.62a2.722,2.722,0,0,0-.661.253c-1.633-.743-2.3-1.069-2.326-2.686,0-.947,1.208-2,2.188-2.841a10.612,10.612,0,0,0,1.4-1.339,10.516,10.516,0,0,0,1.4,1.347c.98.816,2.2,1.886,2.188,2.833,0,1.567-.653,1.91-2.18,2.62Z" fill="#fff"/><path d="M21.84,21.176a1.966,1.966,0,0,1-.484,1.5c-.8.926-3.137,1.292-5.621,1.292h-.149l-.11-.1a.7.7,0,0,0-.944,0l-.111.1h-.15c-2.576-.016-4.857-.37-5.615-1.288a1.968,1.968,0,0,1-.487-1.542c.138-1.168,1.1-1.439,3.965-1.666V15C10,13.968,9.036,12.82,8.991,10.428c-.026-1.521.774-2.729,2.374-4.161.188-.168.336-.3.68-.59a7.538,7.538,0,0,0,1.068-1.016,1.4,1.4,0,0,1,1.37-1.171h.1l.09.051a.6.6,0,0,0,.6,0l.09-.051h.1a1.4,1.4,0,0,1,1.37,1.171,7.7,7.7,0,0,0,1.085,1.031c.439.386.521.458.718.639,1.541,1.412,2.319,2.6,2.319,4.1A5.045,5.045,0,0,1,17.8,15.1v4.429C20.72,19.706,21.693,19.969,21.84,21.176Zm-1.062.991a1.2,1.2,0,0,0,.3-.906c-.074-.6-.958-.826-3.467-.973l-.064,0-.15-.009-.362-.021V14.623l.215-.106c1.871-.918,2.906-2.1,2.944-4.1,0-1.215-.674-2.245-2.069-3.524-.191-.175-.272-.247-.689-.614a8.349,8.349,0,0,1-1.258-1.215l-.081-.1-.008-.126a.628.628,0,0,0-.54-.581,1.373,1.373,0,0,1-1.141,0,.628.628,0,0,0-.54.581l-.008.126-.081.1a8.243,8.243,0,0,1-1.245,1.2c-.326.279-.471.405-.654.568C10.431,8.136,9.739,9.18,9.76,10.415c.038,2.065.821,2.984,2.7,3.889l.461.16-.016.289a1.654,1.654,0,0,0,0,.175v5.254l-.355.028-.222.017c-2.451.189-3.325.423-3.393,1a1.208,1.208,0,0,0,.306.951c.538.651,2.66.992,4.9,1.018a1.471,1.471,0,0,1,1.731,0C18.045,23.182,20.2,22.832,20.778,22.166ZM17.752,10.25a2.834,2.834,0,1,1-2.777-2.834l.053.009A2.834,2.834,0,0,1,17.752,10.25Zm-4.729-.819a2.066,2.066,0,1,0,1.957-1.237l-.047-.008A2.064,2.064,0,0,0,13.024,9.431Zm5.168.935c.01-.611-.645-1.36-2.043-2.525a10.912,10.912,0,0,1-1.165-1.074,10.888,10.888,0,0,1-1.145,1.057c-1.448,1.243-2.054,1.937-2.054,2.543.018,1.214.259,1.493,1.935,2.265a3.1,3.1,0,0,1,.579-.2l.218-.052.457.489.467-.48.213.051c.085.021.193.053.321.1l.071.024.211.074C17.935,11.852,18.191,11.578,18.191,10.366ZM13.91,13.4l-.168.091-.174-.079c-2.068-.941-2.527-1.4-2.552-3.036,0-.95.658-1.7,2.332-3.142a10.231,10.231,0,0,0,1.345-1.29l.291-.335.29.335a10.165,10.165,0,0,0,1.359,1.3C18.256,8.6,18.977,9.42,18.96,10.373c0,1.583-.462,2.066-2.4,2.969l-.27.126-.152-.058c-.08-.03-.207-.077-.341-.123l-.065-.022-.054-.018-.716.735-.694-.743A2.336,2.336,0,0,0,13.91,13.4Z" fill="#333"/><ellipse cx="1" cy="2.449" rx="1" ry="2.449" transform="translate(13.992 0.749)" fill="#333"/></g></svg>
