<svg xmlns="http://www.w3.org/2000/svg" width="32" height="32" viewBox="0 0 32 32"><rect width="32" height="32" fill="#fff" opacity="0"/><g transform="translate(6 1)"><path d="M12.439,23.471h-5.4a.9.9,0,1,0,0,1.8h5.4a.9.9,0,1,0,0-1.8Zm0,2.7h-5.4a.9.9,0,1,0,0,1.8,1.8,1.8,0,0,0,1.8,1.8h1.8a1.8,1.8,0,0,0,1.8-1.8.9.9,0,1,0,0-1.8Z" fill="#ffa506"/><path d="M.76,7.531A9.371,9.371,0,0,1,9.734.591a9.371,9.371,0,0,1,4.872,17.334v2.844a2.167,2.167,0,0,1-2.167,2.167h-5.4a2.167,2.167,0,0,1-2.167-2.167V17.925A9.372,9.372,0,0,1,.76,7.531Zm.707.19A8.64,8.64,0,0,0,5.42,17.4l.18.106v3.26A1.435,1.435,0,0,0,7.036,22.2h5.4a1.435,1.435,0,0,0,1.435-1.435V17.51l.18-.106A8.64,8.64,0,0,0,9.737,1.323,8.64,8.64,0,0,0,1.467,7.721Z" fill="#333"/><path d="M9.1,11.646,10.353,7.26,6.145,12.605h4.182L9.075,16.981l4.191-5.335Zm1.18-1.463h-.209l.152.2-.152.53h.552l.152.2.057-.2h3.942L7.346,20.368l1.8-6.3h.209l-.152-.2.152-.531H8.8l-.152-.2-.058.2H4.638L12.08,3.884Z" fill="#333"/></g></svg>
