<svg xmlns="http://www.w3.org/2000/svg" width="32" height="32" viewBox="0 0 32 32"><rect width="32" height="32" fill="#fff" opacity="0"/><g transform="translate(1 4)"><g transform="translate(0 5.385)"><path d="M15.365.619a1.8,1.8,0,0,1,1.647,1.17h0l2.61,5.4a.451.451,0,0,1,.056.113,3.249,3.249,0,0,1,1,2.368h0v5.385a.449.449,0,0,1-.447.451H18.9v2.707a.449.449,0,0,1-.447.451H14.876a.449.449,0,0,1-.446-.451h0V15.506H6.391v2.707a.449.449,0,0,1-.447.451H2.372a.449.449,0,0,1-.447-.451h0V15.506H.586a.449.449,0,0,1-.447-.451h0V9.67a3.239,3.239,0,0,1,1-2.354A.453.453,0,0,1,1.2,7.189h0L3.837,1.747A1.754,1.754,0,0,1,5.456.619h9.909Zm2.275,6.766H3.181A2.208,2.208,0,0,0,1.032,9.67h0V14.6H19.789V9.67a2.208,2.208,0,0,0-2.149-2.284ZM15.365,1.522H5.456a1.076,1.076,0,0,0-.809.578q-.006.021-.014.042h0L2.484,6.568a2.91,2.91,0,0,1,.7-.085H17.639a2.91,2.91,0,0,1,.7.085h0L16.188,2.142c-.005-.014-.01-.028-.014-.042a1.076,1.076,0,0,0-.809-.578Z" fill="#333"/><path d="M2.372,9.19V12.8H5.135a1.807,1.807,0,0,0,0-3.609H2.372Z" fill="#ffa506"/><path d="M15.686,9.19a1.807,1.807,0,0,0,0,3.609h2.763V9.19H15.686Z" fill="#ffa506"/><path d="M2.818,15.506H5.5v2.255H2.818Z" fill="#fff"/><path d="M15.323,15.506H18v2.255h-2.68Z" fill="#fff"/></g><path d="M27.45,11.139H25.772V9.31a4.552,4.552,0,1,0-.9,0v1.829H23.287a1.524,1.524,0,0,0-1.517,1.535v.686A1.524,1.524,0,0,0,23.287,14.9h1.582v8.036H22.9a.457.457,0,0,0,0,.915h4.841a.457.457,0,0,0,0-.915H25.772V14.9H27.45a1.524,1.524,0,0,0,1.517-1.535v-.686A1.5,1.5,0,0,0,27.45,11.139ZM25.385.882A3.756,3.756,0,0,1,29.1,4.639a3.676,3.676,0,0,1-.807,2.319L23.093,1.7A3.578,3.578,0,0,1,25.385.882ZM21.673,4.639a3.676,3.676,0,0,1,.807-2.319l5.2,5.259a3.771,3.771,0,0,1-2.292.817A3.714,3.714,0,0,1,21.673,4.639ZM28.1,13.36a.651.651,0,0,1-.646.653H23.319a.651.651,0,0,1-.646-.653v-.686a.651.651,0,0,1,.646-.653H27.45a.651.651,0,0,1,.646.653Z" fill="#333"/><circle cx="3.846" cy="3.846" r="3.846" transform="translate(21.538 0.769)" fill="#fff"/><path d="M24.867,4.357H25.2a1.3,1.3,0,0,0,.715-.155.544.544,0,0,0,.23-.486.5.5,0,0,0-.235-.467,1.481,1.481,0,0,0-.729-.139h-.309Zm0,.8V6.923H23.846V2.308h1.4A2.48,2.48,0,0,1,26.7,2.65a1.2,1.2,0,0,1,.471,1.04,1.189,1.189,0,0,1-.234.725,1.538,1.538,0,0,1-.662.5q1.087,1.556,1.416,2.011H26.559L25.41,5.152Z" fill="#333"/></g></svg>
