<svg xmlns="http://www.w3.org/2000/svg" width="32" height="32" viewBox="0 0 32 32"><rect width="32" height="32" fill="#fff" opacity="0"/><g transform="translate(1 4)"><path d="M10.08,21.029a2.133,2.133,0,1,0,4.266-.017,2.205,2.205,0,0,0-.643-1.55,2.127,2.127,0,0,0-1.522-.626A2.154,2.154,0,0,0,10.08,21.029Zm2.092-2.942a2.877,2.877,0,0,1,2.061.845,2.955,2.955,0,0,1,.863,2.077,2.884,2.884,0,1,1-2.924-2.922Z" fill="#333"/><path d="M27.108,14.636H11L8.285.613H30.27ZM29.332,1.363H9.194l2.422,12.523H26.508Z" fill="#333"/><path d="M22.135,21.029a2.133,2.133,0,1,0,4.266-.017,2.205,2.205,0,0,0-.643-1.55,2.127,2.127,0,0,0-1.522-.626A2.154,2.154,0,0,0,22.135,21.029Zm2.092-2.942a2.877,2.877,0,0,1,2.062.845,2.955,2.955,0,0,1,.863,2.077,2.884,2.884,0,1,1-2.924-2.922Z" fill="#333"/><path d="M6.707,0H.185V.557H5.767l3.694,16.2H27.6v-.732H10.286Z" fill="#333"/><path d="M12.886,2.783H11.568l.879,9.739h1.332Z" fill="#ffa506"/><path d="M16.867,2.783H15.535l.892,9.739h1.318Z" fill="#ffa506"/><path d="M20.835,2.783H19.517l.879,9.739h1.318Z" fill="#ffa506"/><path d="M24.8,2.783H23.485l.879,9.739H25.7Z" fill="#ffa506"/></g></svg>
