<svg xmlns="http://www.w3.org/2000/svg" width="32" height="32" viewBox="0 0 32 32"><rect width="32" height="32" fill="#fff" opacity="0"/><g transform="translate(0 3)"><g transform="translate(32) rotate(180)"><path d="M31.154-21.009a.753.753,0,0,0,.186-.46v-5.356a.792.792,0,0,0-.841-.741H1.478a.792.792,0,0,0-.841.741v5.351a.7.7,0,0,0,.178.463c.208.233.3.208.843-.011.211-.085.367-.154,1.044-.457,1.4-.629,2.335-1.024,3.518-1.466a28.176,28.176,0,0,1,9.768-2.024q.3,0,.6.01a29.186,29.186,0,0,1,9.1,2.014c1.189.441,2.12.831,3.558,1.465.673.3.846.372,1.061.457a3.205,3.205,0,0,0,.34.119C30.871-20.845,31-20.839,31.154-21.009Zm-1.605-1.158c-1.45-.639-2.393-1.034-3.6-1.482a29.894,29.894,0,0,0-9.337-2.06q-.315-.01-.625-.01a28.885,28.885,0,0,0-10.03,2.071c-1.2.449-2.144.849-3.562,1.484-.654.293-.815.364-1.009.442v-5.1c0,.029.025.009.091.009H30.5c.067,0,.091.019.091-.009v5.107C30.382-21.8,30.21-21.876,29.549-22.167Z" fill="#333"/><path d="M30.483-16.689a3.736,3.736,0,0,1-2.067-.572,2.73,2.73,0,0,0-1.554-.439,2.731,2.731,0,0,0-1.554.439,3.737,3.737,0,0,1-2.067.572,3.735,3.735,0,0,1-2.067-.572A2.73,2.73,0,0,0,19.62-17.7a2.731,2.731,0,0,0-1.554.439A3.735,3.735,0,0,1,16-16.689a3.735,3.735,0,0,1-2.067-.572,2.73,2.73,0,0,0-1.554-.439,2.731,2.731,0,0,0-1.554.438,3.735,3.735,0,0,1-2.067.572,4.587,4.587,0,0,1-.536-.03,4.458,4.458,0,0,1-.521-.094A4.513,4.513,0,0,1,7.188-17c-.181-.082-.342-.171-.5-.257A2.731,2.731,0,0,0,5.138-17.7a2.73,2.73,0,0,0-1.554.439,3.735,3.735,0,0,1-2.067.572A.511.511,0,0,1,1-17.194a.511.511,0,0,1,.517-.505,2.73,2.73,0,0,0,1.554-.439,3.735,3.735,0,0,1,2.067-.572,3.735,3.735,0,0,1,2.067.572,2.73,2.73,0,0,0,1.554.439,2.73,2.73,0,0,0,1.554-.439,3.735,3.735,0,0,1,2.067-.572,3.735,3.735,0,0,1,2.067.572A2.73,2.73,0,0,0,16-17.7a2.731,2.731,0,0,0,1.554-.439,3.735,3.735,0,0,1,2.067-.572,3.735,3.735,0,0,1,2.067.572,2.73,2.73,0,0,0,1.554.439,2.732,2.732,0,0,0,1.554-.439,3.736,3.736,0,0,1,2.067-.572,3.736,3.736,0,0,1,2.067.572,2.731,2.731,0,0,0,1.554.439.511.511,0,0,1,.517.505A.511.511,0,0,1,30.483-16.689Z" fill="#333"/><path d="M15.455-17.232v2.307H19.7v-1.4a.464.464,0,0,1,.47-.458.464.464,0,0,1,.47.458V-5.76A4.565,4.565,0,0,0,22.76-1.924,4.537,4.537,0,0,0,24.878-5.76a.464.464,0,0,1,.47-.458.464.464,0,0,1,.47.458,5.421,5.421,0,0,1-2.119,4.3,4.8,4.8,0,0,0,1.649.291A4.659,4.659,0,0,0,30.06-5.76a.464.464,0,0,1,.47-.458A.464.464,0,0,1,31-5.76,5.589,5.589,0,0,1,25.348-.25,5.589,5.589,0,0,1,19.7-5.76v-.882H15.455v.882a4.659,4.659,0,0,0,4.712,4.594c.109,0,.218,0,.326-.011a.466.466,0,0,1,.5.426.462.462,0,0,1-.437.488c-.129.009-.261.013-.391.013a5.589,5.589,0,0,1-5.652-5.51V-17.49A6.269,6.269,0,0,1,15.455-17.232Zm0,3.223v2.767H19.7v-2.767ZM19.7-7.559v-2.767H15.455v2.767Z" fill="#333"/><path d="M26.862-19.719a2.731,2.731,0,0,0-1.554.439,3.737,3.737,0,0,1-2.067.572,3.735,3.735,0,0,1-2.067-.572,2.73,2.73,0,0,0-1.554-.439,2.73,2.73,0,0,0-1.554.439A3.735,3.735,0,0,1,16-18.709a3.735,3.735,0,0,1-2.067-.572,2.73,2.73,0,0,0-1.554-.439,2.73,2.73,0,0,0-1.554.439,3.736,3.736,0,0,1-2.067.572,3.736,3.736,0,0,1-2.067-.572,2.73,2.73,0,0,0-1.554-.439.511.511,0,0,1-.517-.505.511.511,0,0,1,.517-.505,3.735,3.735,0,0,1,2.067.572,2.73,2.73,0,0,0,1.554.438,2.73,2.73,0,0,0,1.554-.438,3.735,3.735,0,0,1,2.067-.572,3.735,3.735,0,0,1,2.067.572A2.73,2.73,0,0,0,16-19.719a2.731,2.731,0,0,0,1.554-.438,3.736,3.736,0,0,1,2.067-.572,3.735,3.735,0,0,1,2.067.572,2.73,2.73,0,0,0,1.554.438,2.732,2.732,0,0,0,1.554-.438,3.736,3.736,0,0,1,2.067-.572.511.511,0,0,1,.517.505A.511.511,0,0,1,26.862-19.719Z" fill="#333"/><path d="M23.241-21.48a3.735,3.735,0,0,1-2.067-.572,2.73,2.73,0,0,0-1.554-.439,2.73,2.73,0,0,0-1.554.439A3.735,3.735,0,0,1,16-21.48a3.735,3.735,0,0,1-2.067-.572,2.73,2.73,0,0,0-1.554-.439,2.73,2.73,0,0,0-1.554.438,3.735,3.735,0,0,1-2.067.572.511.511,0,0,1-.517-.505.511.511,0,0,1,.517-.505,2.73,2.73,0,0,0,1.554-.439,3.736,3.736,0,0,1,2.067-.572,3.736,3.736,0,0,1,2.067.572A2.73,2.73,0,0,0,16-22.49a2.73,2.73,0,0,0,1.554-.439A3.737,3.737,0,0,1,19.62-23.5a3.736,3.736,0,0,1,2.067.572,2.73,2.73,0,0,0,1.554.439.511.511,0,0,1,.517.505A.511.511,0,0,1,23.241-21.48Z" fill="#ffa506"/></g></g></svg>
