<svg xmlns="http://www.w3.org/2000/svg" width="32" height="32" viewBox="0 0 32 32"><g transform="translate(-35 -27)"><g transform="translate(35 27)"><rect width="32" height="32" fill="#fff" opacity="0"/><g transform="translate(1 3)"><g transform="translate(1.737 13.852)"><path d="M.953,4.409V2.363L2.161,1.081,3.55,2.417v2.16h.609V2.363a.613.613,0,0,0-.164-.417L2.612.454a.614.614,0,0,0-.9,0L.328,1.946a.615.615,0,0,0-.164.417V4.577Z" fill="#333"/><path d="M3.543,6.947v4.736H.962v-4.6l-.8-.134v5.04a.614.614,0,0,0,.614.614H3.543a.614.614,0,0,0,.614-.614V6.947Z" fill="#333"/><g transform="translate(5.337)"><path d="M.953,4.409V2.363L2.161,1.081,3.55,2.417v2.16h.609V2.363a.613.613,0,0,0-.164-.417L2.612.454a.614.614,0,0,0-.9,0L.328,1.946a.615.615,0,0,0-.164.417V4.577Z" fill="#333"/><path d="M3.543,6.947v4.736H.962v-4.6l-.8-.134v5.04a.614.614,0,0,0,.614.614H3.543a.614.614,0,0,0,.614-.614V6.947Z" fill="#333"/></g><g transform="translate(10.673)"><path d="M.953,4.409V2.363L2.161,1.081,3.55,2.417v2.16h.609V2.363a.613.613,0,0,0-.164-.417L2.612.454a.614.614,0,0,0-.9,0L.328,1.946a.615.615,0,0,0-.164.417V4.577Z" fill="#333"/><path d="M3.543,6.947v4.736H.962v-4.6l-.8-.134v5.04a.614.614,0,0,0,.614.614H3.543a.614.614,0,0,0,.614-.614V6.947Z" fill="#333"/></g><g transform="translate(16.01)"><path d="M.953,4.409V2.363L2.161,1.081,3.55,2.417v2.16h.609V2.363a.613.613,0,0,0-.164-.417L2.612.454a.614.614,0,0,0-.9,0L.328,1.946a.615.615,0,0,0-.164.417V4.577Z" fill="#333"/><path d="M3.543,6.947v4.736H.962v-4.6l-.8-.134v5.04a.614.614,0,0,0,.614.614H3.543a.614.614,0,0,0,.614-.614V6.947Z" fill="#333"/></g><g transform="translate(21.347)"><path d="M.953,4.409V2.363L2.161,1.081,3.55,2.417v2.16h.609V2.363a.613.613,0,0,0-.164-.417L2.612.454a.614.614,0,0,0-.9,0L.328,1.946a.615.615,0,0,0-.164.417V4.577Z" fill="#333"/><path d="M3.543,6.947v4.736H.962v-4.6l-.8-.134v5.04a.614.614,0,0,0,.614.614H3.543a.614.614,0,0,0,.614-.614V6.947Z" fill="#333"/></g></g><path d="M27.894,21.779H1.356a.98.98,0,0,1-.98-.98v-2.37a.98.98,0,0,1,.98-.981H27.894a.98.98,0,0,1,.98.981V20.8A.98.98,0,0,1,27.894,21.779Z" fill="#333"/><path d="M27.894,21.047a.248.248,0,0,0,.248-.248v-2.37a.249.249,0,0,0-.248-.249H1.356a.249.249,0,0,0-.249.249V20.8a.248.248,0,0,0,.249.248Z" fill="#fff"/><path d="M28.069,5.074h1V26.842h-1Z" fill="#333"/><path d="M11.2,9.519c-.676,0-1.721.543-1.7.867l-.731.018c0-.4-.724-.886-1.317-.886a.887.887,0,0,0-.886.886.992.992,0,1,1-1.983,0,.886.886,0,1,0-1.771,0,.992.992,0,1,1-1.983,0A8.513,8.513,0,0,1,8.7,1.932H9.98A8.508,8.508,0,0,1,17.825,10.4a.992.992,0,1,1-1.983,0,.886.886,0,1,0-1.771,0,.992.992,0,1,1-1.983,0A.887.887,0,0,0,11.2,9.519ZM9.5,10.4l-.731.018a1.112,1.112,0,0,1,.4-.838A1.283,1.283,0,0,1,9.5,10.4Zm1.7-1.617A1.619,1.619,0,0,1,12.82,10.4a.26.26,0,1,0,.52,0,1.617,1.617,0,1,1,3.234,0,.26.26,0,1,0,.52,0A7.772,7.772,0,0,0,9.952,2.664H8.729A7.776,7.776,0,0,0,1.559,10.4a.26.26,0,1,0,.52,0,1.617,1.617,0,1,1,3.235,0,.26.26,0,1,0,.52,0A1.619,1.619,0,0,1,7.45,8.788a2.374,2.374,0,0,1,1.719.8A3.215,3.215,0,0,1,11.2,8.788Z" fill="#333"/><path d="M9.146,9.6a.366.366,0,0,1,.366.366v4.39a.366.366,0,1,1-.732,0V9.968A.366.366,0,0,1,9.146,9.6Z" fill="#ffa506"/><path d="M9.146.549a.366.366,0,0,1,.366.366v.822a.366.366,0,0,1-.732,0V.915A.366.366,0,0,1,9.146.549Z" fill="#ffa506"/><path d="M3.283,8.122a2.585,2.585,0,0,0-.869.152A7.194,7.194,0,0,1,6.33,4.144,12.485,12.485,0,0,0,4.777,8.6,2.581,2.581,0,0,0,3.283,8.122Z" fill="#ffa506"/><path d="M5.461,8.122a2.585,2.585,0,0,1,.869.152,7.194,7.194,0,0,0-3.915-4.13A12.485,12.485,0,0,1,3.968,8.6,2.581,2.581,0,0,1,5.461,8.122Z" transform="translate(9.732)" fill="#ffa506"/></g></g></g></svg>
