<svg xmlns="http://www.w3.org/2000/svg" width="32" height="32" viewBox="0 0 32 32"><rect width="32" height="32" fill="#fff" opacity="0"/><g transform="translate(1 1)"><path d="M14.652,29.125A14.473,14.473,0,1,1,29.125,14.652,14.473,14.473,0,0,1,14.652,29.125Zm0-1.071a13.4,13.4,0,1,0-13.4-13.4A13.4,13.4,0,0,0,14.652,28.053Z" fill="#333"/><path d="M11.894,4.833a7.5,7.5,0,0,0-7.5,7.5H5.462A6.433,6.433,0,0,1,11.894,5.9Zm5.514,20.334a7.5,7.5,0,0,0,7.5-7.5H23.841A6.433,6.433,0,0,1,17.409,24.1Z" transform="translate(14.898 -5.967) rotate(45)" fill="#ffa506"/><path d="M11.894,4.833a7.5,7.5,0,0,0-7.5,7.5H5.462A6.433,6.433,0,0,1,11.894,5.9Zm5.514,20.334a7.5,7.5,0,0,0,7.5-7.5H23.841A6.433,6.433,0,0,1,17.409,24.1Z" transform="matrix(0.695, -0.719, 0.719, 0.695, -6.316, 15.12)" fill="#ffa506"/><g transform="translate(4.832 5.022)"><path d="M3.373,3.388,5.756,7.354l1.267-.317L7.34,5.771ZM7.612,7.626l-2.2.549L1.286,1.3,8.161,5.431Z" fill="#333"/><path d="M12.91,5.755l.318,1.28,1.263.307,2.369-3.978Zm1.924,2.406-2.2-.534-.549-2.21,6.846-4.145Z" fill="#333"/><path d="M14.524,12.881l-1.279.318-.309,1.277,3.984,2.372Zm-1.871-.271,2.21-.549,4.145,6.861-6.89-4.1Z" fill="#333"/><path d="M7.368,14.48l-.316-1.254L5.77,12.9,3.385,16.868Zm-1.937-2.4,2.21.563L8.19,14.82,1.3,18.951Z" fill="#333"/><path d="M17.242,10.112l-5.7-1.4L10.11,2.95,8.678,8.678,2.948,10.11l5.745,1.434,1.415,5.7,1.406-5.715Zm2.98,0L12.1,12.119l-1.993,8.1L8.1,12.133,0,10.111,8.089,8.089,10.111,0l2.022,8.118Z" fill="#333"/></g></g></svg>
