<svg xmlns="http://www.w3.org/2000/svg" width="32" height="32" viewBox="0 0 32 32"><rect width="32" height="32" fill="#fff" opacity="0"/><g transform="translate(3 1)"><g transform="translate(3.846 4.615)"><path d="M13.658.545a1.6,1.6,0,0,1,1.464,1.03h0l2.32,4.751a.4.4,0,0,1,.05.1,2.846,2.846,0,0,1,.893,2.084h0v4.739a.4.4,0,0,1-.4.4H16.8v2.382a.4.4,0,0,1-.4.4H13.223a.4.4,0,0,1-.4-.4h0V13.645H5.681v2.382a.4.4,0,0,1-.4.4H2.108a.4.4,0,0,1-.4-.4h0V13.645H.52a.4.4,0,0,1-.4-.4h0V8.509a2.837,2.837,0,0,1,.893-2.072.4.4,0,0,1,.05-.112h0L3.411,1.538A1.559,1.559,0,0,1,4.85.545h8.808ZM15.679,6.5H2.828a1.952,1.952,0,0,0-1.91,2.01h0v4.342H17.59V8.509a1.952,1.952,0,0,0-1.91-2.01ZM13.658,1.339H4.85a.956.956,0,0,0-.719.509q-.005.019-.012.037h0l-1.91,3.9a2.611,2.611,0,0,1,.62-.074H15.679a2.611,2.611,0,0,1,.62.074h0l-1.91-3.9c0-.012-.009-.025-.012-.037a.956.956,0,0,0-.719-.509Z" fill="#333"/><path d="M2.108,8.087v3.176H4.565a1.59,1.59,0,0,0,0-3.176H2.108Z" fill="#ffa506"/><path d="M13.943,8.087a1.59,1.59,0,0,0,0,3.176H16.4V8.087H13.943Z" fill="#ffa506"/></g><path d="M6.351,18.26H8.733v1.985H6.351Z" fill="#fff"/><path d="M17.466,18.26h2.382v1.985H17.466Z" fill="#fff"/><path d="M1.985,0A1.989,1.989,0,0,0,0,1.985v22.23A1.989,1.989,0,0,0,1.985,26.2h8.733v3.006H8.336a.411.411,0,0,0-.372.215A.4.4,0,0,0,8.336,30h9.527a.4.4,0,1,0,0-.794H15.482V26.2h8.733A1.989,1.989,0,0,0,26.2,24.215V1.985A1.989,1.989,0,0,0,24.215,0Zm0,.794h22.23a1.18,1.18,0,0,1,1.191,1.191v22.23a1.18,1.18,0,0,1-1.191,1.191H1.985A1.18,1.18,0,0,1,.794,24.215V1.985A1.18,1.18,0,0,1,1.985.794ZM11.512,26.2h3.176v3.006H11.512Z" fill="#333"/></g></svg>
