<svg xmlns="http://www.w3.org/2000/svg" width="32" height="32" viewBox="0 0 32 32"><rect width="32" height="32" fill="#fff" opacity="0"/><g transform="translate(1 1)"><path d="M12.707,18.451l2.108,2.063,2.108-2.051a2.838,2.838,0,0,0-4.216,0Z" fill="#ffa506"/><path d="M10.53,16.332a5.983,5.983,0,0,1,8.581,0l1.994-1.949a8.873,8.873,0,0,0-12.57,0Z" fill="#ffa506"/><path d="M1.081,6.069l.978.95a18.985,18.985,0,0,1,25.523,0l.977-.95A20.4,20.4,0,0,0,1.081,6.069Zm28.434-.131.125.125L27.59,8.058a18.234,18.234,0,0,0-25.538,0L0,6.064l.125-.125A21.151,21.151,0,0,1,29.516,5.939Z" fill="#333"/><path d="M14.818,6.563A14.158,14.158,0,0,0,5.3,10.175l1.061,1.038a12.74,12.74,0,0,1,16.9,0l1.061-1.038A14.156,14.156,0,0,0,14.818,6.563Zm10.458,3.478.125.125-2.131,2.085a11.989,11.989,0,0,0-16.923,0L4.217,10.167l.125-.125a15.071,15.071,0,0,1,20.935,0Z" fill="#333"/><rect width="1" height="6.923" transform="translate(14.615 22.308)" fill="#333"/><path d="M7.692,28.462H22.308v.769H7.692Z" fill="#333"/></g></svg>
